<?xml version="1.0" encoding="UTF-8"?>
<svg version="1.1" xmlns="http://www.w3.org/2000/svg" width="798" height="433">
<path d="M0 0 C2.90730343 0.28614957 5.74311681 0.4390986 8.6640625 0.3984375 C11.59765625 0.40234375 11.59765625 0.40234375 12.59765625 1.40234375 C14.10848751 1.67716104 15.6294136 1.89672358 17.15234375 2.09375 C52.46724869 6.93491519 87.5924864 15.43490664 120.42773438 29.47460938 C122.51477591 30.36690886 124.60965542 31.23779832 126.70703125 32.10546875 C137.33815219 36.56410118 147.48391836 41.88307407 157.59765625 47.40234375 C158.20786621 47.73314941 158.81807617 48.06395508 159.44677734 48.40478516 C175.96717103 57.41028082 191.95899133 67.5755045 206.59765625 79.40234375 C208.07523004 80.52943502 209.55429193 81.65457935 211.03515625 82.77734375 C223.89009707 92.81218787 237.28397998 103.69280473 247.74609375 116.2421875 C249.67410252 118.49153107 251.70096827 120.6302021 253.74414062 122.7746582 C280.7416784 151.29059362 307.77589408 193.94373349 313.59765625 233.40234375 C306.45510685 231.98304016 299.67117652 229.86687343 292.75445557 227.60522461 C278.3915487 222.9346646 263.87997444 219.03553406 249.22265625 215.40234375 C248.26886078 215.16532745 247.31506531 214.92831116 246.33236694 214.68411255 C243.58070427 214.00247647 240.82788437 213.32583954 238.07421875 212.65234375 C237.26488388 212.45378281 236.45554901 212.25522186 235.62168884 212.05064392 C225.53119299 209.28216073 225.53119299 209.28216073 215.23046875 208.68359375 C214.36164062 208.59078125 213.4928125 208.49796875 212.59765625 208.40234375 C210.87033738 206.20048673 209.72327921 204.35875144 208.47265625 201.90234375 C203.97234337 193.76505926 198.68961242 186.48902633 192.97314453 179.16845703 C191.80054086 177.66284557 190.64809667 176.14156911 189.5 174.6171875 C178.2065946 160.09067996 164.41591299 147.24719339 149.59765625 136.40234375 C148.29134576 135.41188143 146.98537423 134.42097195 145.6796875 133.4296875 C77.46464956 82.2988296 -15.09695049 65.03418657 -98.45776367 76.66796875 C-146.70169417 83.98290632 -196.35315666 99.80346116 -236.40234375 128.40234375 C-236.97227051 128.80388672 -237.54219727 129.20542969 -238.12939453 129.61914062 C-260.38616635 145.33536389 -280.98502924 163.80196225 -296.40234375 186.40234375 C-296.87027344 187.08409668 -297.33820313 187.76584961 -297.8203125 188.46826172 C-303.17048496 195.92517618 -303.17048496 195.92517618 -307.49072266 203.953125 C-310.36157515 207.63133601 -313.60517754 207.90022909 -318.046875 208.796875 C-319.35026825 209.08652885 -319.35026825 209.08652885 -320.67999268 209.3820343 C-322.54842317 209.79531064 -324.41888178 210.19950178 -326.29104614 210.59552002 C-331.21760871 211.63907279 -336.12881437 212.75134203 -341.04296875 213.8515625 C-342.02254044 214.06876953 -343.00211212 214.28597656 -344.0113678 214.50976562 C-364.97744445 219.1741907 -385.57516661 225.17438099 -406.03759766 231.68139648 C-408.14795846 232.32478854 -410.25676684 232.89064882 -412.40234375 233.40234375 C-411.1705468 226.01256761 -409.13006375 219.2080749 -406.46484375 212.21484375 C-405.87159302 210.65660889 -405.87159302 210.65660889 -405.26635742 209.06689453 C-397.67594849 189.52000374 -388.1560101 171.75333103 -376.40234375 154.40234375 C-375.9340918 153.70753906 -375.46583984 153.01273438 -374.98339844 152.296875 C-367.02301859 140.5732984 -357.84547267 129.95340156 -348.27734375 119.5234375 C-346.36758793 117.43707576 -346.36758793 117.43707576 -344.77734375 115.125 C-344.32359375 114.55652344 -343.86984375 113.98804688 -343.40234375 113.40234375 C-342.74234375 113.40234375 -342.08234375 113.40234375 -341.40234375 113.40234375 C-341.40234375 112.74234375 -341.40234375 112.08234375 -341.40234375 111.40234375 C-339.77731884 109.6614634 -338.13528206 108.03038933 -336.40234375 106.40234375 C-335.87463379 105.89751465 -335.34692383 105.39268555 -334.80322266 104.87255859 C-333.11742089 103.26696238 -331.41786775 101.67714698 -329.71484375 100.08984375 C-329.13412109 99.54005859 -328.55339844 98.99027344 -327.95507812 98.42382812 C-323.63385578 94.40234375 -323.63385578 94.40234375 -321.40234375 94.40234375 C-321.40234375 93.74234375 -321.40234375 93.08234375 -321.40234375 92.40234375 C-319.39713787 90.67445358 -317.38363401 89.06177512 -315.27734375 87.46484375 C-313.98148784 86.46781562 -312.68592273 85.47040944 -311.390625 84.47265625 C-310.72498535 83.96250977 -310.0593457 83.45236328 -309.37353516 82.92675781 C-307.52637198 81.49826056 -305.70082713 80.04735825 -303.8828125 78.58203125 C-256.46914622 40.43435004 -198.47953083 17.85809562 -139.40234375 5.40234375 C-138.5103125 5.2125293 -137.61828125 5.02271484 -136.69921875 4.82714844 C-135.37857422 4.55306152 -135.37857422 4.55306152 -134.03125 4.2734375 C-133.24177979 4.10900146 -132.45230957 3.94456543 -131.63891602 3.77514648 C-128.50714888 3.25312832 -125.56958096 3.26463778 -122.40234375 3.40234375 C-122.07234375 2.74234375 -121.74234375 2.08234375 -121.40234375 1.40234375 C-118.98046875 1.05859375 -118.98046875 1.05859375 -115.65234375 0.90234375 C-110.54059961 0.6146476 -105.47597559 0.21990784 -100.38598633 -0.32885742 C-67.17112444 -3.83538374 -33.22063859 -3.28085949 0 0 Z " fill="#000101" transform="translate(452.40234375,43.59765625)"/>
<path d="M0 0 C1.546875 1.3671875 1.546875 1.3671875 3.25 3.125 C4.09949219 3.91777344 4.94898438 4.71054688 5.82421875 5.52734375 C9.61627421 10.14859914 9.6541102 16.07510319 10.3125 21.8125 C12.19043228 37.43797479 16.2954406 52.29905311 29.09765625 62.5703125 C45.10759091 74.13465732 62.04700883 76.44155592 81.390625 76.4609375 C82.92698278 76.46738743 84.46333941 76.47411729 85.99969482 76.48110962 C89.20343873 76.49300289 92.40707546 76.49679872 95.61083984 76.49560547 C99.66948058 76.4954027 103.72741786 76.52269657 107.78589249 76.55714989 C110.95539359 76.57963979 114.12473125 76.58343635 117.29430389 76.58238602 C118.78829113 76.58470926 120.28228525 76.59334193 121.77619171 76.60905075 C140.68196076 76.78926685 158.21259662 72.55208149 172.25 59.125 C177.93199244 52.42050778 181.46568702 43.99592315 185.25 36.125 C186.87580966 36.23898665 188.50067157 36.36655659 190.125 36.5 C191.02992188 36.56960938 191.93484375 36.63921875 192.8671875 36.7109375 C195.25 37.125 195.25 37.125 197.25 39.125 C199.34981589 39.93882015 199.34981589 39.93882015 201.79296875 40.59765625 C202.70240234 40.85740234 203.61183594 41.11714844 204.54882812 41.38476562 C205.9787207 41.78211914 205.9787207 41.78211914 207.4375 42.1875 C208.37142578 42.45626953 209.30535156 42.72503906 210.26757812 43.00195312 C214.29260645 44.13779856 218.20388301 45.19806502 222.36328125 45.68359375 C223.31589844 45.82925781 224.26851562 45.97492188 225.25 46.125 C225.58 46.785 225.91 47.445 226.25 48.125 C227.24 48.125 228.23 48.125 229.25 48.125 C230.24 48.785 231.23 49.445 232.25 50.125 C233.7564018 50.68620851 235.27907729 51.20498972 236.8125 51.6875 C241.03571806 53.02589259 244.45378363 54.82729009 248.25 57.125 C244.86633962 82.07949533 226.75472314 105.20210869 207.28027344 120.1184082 C190.4169778 132.45430682 170.64071923 138.66021648 150.25 142.125 C149.23164062 142.30417969 148.21328125 142.48335937 147.1640625 142.66796875 C141.34915104 143.34695542 135.53675405 143.5078819 129.6875 143.6875 C129.02393494 143.70801422 128.36036987 143.72852844 127.67669678 143.74966431 C25.78485903 146.81560974 25.78485903 146.81560974 -7.75 119.125 C-9.20756214 118.01981552 -10.665933 116.915697 -12.125 115.8125 C-28.66962394 102.78077567 -42.80997511 85.89871582 -50.75 66.125 C-50.75 65.135 -50.75 64.145 -50.75 63.125 C-51.41 62.795 -52.07 62.465 -52.75 62.125 C-53.51692309 59.6624579 -54.1635679 57.25608091 -54.75 54.75 C-54.9975 53.75033203 -54.9975 53.75033203 -55.25 52.73046875 C-55.78132567 50.53459938 -56.27150859 48.33297846 -56.75 46.125 C-56.93457764 45.29750244 -57.11915527 44.47000488 -57.30932617 43.61743164 C-58.83498107 36.16375154 -59.09651815 28.90679516 -59.0625 21.3125 C-59.05839111 19.46615967 -59.05839111 19.46615967 -59.05419922 17.58251953 C-58.80770325 -3.81729675 -58.80770325 -3.81729675 -53.75 -8.875 C-36.41121899 -12.75580046 -14.26454927 -11.74908036 0 0 Z M1.25 45.125 C2.25 47.125 2.25 47.125 2.25 47.125 Z M2.25 47.125 C2.81545837 51.08320859 4.05902348 53.7909053 6.25 57.125 C6.91 56.795 7.57 56.465 8.25 56.125 C6.6 53.155 4.95 50.185 3.25 47.125 C2.92 47.125 2.59 47.125 2.25 47.125 Z M8.25 57.125 C8.25 62.60347786 12.25092059 66.27702434 15.875 70.0625 C23.2216625 77.21727207 31.64546203 82.55121843 41.25 86.125 C41.88550781 86.3621875 42.52101563 86.599375 43.17578125 86.84375 C52.22050853 90.05679699 61.43582534 91.40510104 71 91.75 C71.94174072 91.78722168 72.88348145 91.82444336 73.85375977 91.86279297 C83.96201269 92.20448483 94.07449694 92.23154824 104.1875 92.25 C105.01221802 92.25267883 105.83693604 92.25535767 106.68664551 92.25811768 C130.17883919 92.31593994 154.31930071 92.17035107 173.25 76.125 C172.92 75.135 172.59 74.145 172.25 73.125 C171.51394531 73.53492188 170.77789063 73.94484375 170.01953125 74.3671875 C169.04371094 74.90601563 168.06789063 75.44484375 167.0625 76 C166.09957031 76.53367187 165.13664063 77.06734375 164.14453125 77.6171875 C159.8380709 79.86049883 155.55254372 81.40754176 150.875 82.6875 C149.98039063 82.93628906 149.08578125 83.18507813 148.1640625 83.44140625 C142.44951483 84.78195028 136.8841755 85.25360173 131.02392578 85.28613281 C129.99533699 85.29358017 129.99533699 85.29358017 128.94596863 85.30117798 C126.69573932 85.31567986 124.44558072 85.32258492 122.1953125 85.328125 C121.02870401 85.33236607 121.02870401 85.33236607 119.83852768 85.33669281 C115.71461403 85.35164424 111.59073492 85.36089662 107.46679688 85.36523438 C103.25692156 85.37068301 99.04737557 85.39464554 94.83760262 85.42320633 C91.55826982 85.44206109 88.27901233 85.44705047 84.99962997 85.44857025 C83.45065404 85.45155113 81.9016779 85.4594198 80.3527565 85.47275543 C55.31846732 85.67273771 31.76541105 80.11638998 13.25 62.125 C12.7240625 61.61453125 12.198125 61.1040625 11.65625 60.578125 C10.50662517 59.44127378 9.37553412 58.28570706 8.25 57.125 Z M183.25 62.125 C184.25 64.125 184.25 64.125 184.25 64.125 Z M180.25 66.125 C179.92 66.785 179.59 67.445 179.25 68.125 C179.91 68.125 180.57 68.125 181.25 68.125 C180.92 67.465 180.59 66.805 180.25 66.125 Z M178.25 68.125 C179.25 70.125 179.25 70.125 179.25 70.125 Z " fill="#0C7ECE" transform="translate(383.75,246.875)"/>
<path d="M0 0 C0.33 0.66 0.66 1.32 1 2 C1.66 2 2.32 2 3 2 C3.33 1.34 3.66 0.68 4 0 C4 0.66 4 1.32 4 2 C4.64582031 1.95359375 5.29164063 1.9071875 5.95703125 1.859375 C31.18705401 0.89297194 57.51030558 12.25187806 76 29 C76.87269531 29.75410156 77.74539063 30.50820312 78.64453125 31.28515625 C83.79534891 35.78729522 88.96878883 40.43372498 93 46 C93 46.66 93 47.32 93 48 C93.66 48 94.32 48 95 48 C97.67474703 51.43049273 99.80434528 55.25010636 102 59 C102.36609375 59.62148926 102.7321875 60.24297852 103.109375 60.88330078 C109.44112729 71.78768411 113.90160023 82.7768129 117 95 C117.17789062 95.69577148 117.35578125 96.39154297 117.5390625 97.10839844 C120.95538383 111.26850806 123.28654934 132.88187607 119 147 C96.05868095 146.27684973 75.06684275 143.34831583 56.31640625 128.9375 C53.0045997 124.73770484 52.70701124 120.70565532 52 115.5 C49.77078617 101.61962532 46.14749794 91.0089074 37 80 C36.47921875 79.35417969 35.9584375 78.70835937 35.421875 78.04296875 C26.25440528 67.78744075 11.30833857 61.92041081 -2 60 C-4.19625274 59.89784846 -6.39496196 59.84212263 -8.59350586 59.82299805 C-9.88602768 59.81016281 -11.1785495 59.79732758 -12.51023865 59.78410339 C-13.91176971 59.77592956 -15.3133052 59.76848707 -16.71484375 59.76171875 C-17.42980074 59.75764322 -18.14475773 59.7535677 -18.88138008 59.74936867 C-22.67230049 59.72856236 -26.46318539 59.7142422 -30.25415039 59.70483398 C-34.12694897 59.69383344 -37.99916288 59.65949277 -41.87175655 59.61966228 C-44.88593952 59.59322688 -47.8999894 59.58511824 -50.91427803 59.58155251 C-52.33932975 59.57674871 -53.76437813 59.56531771 -55.18931389 59.54651451 C-72.66155088 59.330443 -88.8549653 63.43196877 -102.125 75.375 C-102.80820313 76.04273438 -103.49140625 76.71046875 -104.1953125 77.3984375 C-107.29316123 80.14761061 -110.38966327 80.17622243 -114.36328125 80.39453125 C-115.46317383 80.4608374 -116.56306641 80.52714355 -117.69628906 80.59545898 C-118.88963867 80.66708252 -120.08298828 80.73870605 -121.3125 80.8125 C-142.01756438 82.17439113 -162.68535946 84.71640168 -183 89 C-180.83505527 70.6200611 -169.61239177 53.80201649 -158 40 C-157.5565625 39.41089844 -157.113125 38.82179687 -156.65625 38.21484375 C-141.07677522 18.12302109 -112.52763158 5.6877191 -87.89382935 2.40615845 C-77.26529999 1.13929696 -66.75118786 0.66558432 -56.0546875 0.5859375 C-54.42130637 0.56715455 -52.78793421 0.54757635 -51.15457153 0.5272522 C-46.92325215 0.47667543 -42.69190155 0.4366596 -38.46044922 0.39910889 C-34.11548627 0.35859283 -29.77064465 0.30772186 -25.42578125 0.2578125 C-16.9506048 0.16193919 -8.4753665 0.07726134 0 0 Z " fill="#32ADEF" transform="translate(357,165)"/>
<path d="M0 0 C0.21914062 0.53367187 0.43828125 1.06734375 0.6640625 1.6171875 C5.40856051 12.76482917 11.09110242 23.05905614 21.5625 29.625 C22.1702124 30.01107422 22.7779248 30.39714844 23.40405273 30.79492188 C28.95798953 34.19850494 34.67627477 36.41671261 41 38 C41.7321875 38.18433594 42.464375 38.36867188 43.21875 38.55859375 C47.44207268 39.22886828 51.66871282 39.3787356 55.9375 39.5625 C56.89374268 39.60858398 57.84998535 39.65466797 58.83520508 39.70214844 C63.97911259 39.92537699 69.08660996 40.01225424 74.234375 39.88671875 C75.23218994 39.86601318 76.23000488 39.84530762 77.25805664 39.82397461 C79.18241103 39.77538061 81.10636501 39.70523701 83.02905273 39.61157227 C85.44133676 39.55243125 87.62914026 39.55207153 90 40 C91.87890625 42.0390625 91.87890625 42.0390625 93 45 C93.58843128 46.20571555 94.18826056 47.40590794 94.796875 48.6015625 C95.44791797 49.9427077 96.09895959 51.28385356 96.75 52.625 C102.10091901 63.91186327 102.10091901 63.91186327 109.69921875 73.66796875 C111 75 111 75 111 77 C111.66 77 112.32 77 113 77 C114.33934783 78.66183722 115.67156419 80.32942709 117 82 C125.68713336 89.69070934 135.70201735 94.83880727 146 100 C130.63332444 110.24445037 102.01290997 106.8517456 84 107 C82.45621672 107.01522573 80.91243416 107.03052528 79.36865234 107.04589844 C74.84995894 107.08771164 70.33135882 107.11102899 65.8125 107.125 C65.12746399 107.12786011 64.44242798 107.13072021 63.7366333 107.13366699 C50.55011495 107.17272635 37.14478575 107.07705959 24.1875 104.375 C23.3612915 104.20532715 22.53508301 104.0356543 21.68383789 103.86083984 C-7.67592048 97.42925693 -34.21119091 80.57043529 -50.6875 55.125 C-65.58107467 31.47106306 -65.58107467 31.47106306 -64.80322266 21.4699707 C-64 19 -64 19 -62.15600586 17.71728516 C-61.35042236 17.41097168 -60.54483887 17.1046582 -59.71484375 16.7890625 C-58.34743042 16.25756592 -58.34743042 16.25756592 -56.95239258 15.71533203 C-55.95747803 15.35552246 -54.96256348 14.99571289 -53.9375 14.625 C-52.40355591 14.04854736 -52.40355591 14.04854736 -50.83862305 13.46044922 C-39.74172594 9.37865704 -28.42150024 6.04077632 -17 3 C-15.41711182 2.57412598 -15.41711182 2.57412598 -13.80224609 2.13964844 C-12.74730957 1.86411133 -11.69237305 1.58857422 -10.60546875 1.3046875 C-9.6518042 1.05444824 -8.69813965 0.80420898 -7.71557617 0.54638672 C-5.06235294 0.0125457 -2.6975584 -0.10232646 0 0 Z " fill="#00338A" transform="translate(239,284)"/>
<path d="M0 0 C3.81872506 0.00537573 7.63733308 0.0000071 11.45605469 -0.00634766 C22.79525002 -0.01073739 34.1282524 0.05784534 45.45996094 0.49755859 C46.32033966 0.52582733 47.18071838 0.55409607 48.06716919 0.58322144 C56.57164989 0.97435217 64.23088588 3.25423342 72.19042969 6.13037109 C73.30417969 6.50162109 74.41792969 6.87287109 75.56542969 7.25537109 C88.68664815 11.88638937 100.7589963 18.94077501 111.19042969 28.13037109 C112.03089844 28.83935547 112.87136719 29.54833984 113.73730469 30.27880859 C130.25028125 44.54001563 141.20166303 64.28678657 147.19042969 85.13037109 C147.19042969 85.79037109 147.19042969 86.45037109 147.19042969 87.13037109 C139.84676058 86.50617439 132.64107066 85.4263744 125.37792969 84.19287109 C112.1150365 82.01603945 98.84375017 80.28441781 85.39355469 79.96630859 C83.96221191 79.92606567 83.96221191 79.92606567 82.50195312 79.88500977 C80.67748639 79.84144183 78.85232723 79.8194846 77.02734375 79.82299805 C72.64330164 79.72468766 70.79287356 79.62011012 67.28808594 76.77099609 C66.59585938 75.89958984 65.90363281 75.02818359 65.19042969 74.13037109 C51.43373118 60.4409425 34.00609669 58.69835316 15.62792969 58.44287109 C13.97360728 58.40961268 12.31930929 58.37511553 10.66503906 58.33935547 C5.50714514 58.23217123 0.34960262 58.13037109 -4.80957031 58.13037109 C-8.98815636 57.31136823 -10.44866117 56.64132855 -12.94238281 53.11083984 C-13.61901814 51.85320076 -14.28241022 50.5883744 -14.93457031 49.31787109 C-19.49571141 41.10603194 -25.151533 34.70587076 -31.80957031 28.13037109 C-32.49792969 27.44330078 -33.18628906 26.75623047 -33.89550781 26.04833984 C-42.18074472 18.30496443 -52.6115403 12.91861092 -62.80957031 8.13037109 C-63.13957031 9.12037109 -63.46957031 10.11037109 -63.80957031 11.13037109 C-63.80957031 9.81037109 -63.80957031 8.49037109 -63.80957031 7.13037109 C-65.12957031 6.47037109 -66.44957031 5.81037109 -67.80957031 5.13037109 C-65.93534879 4.64816847 -64.06015277 4.16975277 -62.18457031 3.69287109 C-60.61835938 3.29261719 -60.61835938 3.29261719 -59.02050781 2.88427734 C-52.42975012 1.33681234 -46.030609 0.84223657 -39.28613281 0.57568359 C-38.24099518 0.533638 -37.19585754 0.49159241 -36.11904907 0.44827271 C-24.08112624 0.00786763 -12.04465045 -0.02011051 0 0 Z " fill="#0078CD" transform="translate(484.8095703125,165.86962890625)"/>
<path d="M0 0 C55.34938903 -0.43119109 55.34938903 -0.43119109 82 2 C83.50840955 2.13083229 85.01687593 2.2610106 86.52539062 2.390625 C120.18175157 5.30815901 153.53947749 9.60088051 186.44433594 17.37207031 C193.29312772 18.9872732 199.97244361 20.45821074 207 21 C207 21.66 207 22.32 207 23 C207.56162842 23.09361816 208.12325684 23.18723633 208.7019043 23.28369141 C216.29787027 24.66533006 223.50014748 26.92401219 230.8125 29.375 C231.45341583 29.58876282 232.09433167 29.80252563 232.75466919 30.02276611 C242.96669626 33.44372199 252.98927881 37.25175263 262.9375 41.375 C264.747948 42.12402588 264.747948 42.12402588 266.5949707 42.88818359 C272.28625889 45.28873406 277.73427875 47.76545216 283 51 C281.29516731 54.40966539 277.31636661 55.19375137 273.9375 56.625 C267.70748956 59.32512733 261.56116091 62.12613735 255.5 65.1875 C254.8414502 65.5182251 254.18290039 65.8489502 253.50439453 66.18969727 C250.63290434 67.63924411 247.78565549 69.11611474 244.95703125 70.6484375 C244.08433594 71.11507812 243.21164062 71.58171875 242.3125 72.0625 C241.58675781 72.46597656 240.86101562 72.86945313 240.11328125 73.28515625 C237.2947664 74.23855406 235.82731254 73.90115249 233 73 C231.0686258 71.98137894 229.17702087 70.88637892 227.3125 69.75 C163.56339165 32.24178336 87.99892192 12.84032481 15 4 C13.22247427 3.77486973 11.44511478 3.54842075 9.66796875 3.3203125 C6.11363215 2.86601552 2.55788044 2.42582506 -1 2 C-0.67 1.34 -0.34 0.68 0 0 Z " fill="#040608" transform="translate(489,258)"/>
<path d="M0 0 C2.17317603 0.00503275 4.34635322 0.00959247 6.51953125 0.01367188 C11.76305004 0.02451909 17.00651171 0.04168234 22.25 0.0625 C21.92 0.7225 21.59 1.3825 21.25 2.0625 C18.61471146 2.58320762 16.03616005 2.97318227 13.375 3.3125 C-61.43181543 13.76742842 -142.9480275 31.52785167 -206.75 74.0625 C-210.79179757 73.70628387 -214.04396235 72.11232633 -217.65234375 70.33203125 C-218.78422119 69.77862061 -219.91609863 69.22520996 -221.08227539 68.6550293 C-221.67219269 68.36365082 -222.26210999 68.07227234 -222.86990356 67.77206421 C-238.23773561 58.70078473 -238.23773561 58.70078473 -254.75 54.0625 C-255.245 52.5775 -255.245 52.5775 -255.75 51.0625 C-197.43600172 19.01275921 -126.56031879 7.9639106 -61.0625 2.3125 C-60.37662811 2.25324341 -59.69075623 2.19398682 -58.98410034 2.13293457 C-39.31447705 0.46399323 -19.73716034 -0.08080253 0 0 Z " fill="#040607" transform="translate(289.75,257.9375)"/>
<path d="M0 0 C1.71292679 -0.00135005 3.4258532 -0.0032934 5.13877869 -0.00579834 C8.71340617 -0.00873283 12.28793311 -0.00450569 15.86254883 0.00488281 C20.42393769 0.01628501 24.98509131 0.00970234 29.5464716 -0.00226212 C33.07854457 -0.00951876 36.61056255 -0.00717553 40.14263725 -0.00200653 C41.82380642 -0.00068099 43.50498072 -0.00227895 45.18614388 -0.00696564 C53.43790744 -0.02492944 61.27886379 -0.04153483 69.27734375 2.265625 C70.30601562 2.54921875 71.3346875 2.8328125 72.39453125 3.125 C91.94216768 9.43783443 106.92828 22.3656901 116.40234375 40.640625 C122.81320009 53.61831958 126.75551155 67.88693459 128.27734375 82.265625 C129.06109375 82.20375 129.84484375 82.141875 130.65234375 82.078125 C131.95171875 82.1709375 131.95171875 82.1709375 133.27734375 82.265625 C134.26734375 83.750625 134.26734375 83.750625 135.27734375 85.265625 C137.66336713 86.13819345 139.88221687 86.80658543 142.33984375 87.390625 C143.04214111 87.56311768 143.74443848 87.73561035 144.46801758 87.91333008 C151.1616892 89.44333331 157.78788423 89.87406091 164.6328125 90.08984375 C167.65120751 90.2354255 170.34826539 90.56605871 173.27734375 91.265625 C173.27734375 91.595625 173.27734375 91.925625 173.27734375 92.265625 C159.69131672 92.70448287 147.18666691 93.05296991 134.27734375 88.265625 C133.01277344 87.79769531 133.01277344 87.79769531 131.72265625 87.3203125 C124.00179717 84.14113523 115.48307312 79.89506895 110.27734375 73.265625 C109.2241505 69.81809774 108.76166616 66.33164403 108.27734375 62.765625 C106.04812992 48.88525032 102.42484169 38.2745324 93.27734375 27.265625 C92.49617188 26.29689453 92.49617188 26.29689453 91.69921875 25.30859375 C82.53174903 15.05306575 67.58568232 9.18603581 54.27734375 7.265625 C52.08109101 7.16347346 49.88238179 7.10774763 47.68383789 7.08862305 C46.39131607 7.07578781 45.09879425 7.06295258 43.7671051 7.04972839 C42.36557404 7.04155456 40.96403855 7.03411207 39.5625 7.02734375 C38.84754301 7.02326822 38.13258602 7.0191927 37.39596367 7.01499367 C33.60504326 6.99418736 29.81415836 6.9798672 26.02319336 6.97045898 C22.15039478 6.95945844 18.27818087 6.92511777 14.4055872 6.88528728 C11.39140423 6.85885188 8.37735435 6.85074324 5.36306572 6.84717751 C3.938014 6.84237371 2.51296562 6.83094271 1.08802986 6.81213951 C-14.3294096 6.62147878 -31.41961276 9.44164189 -43.07421875 20.49609375 C-44.13769531 21.58857422 -44.13769531 21.58857422 -45.22265625 22.703125 C-48.98190555 26.34994816 -51.57842674 26.77124175 -56.78515625 26.765625 C-58.76725429 26.63848011 -60.74866963 26.48529585 -62.72265625 26.265625 C-55.56328355 16.85616374 -46.29553157 10.01729204 -35.53515625 5.265625 C-34.90689941 4.9871875 -34.27864258 4.70875 -33.63134766 4.421875 C-22.71245797 -0.09356142 -11.61993991 -0.0324389 0 0 Z " fill="#023083" transform="translate(300.72265625,217.734375)"/>
<path d="M0 0 C1.65 0 3.3 0 5 0 C5.32871094 0.80050781 5.32871094 0.80050781 5.6640625 1.6171875 C10.40856051 12.76482917 16.09110242 23.05905614 26.5625 29.625 C27.1702124 30.01107422 27.7779248 30.39714844 28.40405273 30.79492188 C33.95798953 34.19850494 39.67627477 36.41671261 46 38 C46.7321875 38.18433594 47.464375 38.36867188 48.21875 38.55859375 C52.44207268 39.22886828 56.66871282 39.3787356 60.9375 39.5625 C61.89374268 39.60858398 62.84998535 39.65466797 63.83520508 39.70214844 C68.97911259 39.92537699 74.08660996 40.01225424 79.234375 39.88671875 C80.23218994 39.86601318 81.23000488 39.84530762 82.25805664 39.82397461 C84.18241103 39.77538061 86.10636501 39.70523701 88.02905273 39.61157227 C90.44705659 39.55229102 92.62583765 39.53853809 95 40 C97.17578125 42.265625 97.17578125 42.265625 98 45 C97.55151367 47.17089844 97.55151367 47.17089844 97 49 C90.50792842 49.05108629 84.01590948 49.08589434 77.52368164 49.10986328 C75.31923485 49.11986516 73.11480114 49.13347099 70.91040039 49.15087891 C67.72539016 49.17538453 64.5405567 49.18654155 61.35546875 49.1953125 C60.38417526 49.20563507 59.41288177 49.21595764 58.41215515 49.22659302 C41.31068844 49.22934087 24.89960692 43.74081028 12.25 31.875 C5.40548762 24.59492774 -3 13.38472639 -3 3 C-1.68 3 -0.36 3 1 3 C0.67 2.01 0.34 1.02 0 0 Z " fill="#1972BE" transform="translate(234,284)"/>
<path d="M0 0 C1.546875 1.3671875 1.546875 1.3671875 3.25 3.125 C4.09949219 3.91777344 4.94898438 4.71054688 5.82421875 5.52734375 C9.61627421 10.14859914 9.6541102 16.07510319 10.3125 21.8125 C12.19043228 37.43797479 16.2954406 52.29905311 29.09765625 62.5703125 C39.55326526 70.12263988 50.09238603 73.93882586 62.8515625 75.73046875 C65.25 76.125 65.25 76.125 67.25 77.125 C69.454364 77.35450319 71.66392173 77.53575933 73.875 77.6875 C75.65777344 77.81318359 75.65777344 77.81318359 77.4765625 77.94140625 C78.39179688 78.00199219 79.30703125 78.06257813 80.25 78.125 C80.25 78.455 80.25 78.785 80.25 79.125 C57.95573438 79.61083145 39.19714912 76.56744782 22.3125 60.75 C14.89880017 52.5874416 10.95432777 43.72422014 8.25 33.125 C8.05792969 32.47789062 7.86585938 31.83078125 7.66796875 31.1640625 C7.07358139 28.26434099 7.05130569 25.3931963 6.9375 22.4375 C6.54225721 16.42102646 5.68118583 11.18895702 2.25 6.125 C1.26 5.465 0.27 4.805 -0.75 4.125 C-0.75 3.465 -0.75 2.805 -0.75 2.125 C-3.80050531 0.88573222 -6.86410243 -0.31878527 -9.9375 -1.5 C-10.61167969 -1.76039063 -11.28585937 -2.02078125 -11.98046875 -2.2890625 C-13.75576701 -2.97978036 -13.75576701 -2.97978036 -15.75 -2.875 C-15.75 -3.535 -15.75 -4.195 -15.75 -4.875 C-27.92990132 -7.14102815 -39.69051226 -8.20175524 -51.75 -4.875 C-53.8642355 3.07452546 -55.52409993 10.99079246 -56.75 19.125 C-56.09 19.455 -55.43 19.785 -54.75 20.125 C-55.08 20.455 -55.41 20.785 -55.75 21.125 C-56.05523962 25.77588715 -56.05523962 25.77588715 -54.75 30.125 C-54.54366083 32.22564735 -54.38359614 34.33097509 -54.25 36.4375 C-53.80656619 43.68299155 -53.80656619 43.68299155 -51.6875 50.5625 C-50.5952125 53.54808583 -50.60326959 55.97029623 -50.75 59.125 C-50.09 59.125 -49.43 59.125 -48.75 59.125 C-48.481875 60.1975 -48.21375 61.27 -47.9375 62.375 C-47.01756476 65.99775529 -47.01756476 65.99775529 -45.25 68.125 C-43.16643218 70.90309043 -42.62833543 73.78732536 -41.75 77.125 C-41.10800351 78.80132417 -40.45105843 80.47250513 -39.75 82.125 C-39.09 82.125 -38.43 82.125 -37.75 82.125 C-37.52828125 82.61226563 -37.3065625 83.09953125 -37.078125 83.6015625 C-25.07613977 107.51856206 -0.87989439 122.69926 23.25 132.125 C23.971875 132.42921875 24.69375 132.7334375 25.4375 133.046875 C38.13583053 138.23202663 52.65466023 140.12572938 66.25 141.125 C66.25 141.455 66.25 141.785 66.25 142.125 C41.4604834 143.56998478 11.55243768 135.06352738 -7.75 119.125 C-9.20756214 118.01981552 -10.665933 116.915697 -12.125 115.8125 C-28.66962394 102.78077567 -42.80997511 85.89871582 -50.75 66.125 C-50.75 65.135 -50.75 64.145 -50.75 63.125 C-51.41 62.795 -52.07 62.465 -52.75 62.125 C-53.51692309 59.6624579 -54.1635679 57.25608091 -54.75 54.75 C-54.9975 53.75033203 -54.9975 53.75033203 -55.25 52.73046875 C-55.78132567 50.53459938 -56.27150859 48.33297846 -56.75 46.125 C-56.93457764 45.29750244 -57.11915527 44.47000488 -57.30932617 43.61743164 C-58.83498107 36.16375154 -59.09651815 28.90679516 -59.0625 21.3125 C-59.05839111 19.46615967 -59.05839111 19.46615967 -59.05419922 17.58251953 C-58.80770325 -3.81729675 -58.80770325 -3.81729675 -53.75 -8.875 C-36.41121899 -12.75580046 -14.26454927 -11.74908036 0 0 Z " fill="#093D8C" transform="translate(383.75,246.875)"/>
<path d="M0 0 C2.08869831 -0.00973639 4.17642206 -0.04089322 6.26489258 -0.07226562 C26.94408304 -0.23518415 45.17715224 7.20831218 59.9699707 21.74023438 C63.1574707 25.05260551 63.1574707 25.05260551 63.1574707 26.24023438 C61.19921197 26.26718289 59.24084844 26.28660656 57.2824707 26.30273438 C55.64665039 26.32013672 55.64665039 26.32013672 53.9777832 26.33789062 C51.1574707 26.24023438 51.1574707 26.24023438 49.1574707 25.24023438 C49.1574707 24.58023438 49.1574707 23.92023438 49.1574707 23.24023438 C48.5593457 23.13066406 47.9612207 23.02109375 47.3449707 22.90820312 C44.90447399 22.16298002 43.95038915 21.33164564 42.1574707 19.55273438 C26.59410904 5.83196944 5.73173078 5.52462994 -13.8425293 5.24023438 C-13.8425293 4.91023437 -13.8425293 4.58023438 -13.8425293 4.24023438 C-18.7925293 3.91023437 -23.7425293 3.58023438 -28.8425293 3.24023438 C-20.19596154 -1.0830495 -9.50700454 0.0266957 0 0 Z " fill="#022C7E" transform="translate(504.842529296875,217.759765625)"/>
<path d="M0 0 C2.34765527 0.0050351 4.69531162 0.00959438 7.04296875 0.01367188 C12.69533656 0.02449519 18.34766295 0.04106754 24 0.0625 C24 0.7225 24 1.3825 24 2.0625 C23.33031189 2.07280746 22.66062378 2.08311493 21.97064209 2.09373474 C14.89556001 2.20331254 7.82056761 2.31775425 0.74560547 2.43481445 C-1.88230482 2.477687 -4.51023455 2.51938701 -7.13818359 2.55981445 C-25.91076257 2.84676085 -25.91076257 2.84676085 -44.671875 3.53515625 C-45.89333221 3.59079994 -45.89333221 3.59079994 -47.13946533 3.64756775 C-50.30249679 3.81473191 -52.97930569 4.0556019 -56 5.0625 C-56.66 4.7325 -57.32 4.4025 -58 4.0625 C-57.34 4.7225 -56.68 5.3825 -56 6.0625 C-56 7.0525 -56 8.0425 -56 9.0625 C-53.65582857 10.01481964 -51.32195394 10.95477857 -48.921875 11.7578125 C-48.20515625 12.00273437 -47.4884375 12.24765625 -46.75 12.5 C-46.06421875 12.72558594 -45.3784375 12.95117188 -44.671875 13.18359375 C-43 14.0625 -43 14.0625 -42 17.0625 C-39.91325864 18.68497231 -39.91325864 18.68497231 -37.375 20.25 C-33.03711014 23.17497717 -29.77514355 26.23315788 -26.47265625 30.26953125 C-24.91696131 32.23094457 -24.91696131 32.23094457 -22.5625 34.4375 C-21 36.0625 -21 36.0625 -21 38.0625 C-20.34 38.0625 -19.68 38.0625 -19 38.0625 C-18.4225 39.155625 -17.845 40.24875 -17.25 41.375 C-15.55855553 44.35919132 -13.98208542 46.25194814 -11 48.0625 C-11.33 49.3825 -11.66 50.7025 -12 52.0625 C-6.39 52.0625 -0.78 52.0625 5 52.0625 C5 52.3925 5 52.7225 5 53.0625 C1.37 53.3925 -2.26 53.7225 -6 54.0625 C-2.04 54.3925 1.92 54.7225 6 55.0625 C6 55.3925 6 55.7225 6 56.0625 C13.59 56.3925 21.18 56.7225 29 57.0625 C29 57.3925 29 57.7225 29 58.0625 C-7.69315068 58.0625 -7.69315068 58.0625 -12 56.0625 C-13.61515603 53.77584137 -14.86055181 51.71333013 -16.125 49.25 C-20.68614109 41.03816085 -26.34196269 34.63799966 -33 28.0625 C-33.68835938 27.37542969 -34.37671875 26.68835938 -35.0859375 25.98046875 C-43.3711744 18.23709333 -53.80196999 12.85073983 -64 8.0625 C-64.33 9.0525 -64.66 10.0425 -65 11.0625 C-65 9.7425 -65 8.4225 -65 7.0625 C-66.32 6.4025 -67.64 5.7425 -69 5.0625 C-67.12577848 4.58029737 -65.25058246 4.10188167 -63.375 3.625 C-61.80878906 3.22474609 -61.80878906 3.22474609 -60.2109375 2.81640625 C-53.56621473 1.25627061 -47.11242771 0.77170736 -40.3125 0.50390625 C-39.26449219 0.46165421 -38.21648437 0.41940216 -37.13671875 0.37586975 C-24.75865816 -0.07912868 -12.38441526 -0.04713299 0 0 Z " fill="#0B5AAA" transform="translate(486,165.9375)"/>
<path d="M0 0 C0.66 0 1.32 0 2 0 C2.19335938 0.65226562 2.38671875 1.30453125 2.5859375 1.9765625 C3.12604477 3.7893978 3.67189978 5.60052783 4.22265625 7.41015625 C4.78532032 9.28476066 5.31059941 11.17072085 5.8125 13.0625 C7.26431777 16.65383869 9.27513208 19.57909337 11.48828125 22.74609375 C12.85458298 24.78318961 13.9621734 26.81282018 15.0625 29 C16.66496571 32.23992789 16.66496571 32.23992789 19.625 32.625 C20.800625 32.810625 20.800625 32.810625 22 33 C22.309375 33.78375 22.61875 34.5675 22.9375 35.375 C24.40534435 39.00143898 26.5297721 39.44947264 30 41 C30.33 41.66 30.66 42.32 31 43 C31.99 43.33 32.98 43.66 34 44 C34 44.66 34 45.32 34 46 C34.58652344 46.13664062 35.17304688 46.27328125 35.77734375 46.4140625 C38 47 38 47 41.5625 48.375 C56.22560672 53.921009 71.04083687 55.29350179 86.58203125 55.4140625 C88.13287834 55.43282386 89.68371575 55.45240074 91.23454285 55.4727478 C95.27029654 55.52355138 99.30608316 55.56345013 103.34197998 55.60089111 C107.47871694 55.64125999 111.61532319 55.69220031 115.75195312 55.7421875 C123.83454531 55.83833164 131.91720352 55.92292821 140 56 C140 56.33 140 56.66 140 57 C129.99336242 57.09336811 119.9868313 57.16409965 109.97984409 57.20724869 C105.33137504 57.22797554 100.68320763 57.25601458 96.03491211 57.30175781 C91.53500921 57.34575515 87.03539334 57.36924858 82.53529167 57.37950897 C80.83277821 57.38680505 79.13027745 57.40104688 77.42788887 57.42292023 C52.86272291 57.7255128 32.99680626 50.94436145 15 34 C13.6578076 32.67558499 12.32069595 31.34585206 11 30 C16.31889559 39.43675025 23.3839471 45.57215101 32 52 C31.01 52.495 31.01 52.495 30 53 C16.42579577 43.84240266 6.42233288 33.06005099 2 17 C0.68 17 -0.64 17 -2 17 C-2.05383848 14.54137599 -2.09359038 12.0839245 -2.125 9.625 C-2.14175781 8.92632812 -2.15851563 8.22765625 -2.17578125 7.5078125 C-2.19344267 5.67102514 -2.10303261 3.83398037 -2 2 C-1.34 1.34 -0.68 0.68 0 0 Z M4 17 C5 19 5 19 5 19 Z M5 19 C5.56545837 22.95820859 6.80902348 25.6659053 9 29 C9.66 28.67 10.32 28.34 11 28 C9.35 25.03 7.7 22.06 6 19 C5.67 19 5.34 19 5 19 Z " fill="#0157AE" transform="translate(381,275)"/>
<path d="M0 0 C1.546875 1.3671875 1.546875 1.3671875 3.25 3.125 C4.09949219 3.91777344 4.94898438 4.71054688 5.82421875 5.52734375 C9.61627421 10.14859914 9.6541102 16.07510319 10.3125 21.8125 C12.19043228 37.43797479 16.2954406 52.29905311 29.09765625 62.5703125 C39.55326526 70.12263988 50.09238603 73.93882586 62.8515625 75.73046875 C65.25 76.125 65.25 76.125 67.25 77.125 C69.454364 77.35450319 71.66392173 77.53575933 73.875 77.6875 C75.65777344 77.81318359 75.65777344 77.81318359 77.4765625 77.94140625 C78.39179688 78.00199219 79.30703125 78.06257813 80.25 78.125 C80.25 78.455 80.25 78.785 80.25 79.125 C57.95573438 79.61083145 39.19714912 76.56744782 22.3125 60.75 C14.89880017 52.5874416 10.95432777 43.72422014 8.25 33.125 C8.05792969 32.47789062 7.86585938 31.83078125 7.66796875 31.1640625 C7.07358139 28.26434099 7.05130569 25.3931963 6.9375 22.4375 C6.54225721 16.42102646 5.68118583 11.18895702 2.25 6.125 C1.26 5.465 0.27 4.805 -0.75 4.125 C-0.75 3.465 -0.75 2.805 -0.75 2.125 C-3.80050531 0.88573222 -6.86410243 -0.31878527 -9.9375 -1.5 C-10.61167969 -1.76039063 -11.28585937 -2.02078125 -11.98046875 -2.2890625 C-13.75576701 -2.97978036 -13.75576701 -2.97978036 -15.75 -2.875 C-15.75 -3.535 -15.75 -4.195 -15.75 -4.875 C-27.92990132 -7.14102815 -39.69051226 -8.20175524 -51.75 -4.875 C-52.41 -2.565 -53.07 -0.255 -53.75 2.125 C-54.41 1.795 -55.07 1.465 -55.75 1.125 C-55.9453125 -4.9296875 -55.9453125 -4.9296875 -55.75 -6.875 C-44.21355295 -18.41144705 -10.90549392 -8.98237456 0 0 Z " fill="#0B2F7B" transform="translate(383.75,246.875)"/>
<path d="M0 0 C-3.90625 1.953125 -7.8125 3.90625 -11.71875 5.859375 C-12.42265869 6.21161133 -13.12656738 6.56384766 -13.85180664 6.92675781 C-15.30321116 7.65188274 -16.75554832 8.37514348 -18.20874023 9.09667969 C-18.91200439 9.44633789 -19.61526855 9.79599609 -20.33984375 10.15625 C-20.97011475 10.46884766 -21.60038574 10.78144531 -22.24975586 11.10351562 C-27.78664374 13.9395391 -31.37442414 17.40529057 -35.328125 22.09375 C-37.34743657 24.39614263 -39.4748911 26.26849676 -42 28 C-42.66 28 -43.32 28 -44 28 C-44.05414063 28.53753906 -44.10828125 29.07507813 -44.1640625 29.62890625 C-45.38830412 33.10140467 -47.85405888 35.34868739 -50.375 37.9375 C-56.08990677 43.85332147 -59.30111628 49.34439909 -62.0625 57 C-62.57376547 58.39599942 -63.08547413 59.79183663 -63.59765625 61.1875 C-63.83709961 61.84403564 -64.07654297 62.50057129 -64.32324219 63.17700195 C-64.90566012 64.7458745 -65.52191337 66.30211152 -66.14453125 67.85546875 C-66.95579894 69.88919461 -67.52559144 71.8651615 -68 74 C-67.360625 73.814375 -66.72125 73.62875 -66.0625 73.4375 C-65.0415625 73.2209375 -65.0415625 73.2209375 -64 73 C-63.67 73.33 -63.34 73.66 -63 74 C-59.76944867 73.29750529 -56.58993966 72.44098971 -53.39453125 71.59375 C-49.90105942 70.98269394 -47.43176737 71.20845426 -44 72 C-44 71.34 -44 70.68 -44 70 C-43.16597656 69.93941406 -42.33195312 69.87882812 -41.47265625 69.81640625 C-33.97253309 69.26624843 -33.97253309 69.26624843 -26.5 68.4375 C-17.34626447 67.37936176 -8.11945291 67.84720234 1 69 C1 69.33 1 69.66 1 70 C-0.03664795 70.05945801 -0.03664795 70.05945801 -1.09423828 70.12011719 C-25.23811201 71.55409295 -49.3033767 74.00326793 -73 79 C-70.83505527 60.6200611 -59.61239177 43.80201649 -48 30 C-47.33484375 29.11634766 -47.33484375 29.11634766 -46.65625 28.21484375 C-39.25826826 18.67415389 -12.72526148 -4.24175383 0 0 Z " fill="#1A7FC8" transform="translate(247,175)"/>
<path d="M0 0 C2.17442322 2.77052679 4.02969251 5.65814333 5.8527832 8.66894531 C16.65679693 26.28413222 31.72807874 39.50116243 50 49 C50.8559375 49.46019531 51.711875 49.92039062 52.59375 50.39453125 C61.83968629 55.00286975 72.06476981 57.32837634 82 60 C82 60.33 82 60.66 82 61 C75.32380472 61.37994607 70.09976465 60.12135838 63.8125 57.9375 C62.88775879 57.62095459 61.96301758 57.30440918 61.01025391 56.97827148 C38.11605108 48.90231645 18.3401887 33.02078142 5 12.75 C4.61384521 12.17161377 4.22769043 11.59322754 3.82983398 10.99731445 C1.51576721 7.35330019 0.4161763 4.29181814 0 0 Z " fill="#0C256F" transform="translate(183,326)"/>
<path d="M0 0 C7.40681812 6.28796342 10.55247975 19.04158716 13.3125 28.0625 C13.55460205 28.83972412 13.7967041 29.61694824 14.04614258 30.41772461 C17.62678086 42.66514944 18.30751192 54.92900221 18.1875 67.625 C18.18603763 68.97265561 18.18538384 70.32031235 18.18554688 71.66796875 C18.14119508 81.43521968 18.14119508 81.43521968 17 86 C10.73 85.67 4.46 85.34 -2 85 C-2 84.67 -2 84.34 -2 84 C-0.94039063 83.93941406 0.11921875 83.87882812 1.2109375 83.81640625 C2.59897221 83.73199873 3.98699232 83.64735083 5.375 83.5625 C6.07367188 83.52318359 6.77234375 83.48386719 7.4921875 83.44335938 C11.37360492 83.25719866 11.37360492 83.25719866 15 82 C15.05029881 78.1080325 15.08613311 74.21619675 15.10986328 70.32397461 C15.1245951 68.36630582 15.15003698 66.40872682 15.17578125 64.45117188 C15.2310585 53.58919239 14.42285446 43.29697034 10.65234375 33.0546875 C9.98113997 30.94059656 9.70383169 29.01721009 9.5 26.8125 C8.97331543 22.79653019 7.88135189 20.55366468 6 17 C4.94249081 14.17726394 3.94637069 11.33825707 2.96484375 8.48828125 C2.02947899 5.80981587 2.02947899 5.80981587 0 3 C0 2.01 0 1.02 0 0 Z " fill="#1889D5" transform="translate(459,226)"/>
<path d="M0 0 C5.24283911 3.87614909 8.27722642 8.0328715 11.5625 13.625 C12.28191772 14.82987061 12.28191772 14.82987061 13.01586914 16.05908203 C26 38.08886102 26 38.08886102 26 48 C18.65633089 47.3758033 11.45064097 46.29600331 4.1875 45.0625 C-9.11271686 42.87954244 -22.39034575 41.25311352 -35.8671875 40.765625 C-36.83043945 40.72977295 -37.79369141 40.6939209 -38.78613281 40.65698242 C-40.63660905 40.59539536 -42.48762831 40.54798835 -44.33886719 40.5168457 C-45.16805664 40.49195068 -45.99724609 40.46705566 -46.8515625 40.44140625 C-47.94718506 40.42122437 -47.94718506 40.42122437 -49.06494141 40.40063477 C-51.50322804 39.89581161 -52.42111067 38.87372718 -54 37 C-53.01 36.505 -53.01 36.505 -52 36 C-52 36.66 -52 37.32 -52 38 C-50.96613159 37.98428955 -50.96613159 37.98428955 -49.91137695 37.96826172 C-26.41657233 37.65821585 -26.41657233 37.65821585 -17.4921875 39.36328125 C-12.51919049 40.269991 -7.51421402 40.86744007 -2.5 41.5 C4.97397208 42.45748948 12.42705465 43.47327379 19.8671875 44.66796875 C21.80493257 45.02563747 21.80493257 45.02563747 23 45 C18.29235807 30.51494789 12.37149937 17.27673593 2.78515625 5.35546875 C1 3 1 3 0 0 Z " fill="#1267AF" transform="translate(606,205)"/>
<path d="M0 0 C1.32 0 2.64 0 4 0 C3.67 0.66 3.34 1.32 3 2 C2.34 1.67 1.68 1.34 1 1 C1.495 2.485 1.495 2.485 2 4 C1.34 4 0.68 4 0 4 C-0.144375 4.763125 -0.28875 5.52625 -0.4375 6.3125 C-1 9 -1 9 -2 12 C-1.34 12.33 -0.68 12.66 0 13 C-0.45375 13.391875 -0.9075 13.78375 -1.375 14.1875 C-3.30878742 16.34441674 -3.99143053 18.28946954 -5 21 C-7.02362007 25.62541731 -9.3474699 28.53477913 -13 32 C-13.66 32.99 -14.32 33.98 -15 35 C-16.42050765 36.05304042 -17.88420944 37.04906383 -19.375 38 C-22.34018262 39.90406376 -25.18630623 41.87945 -28 44 C-29.65948148 45.01187895 -31.32580562 46.0126546 -33 47 C-33.99 47.66 -34.98 48.32 -36 49 C-39 49.8125 -39 49.8125 -42 50 C-43.6875 48.51171875 -43.6875 48.51171875 -45 47 C-44.18917969 46.72027344 -43.37835937 46.44054687 -42.54296875 46.15234375 C-34.96286993 43.40797736 -27.07244338 40.4698345 -21 35 C-20.31914925 32.44584919 -20.31914925 32.44584919 -20 30 C-17.10451959 27.79029126 -15.66842255 27 -12 27 C-10.49257222 24.10110042 -9.19518524 21.13677687 -7.921875 18.12890625 C-6.39818011 14.61020407 -4.7856401 11.13201491 -3.18359375 7.6484375 C-2.05453992 5.12203983 -1.00913645 2.57632071 0 0 Z " fill="#29A5EC" transform="translate(577,288)"/>
<path d="M0 0 C-0.33 0.66 -0.66 1.32 -1 2 C-5.7039258 2.91365918 -10.36263863 3.1719238 -15.14453125 3.31640625 C-16.1568129 3.34771385 -16.1568129 3.34771385 -17.18954468 3.37965393 C-19.39708439 3.44571399 -21.60472661 3.50480801 -23.8125 3.5625 C-24.95508774 3.59376984 -24.95508774 3.59376984 -26.12075806 3.62567139 C-37.8091809 3.94084774 -49.49494017 4.10495949 -61.1875 4.125 C-61.87099518 4.1275882 -62.55449036 4.13017639 -63.25869751 4.13284302 C-70.82355366 4.15558776 -78.37164328 4.01129805 -85.92578125 3.6171875 C-86.61955368 3.58682404 -87.31332611 3.55646057 -88.02812195 3.525177 C-89.69165841 3.42562232 -91.34839928 3.22244048 -93 3 C-93.33 2.34 -93.66 1.68 -94 1 C-82.77750916 0.86913958 -71.55501332 0.73871669 -60.33251095 0.60884857 C-55.12116689 0.54852862 -49.90982465 0.48805935 -44.69848633 0.42724609 C-39.66698671 0.36853699 -34.63548265 0.3102237 -29.6039753 0.25218201 C-27.68670044 0.22999598 -25.76942721 0.2076686 -23.85215569 0.18519592 C-21.16177662 0.15368593 -18.47139214 0.12268365 -15.78100586 0.09179688 C-14.59848488 0.07777077 -14.59848488 0.07777077 -13.39207458 0.0634613 C-8.92769318 0.01281236 -4.46467127 -0.00867962 0 0 Z " fill="#0C2671" transform="translate(366,387)"/>
<path d="M0 0 C-5.859375 2.9296875 -5.859375 2.9296875 -11.71875 5.859375 C-12.42265869 6.21161133 -13.12656738 6.56384766 -13.85180664 6.92675781 C-15.30321116 7.65188274 -16.75554832 8.37514348 -18.20874023 9.09667969 C-18.91200439 9.44633789 -19.61526855 9.79599609 -20.33984375 10.15625 C-20.97011475 10.46884766 -21.60038574 10.78144531 -22.24975586 11.10351562 C-27.78664374 13.9395391 -31.37442414 17.40529057 -35.328125 22.09375 C-37.34743657 24.39614263 -39.4748911 26.26849676 -42 28 C-42.66 28 -43.32 28 -44 28 C-44.05414063 28.53753906 -44.10828125 29.07507813 -44.1640625 29.62890625 C-45.38830412 33.10140467 -47.85405888 35.34868739 -50.375 37.9375 C-56.76873763 44.55601747 -59.79066474 50.73864026 -62.75 59.29296875 C-65.06634722 65.74737376 -65.06634722 65.74737376 -68 68 C-67.68676972 66.32943851 -67.34665557 64.66394675 -67 63 C-66.814375 61.865625 -66.62875 60.73125 -66.4375 59.5625 C-63.5518901 48.31710848 -55.43106092 38.55485085 -48 30 C-47.53464844 29.39027344 -47.06929687 28.78054687 -46.58984375 28.15234375 C-39.21657651 18.61444759 -12.68989864 -4.22996621 0 0 Z " fill="#1981CA" transform="translate(247,175)"/>
<path d="M0 0 C1.299375 1.1446875 1.299375 1.1446875 2.625 2.3125 C17.05984841 14.59809533 31.29538107 23.91815243 49 31 C49.72574219 31.30679687 50.45148438 31.61359375 51.19921875 31.9296875 C63.90534037 37.09737638 78.40268374 39.00058411 92 40 C92 40.33 92 40.66 92 41 C67.2104834 42.44498478 37.30243768 33.93852738 18 18 C16.54243786 16.89481552 15.084067 15.790697 13.625 14.6875 C8.5202071 10.71413589 3.75681203 6.37944489 -1 2 C-0.67 1.34 -0.34 0.68 0 0 Z " fill="#0C59A8" transform="translate(358,348)"/>
<path d="M0 0 C0 0.99 0 1.98 0 3 C-1.65 3.33 -3.3 3.66 -5 4 C-4.01 5.485 -4.01 5.485 -3 7 C-3.54812347 6.93148331 -4.09624695 6.86296661 -4.66098022 6.79237366 C-12.4268656 5.91139969 -20.16815284 5.77986229 -27.9765625 5.68359375 C-29.39717137 5.66297403 -30.8177748 5.64197644 -32.2383728 5.62062073 C-35.94374127 5.56591727 -39.64916023 5.51628412 -43.35461426 5.46777344 C-47.14921462 5.41717605 -50.94374335 5.36169138 -54.73828125 5.30664062 C-62.15879318 5.19969364 -69.57936544 5.09811292 -77 5 C-77 4.67 -77 4.34 -77 4 C-57.2 3.67 -37.4 3.34 -17 3 C-34.16 2.67 -51.32 2.34 -69 2 C-69 1.67 -69 1.34 -69 1 C-62.54865416 0.85429819 -56.09723269 0.71235318 -49.64575195 0.57275391 C-47.46116358 0.52507154 -45.27659231 0.47659764 -43.09204102 0.42724609 C-28.7252409 0.10335688 -14.3704771 -0.0682008 0 0 Z " fill="#1759A5" transform="translate(368,219)"/>
<path d="M0 0 C2.48389315 2.48389315 2.66770044 4.15711549 3.4375 7.5625 C5.86895357 19.17326091 5.86895357 19.17326091 12 29 C12.74761921 30.2180313 13.47450438 31.44888304 14.1875 32.6875 C18.96016169 40.39611393 25.80816211 45.63466062 33 51 C32.01 51.495 32.01 51.495 31 52 C17.42579577 42.84240266 7.42233288 32.06005099 3 16 C1.68 16 0.36 16 -1 16 C-1.02685095 13.52076199 -1.04676547 11.0418116 -1.0625 8.5625 C-1.07506836 7.50192383 -1.07506836 7.50192383 -1.08789062 6.41992188 C-1.09653588 4.61306441 -1.05220011 2.80612397 -1 1 C-0.67 0.67 -0.34 0.34 0 0 Z " fill="#0D69B6" transform="translate(380,276)"/>
<path d="M0 0 C0.33 0.66 0.66 1.32 1 2 C1.66 2 2.32 2 3 2 C3.33 1.34 3.66 0.68 4 0 C4 0.66 4 1.32 4 2 C4.64582031 1.95359375 5.29164063 1.9071875 5.95703125 1.859375 C20.13381437 1.31635184 35.23079584 4.81524543 48 11 C48.66 11.66 49.32 12.32 50 13 C49.67 13.66 49.34 14.32 49 15 C48.01 15 47.02 15 46 15 C45.505 14.01 45.505 14.01 45 13 C43.68 13 42.36 13 41 13 C40.505 12.01 40.505 12.01 40 11 C38.33155711 10.46609828 36.65752945 9.944079 34.9609375 9.5078125 C33.12167062 9.03150833 31.30879623 8.45639879 29.5 7.875 C26.03518371 6.84776279 26.03518371 6.84776279 22.5 7.0625 C18.21976549 6.98606724 15.81239722 5.8672966 12 4 C11.67 4.99 11.34 5.98 11 7 C10.34 6.34 9.68 5.68 9 5 C5.97875686 4.57198041 5.97875686 4.57198041 2.5625 4.4375 C-3.71925134 4.09358289 -3.71925134 4.09358289 -7 3 C-7 2.34 -7 1.68 -7 1 C-3.535 0.505 -3.535 0.505 0 0 Z " fill="#47C4FA" transform="translate(357,165)"/>
<path d="M0 0 C1.92819325 1.85106552 3.76879269 3.71036258 5.4375 5.80078125 C15.44825539 18.19390391 30.22392106 23.57539052 45.671875 25.640625 C48 26 48 26 50 27 C52.204364 27.22950319 54.41392173 27.41075933 56.625 27.5625 C57.81351562 27.64628906 59.00203125 27.73007812 60.2265625 27.81640625 C61.59941406 27.90728516 61.59941406 27.90728516 63 28 C63 28.33 63 28.66 63 29 C40.52828213 29.48969845 21.61897452 26.37786894 4.75 10.25 C1.93723806 7.19634661 0 4.27313744 0 0 Z " fill="#0C4698" transform="translate(401,297)"/>
<path d="M0 0 C0.66 0 1.32 0 2 0 C2.19335938 0.65226562 2.38671875 1.30453125 2.5859375 1.9765625 C3.12604477 3.7893978 3.67189978 5.60052783 4.22265625 7.41015625 C4.78532032 9.28476066 5.31059941 11.17072085 5.8125 13.0625 C7.26431777 16.65383869 9.27513208 19.57909337 11.48828125 22.74609375 C12.85458298 24.78318961 13.9621734 26.81282018 15.0625 29 C16.66496571 32.23992789 16.66496571 32.23992789 19.625 32.625 C20.800625 32.810625 20.800625 32.810625 22 33 C22.72904086 34.64034193 23.38655243 36.31301918 24 38 C26.52056045 40.77152212 26.52056045 40.77152212 29 43 C21.42497195 42.0547856 16.29434658 35.89056633 11.75 30.125 C5.84085376 21.71834167 0 10.4475176 0 0 Z " fill="#0B4293" transform="translate(381,275)"/>
<path d="M0 0 C0.33 0 0.66 0 1 0 C1.268125 1.0725 1.53625 2.145 1.8125 3.25 C2.73243524 6.87275529 2.73243524 6.87275529 4.5 9 C6.58356782 11.77809043 7.12166457 14.66232536 8 18 C8.64199649 19.67632417 9.29894157 21.34750513 10 23 C10.66 23 11.32 23 12 23 C12.41958984 23.8353125 12.41958984 23.8353125 12.84765625 24.6875 C15.57290708 29.87511572 18.57343974 34.05477977 22.64453125 38.2734375 C24 40 24 40 24 43 C23.34 43 22.68 43 22 43 C20.3630335 41.14091723 18.86192755 39.28715543 17.375 37.3125 C16.9313208 36.72815186 16.4876416 36.14380371 16.03051758 35.54174805 C-1 12.756069 -1 12.756069 -1 4 C-1.66 3.67 -2.32 3.34 -3 3 C-2.01 2.67 -1.02 2.34 0 2 C0 1.34 0 0.68 0 0 Z " fill="#0A4A9B" transform="translate(334,306)"/>
<path d="M0 0 C1.62580966 0.11398665 3.25067157 0.24155659 4.875 0.375 C5.77992188 0.44460938 6.68484375 0.51421875 7.6171875 0.5859375 C10 1 10 1 12 3 C13.92249403 3.7331495 13.92249403 3.7331495 16.1328125 4.2890625 C16.93847656 4.50820313 17.74414062 4.72734375 18.57421875 4.953125 C19.41597656 5.17484375 20.25773438 5.3965625 21.125 5.625 C21.97449219 5.85445313 22.82398438 6.08390625 23.69921875 6.3203125 C25.79793577 6.88625866 27.8981359 7.44587795 30 8 C30 8.33 30 8.66 30 9 C24.62032942 8.60305343 19.98651287 8.15632989 15 6 C12.67402489 5.6186926 10.34087842 5.27539746 8 5 C7.81824219 5.65226562 7.63648438 6.30453125 7.44921875 6.9765625 C3.75182482 19.83211679 3.75182482 19.83211679 -1 23 C-0.01 20.03 0.98 17.06 2 14 C2.66 14 3.32 14 4 14 C4 11.03 4 8.06 4 5 C2.68 4.67 1.36 4.34 0 4 C-0.309375 4.94875 -0.61875 5.8975 -0.9375 6.875 C-2 10 -2 10 -3 12 C-3.66 12 -4.32 12 -5 12 C-4.54738642 10.56068883 -4.08767021 9.12361001 -3.625 7.6875 C-3.24214844 6.48673828 -3.24214844 6.48673828 -2.8515625 5.26171875 C-2 3 -2 3 0 0 Z " fill="#2173BC" transform="translate(569,283)"/>
<path d="M0 0 C0.99 0.103125 1.98 0.20625 3 0.3125 C3.66 1.3025 4.32 2.2925 5 3.3125 C7.38602338 4.18506845 9.60487312 4.85346043 12.0625 5.4375 C13.11594604 5.69623901 13.11594604 5.69623901 14.19067383 5.96020508 C20.88434545 7.49020831 27.51054048 7.92093591 34.35546875 8.13671875 C37.37386376 8.2823005 40.07092164 8.61293371 43 9.3125 C43 9.6425 43 9.9725 43 10.3125 C25.48435502 10.87829298 10.99958001 10.17194281 -5 2.3125 C-3 0.3125 -3 0.3125 0 0 Z " fill="#0A5EAD" transform="translate(431,299.6875)"/>
<path d="M0 0 C2.51566676 5.03133351 3.12765293 8.15393105 3.1328125 13.71484375 C3.13424759 14.69306847 3.13424759 14.69306847 3.13571167 15.6910553 C3.13639131 17.06869605 3.13455208 18.44634003 3.13037109 19.82397461 C3.12502835 21.92634326 3.13031887 24.02849744 3.13671875 26.13085938 C3.13605776 27.47135464 3.13477617 28.81184976 3.1328125 30.15234375 C3.13168457 31.36913818 3.13055664 32.58593262 3.12939453 33.83959961 C3 37 3 37 2 41 C-4.27 40.67 -10.54 40.34 -17 40 C-17 39.67 -17 39.34 -17 39 C-15.41058594 38.90912109 -15.41058594 38.90912109 -13.7890625 38.81640625 C-12.40102779 38.73199873 -11.01300768 38.64735083 -9.625 38.5625 C-8.92632812 38.52318359 -8.22765625 38.48386719 -7.5078125 38.44335938 C-3.62639508 38.25719866 -3.62639508 38.25719866 0 37 C0 24.79 0 12.58 0 0 Z " fill="#1377C3" transform="translate(474,271)"/>
<path d="M0 0 C0.66 0 1.32 0 2 0 C1.690625 0.804375 1.38125 1.60875 1.0625 2.4375 C-0.18565517 6.62249087 -0.6337696 10.66306101 -1 15 C-0.0409375 14.7215625 -0.0409375 14.7215625 0.9375 14.4375 C1.618125 14.293125 2.29875 14.14875 3 14 C3.33 14.33 3.66 14.66 4 15 C4.639375 14.855625 5.27875 14.71125 5.9375 14.5625 C10.2920769 13.76267975 14.58495715 13.92284391 19 14 C15.97679274 16.01547151 14.39319712 16.46360744 10.89453125 17.0703125 C9.91162109 17.24433594 8.92871094 17.41835937 7.91601562 17.59765625 C6.37977539 17.85869141 6.37977539 17.85869141 4.8125 18.125 C3.77673828 18.30675781 2.74097656 18.48851562 1.67382812 18.67578125 C-0.88307999 19.12353474 -3.44095188 19.5646735 -6 20 C-5.01621921 14.60443241 -4.04634485 9.44147132 -1.875 4.375 C-1.34519531 3.11816406 -1.34519531 3.11816406 -0.8046875 1.8359375 C-0.53914062 1.23007813 -0.27359375 0.62421875 0 0 Z " fill="#0F77C3" transform="translate(180,234)"/>
<path d="M0 0 C5.94 0.33 11.88 0.66 18 1 C18 1.33 18 1.66 18 2 C12.555 2.495 12.555 2.495 7 3 C10.96 3.33 14.92 3.66 19 4 C19 4.33 19 4.66 19 5 C26.59 5.33 34.18 5.66 42 6 C42 6.33 42 6.66 42 7 C6.625 7 6.625 7 1 5 C0.67 3.35 0.34 1.7 0 0 Z " fill="#0F4895" transform="translate(473,217)"/>
<path d="M0 0 C3.84095695 0.40431126 7.04114542 1.36995122 10.5625 2.875 C16.55248025 5.35733416 22.66041792 6.71215261 29 8 C29.95261719 8.1959375 30.90523438 8.391875 31.88671875 8.59375 C38.23120583 9.8246348 44.55690926 10.5264266 51 11 C51 11.33 51 11.66 51 12 C32.91401824 13.05423469 16.75192877 8.51772063 0 2 C0 1.34 0 0.68 0 0 Z " fill="#0F66B2" transform="translate(399,377)"/>
<path d="M0 0 C0.33 0 0.66 0 1 0 C1.06993164 0.57854736 1.13986328 1.15709473 1.21191406 1.75317383 C2.51788995 12.30491313 3.84106668 22.14244316 8 32 C8.73526234 34.32080013 9.37259218 36.64722067 10 39 C9.34 39 8.68 39 8 39 C0.63264312 25.5527855 -1.7087377 15.06983129 0 0 Z " fill="#0E3783" transform="translate(392,261)"/>
<path d="M0 0 C13.39349842 1.70355901 24.86922374 11.72954577 33 22 C31.04174127 22.02694851 29.08337774 22.04637218 27.125 22.0625 C25.48917969 22.07990234 25.48917969 22.07990234 23.8203125 22.09765625 C21 22 21 22 19 21 C19 20.34 19 19.68 19 19 C21.64 19.33 24.28 19.66 27 20 C24.60015659 12.80046976 16.02205274 8.85241389 9.57641602 5.58276367 C6.39974044 4.02031982 3.20824461 2.49665009 0 1 C0 0.67 0 0.34 0 0 Z " fill="#002175" transform="translate(535,222)"/>
<path d="M0 0 C-3.90625 1.953125 -7.8125 3.90625 -11.71875 5.859375 C-12.42265869 6.21161133 -13.12656738 6.56384766 -13.85180664 6.92675781 C-15.30321116 7.65188274 -16.75554832 8.37514348 -18.20874023 9.09667969 C-18.91200439 9.44633789 -19.61526855 9.79599609 -20.33984375 10.15625 C-20.97011475 10.46884766 -21.60038574 10.78144531 -22.24975586 11.10351562 C-27.79364338 13.94312435 -31.31503036 17.39166208 -35.25390625 22.09375 C-37.59313881 24.64754304 -40.02231298 26.2569637 -43 28 C-41.6918838 24.46808626 -39.61307228 22.68050195 -36.6328125 20.44140625 C-34.84078058 18.95635155 -34.84078058 18.95635155 -33.1796875 16.5859375 C-30.7045665 13.64950363 -28.28894166 12.03344665 -25 10.0625 C-24.43619629 9.72404053 -23.87239258 9.38558105 -23.29150391 9.03686523 C-5.12863072 -1.70954357 -5.12863072 -1.70954357 0 0 Z " fill="#1F90D9" transform="translate(247,175)"/>
<path d="M0 0 C0.83144531 0.05220703 1.66289062 0.10441406 2.51953125 0.15820312 C4.55508108 0.28688731 6.59010441 0.42385407 8.625 0.5625 C8.625 0.8925 8.625 1.2225 8.625 1.5625 C8.05056152 1.58755615 7.47612305 1.6126123 6.88427734 1.63842773 C4.25600279 1.75519875 1.62801605 1.87755419 -1 2 C-1.90363281 2.03931641 -2.80726563 2.07863281 -3.73828125 2.11914062 C-8.36269645 2.33854719 -12.81540918 2.70667775 -17.375 3.5625 C-18.035 3.5625 -18.695 3.5625 -19.375 3.5625 C-19.045 4.8825 -18.715 6.2025 -18.375 7.5625 C-19.695 7.2325 -21.015 6.9025 -22.375 6.5625 C-22.705 7.5525 -23.035 8.5425 -23.375 9.5625 C-23.375 8.2425 -23.375 6.9225 -23.375 5.5625 C-24.695 4.9025 -26.015 4.2425 -27.375 3.5625 C-25.50077848 3.08029737 -23.62558246 2.60188167 -21.75 2.125 C-20.18378906 1.72474609 -20.18378906 1.72474609 -18.5859375 1.31640625 C-12.13441072 -0.19836829 -6.57332982 -0.45604441 0 0 Z " fill="#1870BC" transform="translate(444.375,167.4375)"/>
<path d="M0 0 C-0.99 1.485 -0.99 1.485 -2 3 C-2.99 2.67 -3.98 2.34 -5 2 C-6.61239676 2.50387399 -8.2246426 3.00823852 -9.8359375 3.515625 C-15.78259519 4.84664585 -22.10338008 4.33046478 -28 3 C-25.11699722 0.11699722 -22.05921945 0.57885396 -18.1875 0.4375 C-1.12149482 -0.28838438 -1.12149482 -0.28838438 0 0 Z " fill="#1D96E2" transform="translate(533,337)"/>
<path d="M0 0 C0.66 0.99 1.32 1.98 2 3 C-0.22493565 5.25421705 -2.45569373 7.50258669 -4.6875 9.75 C-5.62625977 10.70132812 -5.62625977 10.70132812 -6.58398438 11.671875 C-9.89673284 15.00196769 -13.16436358 18.26322158 -17 21 C-17.66 21 -18.32 21 -19 21 C-19 20.01 -19 19.02 -19 18 C-16.6875 16 -16.6875 16 -14 14 C-13.443125 13.4225 -12.88625 12.845 -12.3125 12.25 C-11 11 -11 11 -9 11 C-8.34 9.68 -7.68 8.36 -7 7 C-6.34 7 -5.68 7 -5 7 C-5 6.34 -5 5.68 -5 5 C-3.37446717 3.29319053 -1.70884005 1.62339805 0 0 Z " fill="#1F97E5" transform="translate(608,346)"/>
<path d="M0 0 C0.66 0.33 1.32 0.66 2 1 C0.63411974 5.6439929 -1.27189458 9.44798224 -3.8125 13.5625 C-4.81216797 15.20412109 -4.81216797 15.20412109 -5.83203125 16.87890625 C-8.01810797 20.02606896 -10.21817296 22.39294743 -13 25 C-13 20.99936286 -11.46030615 19.23367653 -9.3125 15.875 C-6.02486876 10.67566667 -2.9124533 5.4188434 0 0 Z " fill="#1E98E4" transform="translate(624,321)"/>
<path d="M0 0 C3.45925102 0.64098149 6.91722524 1.28860591 10.375 1.9375 C11.35984375 2.11990234 12.3446875 2.30230469 13.359375 2.49023438 C14.30039062 2.66748047 15.24140625 2.84472656 16.2109375 3.02734375 C17.08024902 3.18968506 17.94956055 3.35202637 18.84521484 3.51928711 C21 4 21 4 23 5 C25.204364 5.22950319 27.41392173 5.41075933 29.625 5.5625 C30.81351562 5.64628906 32.00203125 5.73007812 33.2265625 5.81640625 C34.14179688 5.87699219 35.05703125 5.93757813 36 6 C36 6.33 36 6.66 36 7 C9.20406002 7.5839309 9.20406002 7.5839309 -1 2 C-0.67 1.34 -0.34 0.68 0 0 Z " fill="#0C5DAF" transform="translate(428,319)"/>
<path d="M0 0 C6.6 0 13.2 0 20 0 C20 0.99 20 1.98 20 3 C12.60072623 3.9097804 5.32476219 4.12410745 -2.125 4.0625 C-3.7028125 4.05573242 -3.7028125 4.05573242 -5.3125 4.04882812 C-7.87506221 4.03718011 -10.43749877 4.02082553 -13 4 C-13.33 3.34 -13.66 2.68 -14 2 C-9.38 2 -4.76 2 0 2 C0 1.34 0 0.68 0 0 Z " fill="#1093E2" transform="translate(483,338)"/>
<path d="M0 0 C0.66 0 1.32 0 2 0 C2.33 0.66 2.66 1.32 3 2 C3.99 2.33 4.98 2.66 6 3 C6 3.66 6 4.32 6 5 C6.58265625 5.13664062 7.1653125 5.27328125 7.765625 5.4140625 C11.27357429 6.33397927 14.61757853 7.70421624 18 9 C19.49958035 9.56361779 20.99956314 10.12616635 22.5 10.6875 C23.655 11.120625 24.81 11.55375 26 12 C26 12.33 26 12.66 26 13 C15.96964524 13 8.59821561 8.68314721 0 4 C0 2.66666667 0 1.33333333 0 0 Z " fill="#0E529F" transform="translate(409,316)"/>
<path d="M0 0 C0.53625 0.226875 1.0725 0.45375 1.625 0.6875 C-4.125 3.6875 -4.125 3.6875 -6.375 3.6875 C-4.065 10.2875 -1.755 16.8875 0.625 23.6875 C-0.035 24.0175 -0.695 24.3475 -1.375 24.6875 C-8.07887244 10.09068907 -8.07887244 10.09068907 -8.375 2.6875 C-2.95961538 -0.38942308 -2.95961538 -0.38942308 0 0 Z " fill="#0B2168" transform="translate(182.375,301.3125)"/>
<path d="M0 0 C1.95678711 0.88232422 1.95678711 0.88232422 4 2 C4.69140625 3.8828125 4.69140625 3.8828125 5 6 C5.9131955 9.77454138 6.81260996 13.44885282 8.0625 17.125 C9.80206694 22.45967195 10.11185575 27.4072125 10 33 C7.71833696 30.71833696 7.5062828 29.65196057 6.81640625 26.5625 C6.50799805 25.21865234 6.50799805 25.21865234 6.19335938 23.84765625 C5.98517578 22.90792969 5.77699219 21.96820313 5.5625 21 C3.96742635 13.90519292 2.18163909 6.93909872 0 0 Z " fill="#027CCC" transform="translate(420,266)"/>
<path d="M0 0 C2 1 2 1 2.6328125 2.84765625 C2.87644531 3.94400391 2.87644531 3.94400391 3.125 5.0625 C3.29257812 5.79597656 3.46015625 6.52945313 3.6328125 7.28515625 C3.75398437 7.85105469 3.87515625 8.41695312 4 9 C-2.70871357 8.45010544 -9.34628504 7.56571395 -16 6.5625 C-16.84925049 6.44028076 -17.69850098 6.31806152 -18.57348633 6.19213867 C-19.7746106 6.00615112 -19.7746106 6.00615112 -21 5.81640625 C-21.721875 5.70756104 -22.44375 5.59871582 -23.1875 5.48657227 C-25 5 -25 5 -27 3 C-18.73238796 3.47101838 -10.62154862 4.24710234 -2.44921875 5.59765625 C-0.24921201 6.02701694 -0.24921201 6.02701694 1 6 C0.67 4.02 0.34 2.04 0 0 Z " fill="#1162A5" transform="translate(628,244)"/>
<path d="M0 0 C3.35376875 5.97845733 2.08347497 12.49915021 1 19 C0.67 19 0.34 19 0 19 C-0.33 24.94 -0.66 30.88 -1 37 C-1.33 37 -1.66 37 -2 37 C-2.05871491 32.70839209 -2.09383483 28.41688942 -2.125 24.125 C-2.14175781 22.92101562 -2.15851563 21.71703125 -2.17578125 20.4765625 C-2.21428168 13.39248309 -1.76050885 6.87332825 0 0 Z " fill="#144490" transform="translate(327,244)"/>
<path d="M0 0 C8.91 0 17.82 0 27 0 C27 0.99 27 1.98 27 3 C14.13 2.505 14.13 2.505 1 2 C0.67 1.34 0.34 0.68 0 0 Z " fill="#142A78" transform="translate(272,388)"/>
<path d="M0 0 C0.66 0 1.32 0 2 0 C2.19335938 0.65226562 2.38671875 1.30453125 2.5859375 1.9765625 C3.12511857 3.78628905 3.66826976 5.59483627 4.21484375 7.40234375 C4.79699023 9.32835075 5.36976358 11.25719618 5.9375 13.1875 C6.84117079 15.57956974 7.82887096 17.50454582 9.125 19.6875 C11 23 11 23 11 26 C10.34 26 9.68 26 9 26 C4.71400102 18.21845268 0 9.05102311 0 0 Z " fill="#073380" transform="translate(381,275)"/>
<path d="M0 0 C2.57146057 2.57146057 2.80117997 4.6050417 3.625 8.125 C3.88539063 9.22070312 4.14578125 10.31640625 4.4140625 11.4453125 C4.70410156 12.70988281 4.70410156 12.70988281 5 14 C4.34 13.67 3.68 13.34 3 13 C2.67 13.99 2.34 14.98 2 16 C1.01 16 0.02 16 -1 16 C-1.02685095 13.52076199 -1.04676547 11.0418116 -1.0625 8.5625 C-1.07506836 7.50192383 -1.07506836 7.50192383 -1.08789062 6.41992188 C-1.09653588 4.61306441 -1.05220011 2.80612397 -1 1 C-0.67 0.67 -0.34 0.34 0 0 Z " fill="#0C6FBD" transform="translate(380,276)"/>
<path d="M0 0 C1.31571603 0.2547514 2.62760376 0.52934141 3.9375 0.8125 C4.66839844 0.96332031 5.39929688 1.11414063 6.15234375 1.26953125 C6.76207031 1.51058594 7.37179687 1.75164062 8 2 C8.33 2.99 8.66 3.98 9 5 C10.59332129 6.57663496 10.59332129 6.57663496 12.5625 8.125 C24.98859892 18.68942706 24.98859892 18.68942706 26 25 C23.06528438 22.15421516 20.33241032 19.24308235 17.6875 16.125 C12.46714051 10.11023798 6.65515893 5.3258533 0 1 C0 0.67 0 0.34 0 0 Z " fill="#34C0F7" transform="translate(387,226)"/>
<path d="M0 0 C3.1705529 1.29170674 5.04393796 3.06306202 7.390625 5.50390625 C12.8171099 10.54842983 19.06965335 14.43878493 26 17 C25.34 17.66 24.68 18.32 24 19 C16.77573194 15.96427034 10.98299531 12.54686454 5.25 7.25 C4.7250293 6.76619873 4.20005859 6.28239746 3.65917969 5.78393555 C2.391473 4.57085673 1.18906284 3.29025968 0 2 C0 1.34 0 0.68 0 0 Z " fill="#206AAE" transform="translate(247,303)"/>
<path d="M0 0 C10.57094519 3.78886924 18.96301871 12.41383584 27 20 C26.67 20.66 26.34 21.32 26 22 C24 20.625 24 20.625 22 19 C22 18.34 22 17.68 22 17 C21.34 17 20.68 17 20 17 C18.32167875 15.34506999 16.6572507 13.67602974 15 12 C12.98451597 10.42425794 10.94200942 8.88251815 8.875 7.375 C2.52857562 2.73783705 2.52857562 2.73783705 0 0 Z " fill="#0A6AB7" transform="translate(579,183)"/>
<path d="M0 0 C4.4907589 1.41138137 6.78211865 3.62514882 10 7 C11.09443009 7.90770268 12.19864732 8.80373895 13.3125 9.6875 C14.6428125 10.8321875 14.6428125 10.8321875 16 12 C16 12.66 16 13.32 16 14 C15.2265625 13.566875 15.2265625 13.566875 14.4375 13.125 C11.37643275 11.71219973 8.25055082 10.8751483 5 10 C5 8.35 5 6.7 5 5 C4.360625 4.731875 3.72125 4.46375 3.0625 4.1875 C1 3 1 3 0 0 Z " fill="#093180" transform="translate(350,362)"/>
<path d="M0 0 C0 0.99 0 1.98 0 3 C-2.90092502 4.93395001 -3.89674737 5.30131941 -7.1875 5.625 C-8.445625 5.74875 -9.70375 5.8725 -11 6 C-10.67 5.34 -10.34 4.68 -10 4 C-10.99 3.01 -11.98 2.02 -13 1 C-8.59085217 -0.10228696 -4.51617599 -0.07654536 0 0 Z " fill="#073F8E" transform="translate(291,220)"/>
<path d="M0 0 C0.99 0.103125 1.98 0.20625 3 0.3125 C3.66 1.3025 4.32 2.2925 5 3.3125 C7.30144109 4.38386051 9.6340213 5.39239717 12 6.3125 C12 6.6425 12 6.9725 12 7.3125 C5.59859065 6.84694296 0.73230171 5.16538164 -5 2.3125 C-3 0.3125 -3 0.3125 0 0 Z " fill="#0955A2" transform="translate(431,299.6875)"/>
<path d="M0 0 C3.24199494 0.24014777 4.23473864 1.22635512 6.625 3.53125 C9.69123557 7.33131943 9.58960944 10.65987632 9.3125 15.375 C9.27866211 16.47908203 9.27866211 16.47908203 9.24414062 17.60546875 C9.18572927 19.40453842 9.09606337 21.20254753 9 23 C8.67 23 8.34 23 8 23 C7.96132813 22.07380859 7.96132813 22.07380859 7.921875 21.12890625 C7.50268107 14.86957873 6.36418041 9.38268866 3 4 C2.01 3.34 1.02 2.68 0 2 C0 1.34 0 0.68 0 0 Z " fill="#06206B" transform="translate(383,249)"/>
<path d="M0 0 C4.23322844 0.62045463 7.52290295 2.10523559 11.3125 4.0625 C12.38113281 4.61035156 13.44976562 5.15820312 14.55078125 5.72265625 C15.35902344 6.14417969 16.16726563 6.56570313 17 7 C13.5647952 9.29013653 12.014669 9.17842973 8 9 C8 8.01 8 7.02 8 6 C6.22969379 4.56657393 6.22969379 4.56657393 4 3.375 C2.65452253 2.60415353 1.31758498 1.81760854 0 1 C0 0.67 0 0.34 0 0 Z " fill="#163B7D" transform="translate(368,377)"/>
<path d="M0 0 C1.65 0 3.3 0 5 0 C5.24234375 0.56847656 5.4846875 1.13695312 5.734375 1.72265625 C7.40728432 5.57678196 9.11133441 9.31704469 11.25 12.9375 C13 16 13 16 13 18 C10 17 10 17 8.17578125 13.83984375 C7.54446852 12.54399131 6.92374601 11.24293771 6.3125 9.9375 C5.99216797 9.27427734 5.67183594 8.61105469 5.34179688 7.92773438 C4.5521402 6.28949142 3.77487638 4.64528546 3 3 C2.34 3 1.68 3 1 3 C0.67 2.01 0.34 1.02 0 0 Z " fill="#1F5DA6" transform="translate(234,284)"/>
<path d="M0 0 C-3.02320726 2.01547151 -4.60680288 2.46360744 -8.10546875 3.0703125 C-9.57983398 3.33134766 -9.57983398 3.33134766 -11.08398438 3.59765625 C-12.62022461 3.85869141 -12.62022461 3.85869141 -14.1875 4.125 C-15.22326172 4.30675781 -16.25902344 4.48851562 -17.32617188 4.67578125 C-19.88307999 5.12353474 -22.44095188 5.5646735 -25 6 C-24.67 4.68 -24.34 3.36 -24 2 C-23.67 2.66 -23.34 3.32 -23 4 C-21.76636719 3.566875 -21.76636719 3.566875 -20.5078125 3.125 C-13.46218499 0.78188138 -7.42640275 -0.6035 0 0 Z " fill="#176CB1" transform="translate(199,248)"/>
<path d="M0 0 C0.33 0 0.66 0 1 0 C1 3.3 1 6.6 1 10 C1.66 10.33 2.32 10.66 3 11 C2.67 11.33 2.34 11.66 2 12 C1.91348389 13.41570123 1.89295096 14.835595 1.90234375 16.25390625 C1.90556641 17.10791016 1.90878906 17.96191406 1.91210938 18.84179688 C1.92048828 19.73962891 1.92886719 20.63746094 1.9375 21.5625 C1.94201172 22.46419922 1.94652344 23.36589844 1.95117188 24.29492188 C1.96299775 26.53001314 1.9794778 28.76497437 2 31 C-0.80760213 26.78859681 -1.1045984 24.17843167 -0.87890625 19.23828125 C-0.83056641 18.12001953 -0.78222656 17.00175781 -0.73242188 15.84960938 C-0.67634766 14.68236328 -0.62027344 13.51511719 -0.5625 12.3125 C-0.51029297 11.13365234 -0.45808594 9.95480469 -0.40429688 8.74023438 C-0.27453806 5.82655906 -0.13956868 2.91321922 0 0 Z " fill="#011E70" transform="translate(326,256)"/>
<path d="M0 0 C3.76854223 1.25618074 4.07958456 2.66014706 6 6 C6.66 6.33 7.32 6.66 8 7 C8.8515625 9.06640625 8.8515625 9.06640625 9.625 11.5625 C9.88539063 12.38878906 10.14578125 13.21507812 10.4140625 14.06640625 C10.60742188 14.70449219 10.80078125 15.34257812 11 16 C10.01 16 9.02 16 8 16 C7.67386719 15.32453125 7.34773438 14.6490625 7.01171875 13.953125 C6.57472656 13.06109375 6.13773437 12.1690625 5.6875 11.25 C5.25824219 10.36828125 4.82898438 9.4865625 4.38671875 8.578125 C3.07633928 5.98339185 3.07633928 5.98339185 1.33203125 3.796875 C0 2 0 2 0 0 Z " fill="#0B2D73" transform="translate(396,245)"/>
<path d="M0 0 C3.38618559 2.77813988 4.98159481 6.56400282 6.8125 10.4375 C7.14958984 11.10587891 7.48667969 11.77425781 7.83398438 12.46289062 C10.18760235 17.42072055 10.18760235 17.42072055 9.19921875 20.47265625 C8.80347656 20.97667969 8.40773438 21.48070312 8 22 C7.59007812 20.87980469 7.18015625 19.75960937 6.7578125 18.60546875 C6.21374599 17.132737 5.66946389 15.66008489 5.125 14.1875 C4.85558594 13.44951172 4.58617187 12.71152344 4.30859375 11.95117188 C4.04433594 11.23896484 3.78007812 10.52675781 3.5078125 9.79296875 C3.26691895 9.1383667 3.02602539 8.48376465 2.77783203 7.80932617 C1.94473832 5.72104063 1.94473832 5.72104063 0 3 C0 2.01 0 1.02 0 0 Z " fill="#1E96DF" transform="translate(459,226)"/>
<path d="M0 0 C1.32 0.33 2.64 0.66 4 1 C-0.10679612 15.73786408 -0.10679612 15.73786408 -5 19 C-4.01 16.03 -3.02 13.06 -2 10 C-1.34 10 -0.68 10 0 10 C0 6.7 0 3.4 0 0 Z " fill="#0960B3" transform="translate(573,287)"/>
<path d="M0 0 C0.74958984 0.10441406 1.49917969 0.20882813 2.27148438 0.31640625 C4.11999204 0.5754328 5.96647432 0.84883966 7.8125 1.125 C7.4825 1.785 7.1525 2.445 6.8125 3.125 C0.52989294 3.35768915 -5.06769467 2.52954548 -11.1875 1.125 C-7.23979304 -1.50680464 -4.44769851 -0.6758948 0 0 Z " fill="#0D5DAD" transform="translate(443.1875,328.875)"/>
<path d="M0 0 C-4.25723524 3.88704087 -10.27543399 6 -16 6 C-16 5.34 -16 4.68 -16 4 C-5.62642369 -0.59225513 -5.62642369 -0.59225513 0 0 Z " fill="#0A2570" transform="translate(201,295)"/>
<path d="M0 0 C5.85272256 0.45020943 10.08220119 3.03839227 15 6 C14.01 6.495 14.01 6.495 13 7 C12.67 7.66 12.34 8.32 12 9 C11.34 8.34 10.68 7.68 10 7 C7.69433472 5.68005951 5.34845162 4.45326741 2.99609375 3.21875 C1 2 1 2 0 0 Z " fill="#42BFF8" transform="translate(407,179)"/>
<path d="M0 0 C2.08326131 -0.02709444 4.16662441 -0.04643873 6.25 -0.0625 C7.41015625 -0.07410156 8.5703125 -0.08570313 9.765625 -0.09765625 C12.40977128 -0.01782092 14.49826091 0.21356222 17 1 C17 1.99 17 2.98 17 4 C14.91631462 3.68985608 12.83306332 3.3767948 10.75 3.0625 C9.58984375 2.88847656 8.4296875 2.71445313 7.234375 2.53515625 C4.76893039 2.1272264 2.40575438 1.66098697 0 1 C0 0.67 0 0.34 0 0 Z " fill="#062572" transform="translate(351,238)"/>
<path d="M0 0 C0.28875 0.639375 0.5775 1.27875 0.875 1.9375 C1.82823451 4.15206079 1.82823451 4.15206079 4 5 C5.91865756 9.44320697 7.23004535 14.22628119 8 19 C5.20170725 16.55457114 3.84693864 13.9887844 2.3125 10.625 C1.87550781 9.68914062 1.43851562 8.75328125 0.98828125 7.7890625 C-0.00747184 4.97891346 -0.19862672 2.9525594 0 0 Z " fill="#0D5DA5" transform="translate(382,287)"/>
<path d="M0 0 C0.99 0.33 1.98 0.66 3 1 C2.34 1.66 1.68 2.32 1 3 C3.97 3.495 3.97 3.495 7 4 C7 4.66 7 5.32 7 6 C3.04 6 -0.92 6 -5 6 C-3.35 4.02 -1.7 2.04 0 0 Z " fill="#022A7A" transform="translate(243,238)"/>
<path d="M0 0 C3.0478881 1.44739891 5.82138128 3.12466976 8.625 5 C9.40101563 5.515625 10.17703125 6.03125 10.9765625 6.5625 C13 8 13 8 15 10 C9.12960765 9.70648038 5.14400771 6.97587374 1 3 C0.67 2.01 0.34 1.02 0 0 Z " fill="#0A2C77" transform="translate(413,291)"/>
<path d="M0 0 C0.66 0 1.32 0 2 0 C3.65 4.29 5.3 8.58 7 13 C6.01 13.495 6.01 13.495 5 14 C4.15675328 12.421924 3.32576082 10.8372958 2.5 9.25 C2.0359375 8.36828125 1.571875 7.4865625 1.09375 6.578125 C0 4 0 4 0 0 Z " fill="#092F7B" transform="translate(395,286)"/>
<path d="M0 0 C0.99 0.495 0.99 0.495 2 1 C3.47180796 5.82425944 4.25376143 9.92477148 4 15 C3.34 15 2.68 15 2 15 C0.73694665 9.92523206 -0.27036084 5.27203646 0 0 Z " fill="#0D2B72" transform="translate(407,263)"/>
<path d="M0 0 C0 3.57352581 -0.99271798 5.77458642 -2.375 9.0625 C-2.81585938 10.12597656 -3.25671875 11.18945312 -3.7109375 12.28515625 C-5 15 -5 15 -7 17 C-6.68676972 15.32943851 -6.34665557 13.66394675 -6 12 C-5.87753906 11.34902344 -5.75507813 10.69804687 -5.62890625 10.02734375 C-4.68301386 5.54900366 -3.71425097 2.97140078 0 0 Z " fill="#0B7FCF" transform="translate(186,226)"/>
<path d="M0 0 C3.27863638 3.1572054 6.28242887 6.35069019 9 10 C8.67 10.99 8.34 11.98 8 13 C6.65472507 11.59466816 5.3241269 10.17527548 4 8.75 C3.2575 7.96109375 2.515 7.1721875 1.75 6.359375 C0 4 0 4 0 0 Z " fill="#0A3E8C" transform="translate(401,297)"/>
<path d="M0 0 C1.9375 0.75 1.9375 0.75 4 2 C4.71484375 3.828125 4.71484375 3.828125 5 6 C5.10441406 6.77859375 5.20882813 7.5571875 5.31640625 8.359375 C5.43822266 9.54273438 5.43822266 9.54273438 5.5625 10.75 C5.64628906 11.54921875 5.73007812 12.3484375 5.81640625 13.171875 C5.87699219 13.77515625 5.93757813 14.3784375 6 15 C3.36404228 12.36404228 2.92297888 9.93812819 1.875 6.375 C1.52179688 5.18648438 1.16859375 3.99796875 0.8046875 2.7734375 C0.53914063 1.85820312 0.27359375 0.94296875 0 0 Z " fill="#1092DF" transform="translate(420,266)"/>
<path d="M0 0 C0.66 0 1.32 0 2 0 C2.508783 1.55966218 3.00663469 3.12289241 3.5 4.6875 C3.7784375 5.55761719 4.056875 6.42773438 4.34375 7.32421875 C4.99850805 9.99391677 5.11831495 12.26396684 5 15 C2.26094663 11.84821256 1.44730607 9.35182386 0.8125 5.25 C0.65394531 4.26515625 0.49539063 3.2803125 0.33203125 2.265625 C0.22246094 1.51796875 0.11289062 0.7703125 0 0 Z " fill="#021D6C" transform="translate(381,275)"/>
<path d="M0 0 C1.39456452 0.00667256 2.78911118 0.01863093 4.18359375 0.03515625 C4.89451172 0.03966797 5.60542969 0.04417969 6.33789062 0.04882812 C8.09899388 0.06064761 9.86005411 0.07858362 11.62109375 0.09765625 C11.62109375 0.42765625 11.62109375 0.75765625 11.62109375 1.09765625 C9.41357527 1.43634402 7.20503464 1.76837314 4.99609375 2.09765625 C3.76632812 2.28328125 2.5365625 2.46890625 1.26953125 2.66015625 C-1.99550895 3.05168141 -5.09603076 3.17846549 -8.37890625 3.09765625 C-7.73953125 2.78828125 -7.10015625 2.47890625 -6.44140625 2.16015625 C-2.38178809 0.06883781 -2.38178809 0.06883781 0 0 Z " fill="#208BD2" transform="translate(529.37890625,386.90234375)"/>
<path d="M0 0 C-0.66 1.32 -1.32 2.64 -2 4 C-3.32 4 -4.64 4 -6 4 C-8.33634657 4.31151288 -10.67038557 4.64159778 -13 5 C-9.8245716 0.89062207 -4.9889919 0 0 0 Z " fill="#1E79CA" transform="translate(543,326)"/>
<path d="M0 0 C0.53625 0.226875 1.0725 0.45375 1.625 0.6875 C-4.125 3.6875 -4.125 3.6875 -6.375 3.6875 C-6.16875 4.285625 -5.9625 4.88375 -5.75 5.5 C-5.375 7.6875 -5.375 7.6875 -7.375 10.6875 C-7.705 8.0475 -8.035 5.4075 -8.375 2.6875 C-2.95961538 -0.38942308 -2.95961538 -0.38942308 0 0 Z " fill="#0E2D6E" transform="translate(182.375,301.3125)"/>
<path d="M0 0 C2.58787727 2.58787727 2.62709152 4.42007861 3 8 C2.67 8.66 2.34 9.32 2 10 C1.34 10 0.68 10 0 10 C-1.49106457 7.01787087 -1.11941467 4.28390342 -1 1 C-0.67 0.67 -0.34 0.34 0 0 Z " fill="#0561AD" transform="translate(380,276)"/>
<path d="M0 0 C1.7074998 1.28062485 3.37373596 2.61767557 5 4 C5 4.66 5 5.32 5 6 C5.66 6 6.32 6 7 6 C7.66 7.32 8.32 8.64 9 10 C5.54537888 9.74410214 4.72618453 8.71373837 2.25 6.125 C0 3 0 3 0 0 Z " fill="#0951A6" transform="translate(460,198)"/>
<path d="M0 0 C0.66 0.99 1.32 1.98 2 3 C0.90554162 3.86657116 -0.20097781 4.71792724 -1.3125 5.5625 C-1.92738281 6.03816406 -2.54226563 6.51382812 -3.17578125 7.00390625 C-3.77777344 7.33261719 -4.37976563 7.66132813 -5 8 C-5.99 7.67 -6.98 7.34 -8 7 C-8 6.34 -8 5.68 -8 5 C-7.05125 4.54625 -6.1025 4.0925 -5.125 3.625 C-1.99686321 2.19761746 -1.99686321 2.19761746 0 0 Z " fill="#1F96E5" transform="translate(587,365)"/>
<path d="M0 0 C2.24940295 -0.08119503 4.49964871 -0.13927819 6.75 -0.1875 C8.00296875 -0.22230469 9.2559375 -0.25710938 10.546875 -0.29296875 C14.14109357 0.01197061 15.44725126 0.54394629 18 3 C11.71739294 3.23268915 6.11980533 2.40454548 0 1 C0 0.67 0 0.34 0 0 Z " fill="#152B36" transform="translate(494,259)"/>
<path d="M0 0 C0 0.66 0 1.32 0 2 C-3.87684087 3.19287411 -6.91621923 4 -11 4 C-11 3.34 -11 2.68 -11 2 C-7.17010894 0.19769832 -4.21878192 -0.19622241 0 0 Z " fill="#0C2974" transform="translate(213,291)"/>
<path d="M0 0 C2.4952504 1.2476252 3.07327938 2.50003214 4.5 4.875 C5.96028076 7.28802491 7.43427919 9.65141879 9 12 C8.01 12 7.02 12 6 12 C4.39453125 10.390625 4.39453125 10.390625 2.8125 8.25 C2.01779297 7.20585937 2.01779297 7.20585937 1.20703125 6.140625 C0 4 0 4 0 0 Z " fill="#1462B2" transform="translate(390,304)"/>
<path d="M0 0 C5.41538462 -0.36923077 5.41538462 -0.36923077 8.375 1.5 C8.91125 1.995 9.4475 2.49 10 3 C9.67 3.66 9.34 4.32 9 5 C8.01 5 7.02 5 6 5 C5.67 4.34 5.34 3.68 5 3 C3.68 3 2.36 3 1 3 C0.67 2.01 0.34 1.02 0 0 Z " fill="#4DC4F9" transform="translate(397,175)"/>
<path d="M0 0 C3.37503669 1.1858237 5.64722731 2.27573689 8 5 C7.67 5.99 7.34 6.98 7 8 C6.34 7.67 5.68 7.34 5 7 C5 6.34 5 5.68 5 5 C4.360625 4.731875 3.72125 4.46375 3.0625 4.1875 C1 3 1 3 0 0 Z " fill="#03267C" transform="translate(350,362)"/>
<path d="M0 0 C0.99 0.33 1.98 0.66 3 1 C2.71640113 2.4391134 2.42278601 3.87625518 2.125 5.3125 C1.88136719 6.51326172 1.88136719 6.51326172 1.6328125 7.73828125 C1 10 1 10 -1 13 C-0.67 8.71 -0.34 4.42 0 0 Z " fill="#109AEC" transform="translate(627,304)"/>
<path d="M0 0 C4.12751449 0.60698743 7.3321148 2.03810791 11 4 C11 4.33 11 4.66 11 5 C6.1948447 5.56531239 3.75696103 3.88324916 0 1 C0 0.67 0 0.34 0 0 Z " fill="#10317E" transform="translate(368,377)"/>
<path d="M0 0 C1.27875 0.28875 2.5575 0.5775 3.875 0.875 C4.95394531 1.11863281 4.95394531 1.11863281 6.0546875 1.3671875 C8 2 8 2 10 4 C6.7 3.67 3.4 3.34 0 3 C0 2.01 0 1.02 0 0 Z " fill="#124993" transform="translate(355,222)"/>
<path d="M0 0 C3.16115776 1.36983503 3.9927092 1.9890638 6 5 C5.67 5.99 5.34 6.98 5 8 C0 2.25 0 2.25 0 0 Z " fill="#092B78" transform="translate(341,351)"/>
<path d="M0 0 C0.66 0 1.32 0 2 0 C5.22265625 5.2734375 5.22265625 5.2734375 6 7 C5.67 7.66 5.34 8.32 5 9 C2.9754262 7.06745228 1.57894208 5.36841312 0 3 C0 2.01 0 1.02 0 0 Z " fill="#0C2F85" transform="translate(334,338)"/>
<path d="M0 0 C-0.99 1.485 -0.99 1.485 -2 3 C-2.66 3 -3.32 3 -4 3 C-4 2.34 -4 1.68 -4 1 C-5.98 1 -7.96 1 -10 1 C-10 0.67 -10 0.34 -10 0 C-6.30458414 -0.95024979 -3.69541586 -0.95024979 0 0 Z " fill="#269DE6" transform="translate(533,337)"/>
<path d="M0 0 C-3 2 -3 2 -6 2 C-6.33 2.99 -6.66 3.98 -7 5 C-8.32 4.01 -9.64 3.02 -11 2 C-9.54494642 1.47007308 -8.08581873 0.9513211 -6.625 0.4375 C-5.81289063 0.14746094 -5.00078125 -0.14257812 -4.1640625 -0.44140625 C-2 -1 -2 -1 0 0 Z " fill="#2D9BE5" transform="translate(543,333)"/>
<path d="M0 0 C3 3 3 3 3.1875 5.6875 C3.0946875 6.8321875 3.0946875 6.8321875 3 8 C2.01 8.495 2.01 8.495 1 9 C0.67 6.03 0.34 3.06 0 0 Z " fill="#002E7F" transform="translate(379,266)"/>
<path d="M0 0 C-2.17288535 2.17288535 -3.01029519 2.64827002 -6 3 C-8.25 2.0625 -8.25 2.0625 -10 1 C-3.375 -1.125 -3.375 -1.125 0 0 Z " fill="#1592E0" transform="translate(562,381)"/>
<path d="M0 0 C-2.61941217 1.74627478 -4.03824877 2.38722388 -7 3 C-7.33 2.01 -7.66 1.02 -8 0 C-4.71023192 -1.09658936 -3.28696233 -0.79953138 0 0 Z " fill="#1B95E0" transform="translate(570,378)"/>
<path d="M0 0 C2.72426311 2.35277269 3.8141763 4.62496331 5 8 C4.01 8 3.02 8 2 8 C0.23537317 4.91190305 0 3.76687864 0 0 Z " fill="#0C428D" transform="translate(337,317)"/>
<path d="M0 0 C0.66 0 1.32 0 2 0 C1.60196439 2.88575819 1.20990931 3.82189513 -1.0625 5.75 C-1.701875 6.1625 -2.34125 6.575 -3 7 C-2.25 2.25 -2.25 2.25 0 0 Z " fill="#1E7ECE" transform="translate(565,308)"/>
<path d="M0 0 C6.75 0.75 6.75 0.75 9 3 C2.25 3.125 2.25 3.125 0 2 C0 1.34 0 0.68 0 0 Z " fill="#011E68" transform="translate(554,241)"/>
<path d="M0 0 C0 3 0 3 -2 5.1875 C-2.66 5.785625 -3.32 6.38375 -4 7 C-4.99 6.67 -5.98 6.34 -7 6 C-4.69 4.02 -2.38 2.04 0 0 Z " fill="#002579" transform="translate(253,230)"/>
<path d="M0 0 C0.66 0 1.32 0 2 0 C2 0.66 2 1.32 2 2 C3.175625 2.185625 3.175625 2.185625 4.375 2.375 C7 3 7 3 9 5 C5.28111761 4.49287967 2.26545761 3.88391785 -1 2 C-0.67 1.34 -0.34 0.68 0 0 Z " fill="#3FC8F7" transform="translate(377,220)"/>
<path d="M0 0 C2.31 0.66 4.62 1.32 7 2 C7 2.66 7 3.32 7 4 C1.25 3.25 1.25 3.25 -1 1 C-0.67 0.67 -0.34 0.34 0 0 Z " fill="#0A4CA1" transform="translate(421,316)"/>
<path d="M0 0 C1.32 0 2.64 0 4 0 C4 0.66 4 1.32 4 2 C3.34 2 2.68 2 2 2 C2.33 3.98 2.66 5.96 3 8 C0.4345406 5.4345406 0.45953913 3.52313332 0 0 Z " fill="#155DAA" transform="translate(231,287)"/>
<path d="M0 0 C0.33 0 0.66 0 1 0 C1 3.96 1 7.92 1 12 C-1 9 -1 9 -2 6 C-1.0625 2.8125 -1.0625 2.8125 0 0 Z " fill="#032880" transform="translate(327,275)"/>
<path d="M0 0 C3.96 0 7.92 0 12 0 C9.7833378 2.2166622 9.05601978 2.66044225 6 3 C2.75 2.0625 2.75 2.0625 0 1 C0 0.67 0 0.34 0 0 Z " fill="#0B4FA9" transform="translate(475,222)"/>
<path d="M0 0 C4 1 4 1 4 1 Z " fill="#002AD4" transform="translate(604,250)"/>
<path d="M0 0 C4 1 4 1 4 1 Z " fill="#0C0C1C" transform="translate(331,44)"/>
<path d="M0 0 C0.33 0.66 0.66 1.32 1 2 C0.34 1.67 -0.32 1.34 -1 1 C-0.67 0.67 -0.34 0.34 0 0 Z " fill="#007FD4" transform="translate(618,295)"/>
<path d="M0 0 C3 1 3 1 3 1 Z " fill="#000000" transform="translate(744,295)"/>
<path d="M0 0 C3 1 3 1 3 1 Z " fill="#002AD4" transform="translate(582,285)"/>
<path d="M0 0 C3 1 3 1 3 1 Z " fill="#114CB2" transform="translate(564,273)"/>
<path d="M0 0 C3 1 3 1 3 1 Z " fill="#000000" transform="translate(154,268)"/>
<path d="M0 0 C3 1 3 1 3 1 Z " fill="#000000" transform="translate(725,266)"/>
<path d="" fill="#002AD4" transform="translate(0,0)"/>
<path d="M0 0 C3 1 3 1 3 1 Z " fill="#0000FF" transform="translate(525,227)"/>
<path d="M0 0 C3 1 3 1 3 1 Z " fill="#0071B8" transform="translate(437,165)"/>
<path d="M0 0 C3 1 3 1 3 1 Z " fill="#2AFFFF" transform="translate(365,165)"/>
<path d="M0 0 C3 1 3 1 3 1 Z " fill="#000054" transform="translate(452,121)"/>
<path d="M0 0 C0.66 0 1.32 0 2 0 C1.67 0.66 1.34 1.32 1 2 C0.67 1.34 0.34 0.68 0 0 Z " fill="#000000" transform="translate(586,77)"/>
<path d="M0 0 C3 1 3 1 3 1 Z " fill="#000000" transform="translate(510,52)"/>
<path d="" fill="#003F7F" transform="translate(0,0)"/>
<path d="M0 0 C2 1 2 1 2 1 Z " fill="#003FFF" transform="translate(430,330)"/>
<path d="M0 0 C2 1 2 1 2 1 Z " fill="#002AD4" transform="translate(408,322)"/>
<path d="" fill="#0000FF" transform="translate(0,0)"/>
<path d="M0 0 C2 1 2 1 2 1 Z " fill="#1F1F1F" transform="translate(37,313)"/>
<path d="M0 0 C2 1 2 1 2 1 Z " fill="#003FBF" transform="translate(619,289)"/>
<path d="M0 0 C2 1 2 1 2 1 Z " fill="#15BFD4" transform="translate(585,286)"/>
<path d="" fill="#000000" transform="translate(0,0)"/>
<path d="M0 0 C2 1 2 1 2 1 Z " fill="#000000" transform="translate(713,284)"/>
<path d="M0 0 C2 1 2 1 2 1 Z " fill="#000000" transform="translate(91,284)"/>
<path d="M0 0 C2 1 2 1 2 1 Z " fill="#0000FF" transform="translate(557,271)"/>
<path d="M0 0 C2 1 2 1 2 1 Z " fill="#3F3FBF" transform="translate(524,265)"/>
<path d="M0 0 C2 1 2 1 2 1 Z " fill="#0000FF" transform="translate(283,265)"/>
<path d="M0 0 C2 1 2 1 2 1 Z " fill="#0000FF" transform="translate(516,256)"/>
<path d="" fill="#006A94" transform="translate(0,0)"/>
<path d="M0 0 C2 1 2 1 2 1 Z " fill="#006A94" transform="translate(332,236)"/>
<path d="M0 0 C2 1 2 1 2 1 Z " fill="#003FBF" transform="translate(534,230)"/>
<path d="M0 0 C2 1 2 1 2 1 Z " fill="#0000FF" transform="translate(358,226)"/>
<path d="M0 0 C2 1 2 1 2 1 Z " fill="#0000FF" transform="translate(348,225)"/>
<path d="M0 0 C2 1 2 1 2 1 Z " fill="#000000" transform="translate(59,220)"/>
<path d="" fill="#000000" transform="translate(0,0)"/>
<path d="" fill="#000000" transform="translate(0,0)"/>
<path d="M0 0 C2 1 2 1 2 1 Z " fill="#3F7FBF" transform="translate(227,180)"/>
<path d="M0 0 C2 1 2 1 2 1 Z " fill="#3FBFFF" transform="translate(244,172)"/>
<path d="M0 0 C2 1 2 1 2 1 Z " fill="#3FFFFF" transform="translate(376,166)"/>
<path d="M0 0 C2 1 2 1 2 1 Z " fill="#00FFFF" transform="translate(369,165)"/>
<path d="M0 0 C2 1 2 1 2 1 Z " fill="#000000" transform="translate(99,165)"/>
<path d="M0 0 C2 1 2 1 2 1 Z " fill="#000000" transform="translate(557,153)"/>
<path d="M0 0 C2 1 2 1 2 1 Z " fill="#003F3F" transform="translate(369,119)"/>
<path d="" fill="#000000" transform="translate(0,0)"/>
<path d="M0 0 C2 1 2 1 2 1 Z " fill="#001919" transform="translate(291,52)"/>
<path d="M0 0 C2 1 2 1 2 1 Z " fill="#000000" transform="translate(423,40)"/>
<path d="" fill="#00FFFF" transform="translate(0,0)"/>
<path d="" fill="#0000FF" transform="translate(0,0)"/>
<path d="" fill="#0000FF" transform="translate(0,0)"/>
<path d="" fill="#000000" transform="translate(0,0)"/>
<path d="" fill="#0000FF" transform="translate(0,0)"/>
<path d="" fill="#7F7FFF" transform="translate(0,0)"/>
<path d="" fill="#0000FF" transform="translate(0,0)"/>
<path d="" fill="#0000FF" transform="translate(0,0)"/>
<path d="" fill="#0000FF" transform="translate(0,0)"/>
<path d="" fill="#0000FF" transform="translate(0,0)"/>
<path d="" fill="#007F7F" transform="translate(0,0)"/>
<path d="" fill="#003F7F" transform="translate(0,0)"/>
<path d="" fill="#007F7F" transform="translate(0,0)"/>
<path d="" fill="#007F7F" transform="translate(0,0)"/>
<path d="" fill="#3FBFBF" transform="translate(0,0)"/>
<path d="" fill="#0000FF" transform="translate(0,0)"/>
<path d="" fill="#00FFFF" transform="translate(0,0)"/>
<path d="" fill="#00FFFF" transform="translate(0,0)"/>
<path d="" fill="#00FFFF" transform="translate(0,0)"/>
<path d="" fill="#00FFFF" transform="translate(0,0)"/>
<path d="" fill="#00FFFF" transform="translate(0,0)"/>
<path d="" fill="#000000" transform="translate(0,0)"/>
<path d="" fill="#000000" transform="translate(0,0)"/>
<path d="" fill="#005555" transform="translate(0,0)"/>
<path d="" fill="#00007F" transform="translate(0,0)"/>
<path d="" fill="#7F7FFF" transform="translate(0,0)"/>
<path d="" fill="#00FFFF" transform="translate(0,0)"/>
<path d="" fill="#0000FF" transform="translate(0,0)"/>
<path d="" fill="#0000FF" transform="translate(0,0)"/>
<path d="" fill="#55AAFF" transform="translate(0,0)"/>
<path d="" fill="#000000" transform="translate(0,0)"/>
<path d="" fill="#000000" transform="translate(0,0)"/>
<path d="" fill="#00FFFF" transform="translate(0,0)"/>
<path d="" fill="#000000" transform="translate(0,0)"/>
<path d="" fill="#007FFF" transform="translate(0,0)"/>
<path d="" fill="#0055AA" transform="translate(0,0)"/>
<path d="" fill="#000000" transform="translate(0,0)"/>
<path d="" fill="#0000FF" transform="translate(0,0)"/>
<path d="" fill="#000000" transform="translate(0,0)"/>
<path d="" fill="#000000" transform="translate(0,0)"/>
<path d="" fill="#000000" transform="translate(0,0)"/>
<path d="" fill="#000000" transform="translate(0,0)"/>
<path d="" fill="#007FFF" transform="translate(0,0)"/>
<path d="" fill="#007FBF" transform="translate(0,0)"/>
<path d="" fill="#000000" transform="translate(0,0)"/>
<path d="" fill="#000000" transform="translate(0,0)"/>
<path d="" fill="#7F7FFF" transform="translate(0,0)"/>
<path d="" fill="#007FFF" transform="translate(0,0)"/>
<path d="" fill="#000000" transform="translate(0,0)"/>
<path d="" fill="#00FFFF" transform="translate(0,0)"/>
<path d="" fill="#005555" transform="translate(0,0)"/>
<path d="" fill="#000000" transform="translate(0,0)"/>
<path d="" fill="#000000" transform="translate(0,0)"/>
<path d="" fill="#00007F" transform="translate(0,0)"/>
<path d="" fill="#000000" transform="translate(0,0)"/>
<path d="" fill="#000000" transform="translate(0,0)"/>
<path d="" fill="#000000" transform="translate(0,0)"/>
<path d="" fill="#000000" transform="translate(0,0)"/>
<path d="" fill="#7F7F7F" transform="translate(0,0)"/>
<path d="" fill="#336666" transform="translate(0,0)"/>
<path d="" fill="#0000FF" transform="translate(0,0)"/>
<path d="" fill="#0055AA" transform="translate(0,0)"/>
<path d="" fill="#000000" transform="translate(0,0)"/>
<path d="" fill="#3F7FBF" transform="translate(0,0)"/>
<path d="" fill="#003333" transform="translate(0,0)"/>
<path d="" fill="#000000" transform="translate(0,0)"/>
<path d="" fill="#000000" transform="translate(0,0)"/>
<path d="" fill="#007F7F" transform="translate(0,0)"/>
<path d="" fill="#0000FF" transform="translate(0,0)"/>
<path d="" fill="#000000" transform="translate(0,0)"/>
<path d="" fill="#000000" transform="translate(0,0)"/>
<path d="" fill="#00FFFF" transform="translate(0,0)"/>
<path d="" fill="#007F7F" transform="translate(0,0)"/>
<path d="" fill="#007F7F" transform="translate(0,0)"/>
<path d="" fill="#000000" transform="translate(0,0)"/>
<path d="" fill="#00FFFF" transform="translate(0,0)"/>
<path d="" fill="#55AAAA" transform="translate(0,0)"/>
<path d="" fill="#00FFFF" transform="translate(0,0)"/>
<path d="" fill="#000000" transform="translate(0,0)"/>
<path d="" fill="#000000" transform="translate(0,0)"/>
<path d="" fill="#007F7F" transform="translate(0,0)"/>
<path d="" fill="#000000" transform="translate(0,0)"/>
<path d="" fill="#007F7F" transform="translate(0,0)"/>
<path d="" fill="#0000FF" transform="translate(0,0)"/>
<path d="" fill="#0055AA" transform="translate(0,0)"/>
<path d="" fill="#0000FF" transform="translate(0,0)"/>
<path d="" fill="#0000FF" transform="translate(0,0)"/>
<path d="" fill="#000000" transform="translate(0,0)"/>
<path d="" fill="#0000FF" transform="translate(0,0)"/>
<path d="" fill="#000000" transform="translate(0,0)"/>
<path d="" fill="#000000" transform="translate(0,0)"/>
<path d="" fill="#000000" transform="translate(0,0)"/>
<path d="" fill="#000000" transform="translate(0,0)"/>
<path d="" fill="#000000" transform="translate(0,0)"/>
<path d="" fill="#000000" transform="translate(0,0)"/>
<path d="" fill="#000000" transform="translate(0,0)"/>
<path d="" fill="#0000FF" transform="translate(0,0)"/>
<path d="" fill="#000000" transform="translate(0,0)"/>
<path d="" fill="#000000" transform="translate(0,0)"/>
<path d="" fill="#0000FF" transform="translate(0,0)"/>
<path d="" fill="#000000" transform="translate(0,0)"/>
<path d="" fill="#0000FF" transform="translate(0,0)"/>
<path d="" fill="#000000" transform="translate(0,0)"/>
<path d="" fill="#000000" transform="translate(0,0)"/>
<path d="" fill="#000000" transform="translate(0,0)"/>
<path d="" fill="#000000" transform="translate(0,0)"/>
<path d="" fill="#000000" transform="translate(0,0)"/>
<path d="" fill="#00007F" transform="translate(0,0)"/>
<path d="" fill="#005555" transform="translate(0,0)"/>
<path d="" fill="#000000" transform="translate(0,0)"/>
<path d="" fill="#000000" transform="translate(0,0)"/>
<path d="" fill="#7F7F7F" transform="translate(0,0)"/>
<path d="" fill="#0000FF" transform="translate(0,0)"/>
<path d="" fill="#000000" transform="translate(0,0)"/>
<path d="" fill="#0000FF" transform="translate(0,0)"/>
<path d="" fill="#007F7F" transform="translate(0,0)"/>
<path d="" fill="#0000FF" transform="translate(0,0)"/>
<path d="" fill="#000000" transform="translate(0,0)"/>
<path d="" fill="#000000" transform="translate(0,0)"/>
<path d="" fill="#0055AA" transform="translate(0,0)"/>
<path d="" fill="#000000" transform="translate(0,0)"/>
<path d="" fill="#000000" transform="translate(0,0)"/>
<path d="" fill="#000000" transform="translate(0,0)"/>
<path d="" fill="#000000" transform="translate(0,0)"/>
<path d="" fill="#0000FF" transform="translate(0,0)"/>
<path d="" fill="#0000FF" transform="translate(0,0)"/>
<path d="" fill="#0000FF" transform="translate(0,0)"/>
<path d="" fill="#0000FF" transform="translate(0,0)"/>
<path d="" fill="#0000FF" transform="translate(0,0)"/>
<path d="" fill="#0000FF" transform="translate(0,0)"/>
<path d="" fill="#0000FF" transform="translate(0,0)"/>
<path d="" fill="#00FFFF" transform="translate(0,0)"/>
<path d="" fill="#0000FF" transform="translate(0,0)"/>
<path d="" fill="#0000FF" transform="translate(0,0)"/>
<path d="" fill="#0000FF" transform="translate(0,0)"/>
<path d="" fill="#0000FF" transform="translate(0,0)"/>
<path d="" fill="#007F7F" transform="translate(0,0)"/>
<path d="" fill="#000000" transform="translate(0,0)"/>
<path d="" fill="#007F7F" transform="translate(0,0)"/>
<path d="" fill="#007F7F" transform="translate(0,0)"/>
<path d="" fill="#007F7F" transform="translate(0,0)"/>
<path d="" fill="#0000FF" transform="translate(0,0)"/>
<path d="" fill="#0000FF" transform="translate(0,0)"/>
<path d="" fill="#00FFFF" transform="translate(0,0)"/>
<path d="" fill="#55AAAA" transform="translate(0,0)"/>
<path d="" fill="#007F7F" transform="translate(0,0)"/>
<path d="" fill="#0055AA" transform="translate(0,0)"/>
<path d="" fill="#007F7F" transform="translate(0,0)"/>
<path d="" fill="#0000FF" transform="translate(0,0)"/>
<path d="" fill="#55AAAA" transform="translate(0,0)"/>
<path d="" fill="#0000FF" transform="translate(0,0)"/>
<path d="" fill="#0000FF" transform="translate(0,0)"/>
<path d="" fill="#0000FF" transform="translate(0,0)"/>
<path d="" fill="#0000FF" transform="translate(0,0)"/>
<path d="" fill="#0000FF" transform="translate(0,0)"/>
<path d="" fill="#0000FF" transform="translate(0,0)"/>
<path d="" fill="#0000FF" transform="translate(0,0)"/>
<path d="" fill="#0000FF" transform="translate(0,0)"/>
<path d="" fill="#000000" transform="translate(0,0)"/>
<path d="" fill="#0055AA" transform="translate(0,0)"/>
<path d="" fill="#0000FF" transform="translate(0,0)"/>
<path d="" fill="#007F7F" transform="translate(0,0)"/>
<path d="" fill="#7F7FFF" transform="translate(0,0)"/>
<path d="" fill="#0000FF" transform="translate(0,0)"/>
<path d="" fill="#3F7FBF" transform="translate(0,0)"/>
<path d="" fill="#0000FF" transform="translate(0,0)"/>
<path d="" fill="#0000FF" transform="translate(0,0)"/>
<path d="" fill="#000000" transform="translate(0,0)"/>
<path d="" fill="#000000" transform="translate(0,0)"/>
<path d="" fill="#0000FF" transform="translate(0,0)"/>
<path d="" fill="#0000FF" transform="translate(0,0)"/>
<path d="" fill="#0000FF" transform="translate(0,0)"/>
<path d="" fill="#000000" transform="translate(0,0)"/>
<path d="" fill="#000000" transform="translate(0,0)"/>
<path d="" fill="#0000FF" transform="translate(0,0)"/>
<path d="" fill="#0000FF" transform="translate(0,0)"/>
<path d="" fill="#0000FF" transform="translate(0,0)"/>
<path d="" fill="#0000FF" transform="translate(0,0)"/>
<path d="" fill="#0000FF" transform="translate(0,0)"/>
<path d="" fill="#000000" transform="translate(0,0)"/>
<path d="" fill="#003366" transform="translate(0,0)"/>
<path d="" fill="#7F7FFF" transform="translate(0,0)"/>
<path d="" fill="#000000" transform="translate(0,0)"/>
<path d="" fill="#000000" transform="translate(0,0)"/>
<path d="" fill="#000000" transform="translate(0,0)"/>
<path d="" fill="#000000" transform="translate(0,0)"/>
<path d="" fill="#000000" transform="translate(0,0)"/>
<path d="" fill="#000000" transform="translate(0,0)"/>
<path d="" fill="#005555" transform="translate(0,0)"/>
<path d="" fill="#00FFFF" transform="translate(0,0)"/>
<path d="" fill="#000000" transform="translate(0,0)"/>
<path d="" fill="#0000FF" transform="translate(0,0)"/>
<path d="" fill="#00FFFF" transform="translate(0,0)"/>
<path d="" fill="#000000" transform="translate(0,0)"/>
<path d="" fill="#000000" transform="translate(0,0)"/>
<path d="" fill="#0000FF" transform="translate(0,0)"/>
<path d="" fill="#000000" transform="translate(0,0)"/>
<path d="" fill="#0000FF" transform="translate(0,0)"/>
<path d="" fill="#000000" transform="translate(0,0)"/>
<path d="" fill="#00FFFF" transform="translate(0,0)"/>
<path d="" fill="#00FFFF" transform="translate(0,0)"/>
<path d="" fill="#00FFFF" transform="translate(0,0)"/>
<path d="" fill="#000000" transform="translate(0,0)"/>
<path d="" fill="#55AAAA" transform="translate(0,0)"/>
<path d="" fill="#000000" transform="translate(0,0)"/>
<path d="" fill="#55AAFF" transform="translate(0,0)"/>
<path d="" fill="#00FFFF" transform="translate(0,0)"/>
<path d="" fill="#000000" transform="translate(0,0)"/>
<path d="" fill="#5555AA" transform="translate(0,0)"/>
<path d="" fill="#0000FF" transform="translate(0,0)"/>
<path d="" fill="#00FFFF" transform="translate(0,0)"/>
<path d="" fill="#7F7FFF" transform="translate(0,0)"/>
<path d="" fill="#000000" transform="translate(0,0)"/>
<path d="" fill="#00FFFF" transform="translate(0,0)"/>
<path d="" fill="#007FFF" transform="translate(0,0)"/>
<path d="" fill="#00FFFF" transform="translate(0,0)"/>
<path d="" fill="#0000FF" transform="translate(0,0)"/>
<path d="" fill="#00FFFF" transform="translate(0,0)"/>
<path d="" fill="#00FFFF" transform="translate(0,0)"/>
<path d="" fill="#007F7F" transform="translate(0,0)"/>
<path d="" fill="#007F7F" transform="translate(0,0)"/>
<path d="" fill="#00FFFF" transform="translate(0,0)"/>
<path d="" fill="#0000FF" transform="translate(0,0)"/>
<path d="" fill="#007F7F" transform="translate(0,0)"/>
<path d="" fill="#55AAFF" transform="translate(0,0)"/>
<path d="" fill="#00FFFF" transform="translate(0,0)"/>
<path d="" fill="#00FFFF" transform="translate(0,0)"/>
<path d="" fill="#000000" transform="translate(0,0)"/>
<path d="" fill="#0000FF" transform="translate(0,0)"/>
<path d="" fill="#000000" transform="translate(0,0)"/>
<path d="" fill="#0000FF" transform="translate(0,0)"/>
<path d="" fill="#005555" transform="translate(0,0)"/>
<path d="" fill="#0000FF" transform="translate(0,0)"/>
<path d="" fill="#007F7F" transform="translate(0,0)"/>
<path d="" fill="#000000" transform="translate(0,0)"/>
<path d="" fill="#000000" transform="translate(0,0)"/>
<path d="" fill="#000000" transform="translate(0,0)"/>
<path d="" fill="#000000" transform="translate(0,0)"/>
<path d="" fill="#000000" transform="translate(0,0)"/>
<path d="" fill="#000000" transform="translate(0,0)"/>
<path d="" fill="#003F3F" transform="translate(0,0)"/>
<path d="" fill="#000000" transform="translate(0,0)"/>
<path d="" fill="#007F7F" transform="translate(0,0)"/>
<path d="" fill="#000000" transform="translate(0,0)"/>
<path d="" fill="#000000" transform="translate(0,0)"/>
<path d="" fill="#000000" transform="translate(0,0)"/>
<path d="" fill="#000000" transform="translate(0,0)"/>
<path d="" fill="#555555" transform="translate(0,0)"/>
<path d="" fill="#555555" transform="translate(0,0)"/>
<path d="" fill="#000000" transform="translate(0,0)"/>
<path d="" fill="#000000" transform="translate(0,0)"/>
<path d="" fill="#000000" transform="translate(0,0)"/>
<path d="" fill="#000000" transform="translate(0,0)"/>
<path d="" fill="#000000" transform="translate(0,0)"/>
<path d="" fill="#000000" transform="translate(0,0)"/>
<path d="" fill="#000000" transform="translate(0,0)"/>
<path d="" fill="#000000" transform="translate(0,0)"/>
<path d="" fill="#000000" transform="translate(0,0)"/>
<path d="" fill="#000000" transform="translate(0,0)"/>
<path d="" fill="#000000" transform="translate(0,0)"/>
<path d="" fill="#000000" transform="translate(0,0)"/>
<path d="" fill="#000000" transform="translate(0,0)"/>
<path d="" fill="#000000" transform="translate(0,0)"/>
<path d="" fill="#000000" transform="translate(0,0)"/>
<path d="" fill="#000000" transform="translate(0,0)"/>
<path d="" fill="#000000" transform="translate(0,0)"/>
<path d="" fill="#000000" transform="translate(0,0)"/>
<path d="" fill="#000000" transform="translate(0,0)"/>
<path d="" fill="#000000" transform="translate(0,0)"/>
<path d="" fill="#000000" transform="translate(0,0)"/>
<path d="" fill="#000000" transform="translate(0,0)"/>
<path d="" fill="#000000" transform="translate(0,0)"/>
<path d="" fill="#000000" transform="translate(0,0)"/>
<path d="" fill="#000000" transform="translate(0,0)"/>
<path d="" fill="#000000" transform="translate(0,0)"/>
<path d="" fill="#000000" transform="translate(0,0)"/>
<path d="" fill="#000000" transform="translate(0,0)"/>
<path d="" fill="#000000" transform="translate(0,0)"/>
<path d="" fill="#000000" transform="translate(0,0)"/>
<path d="" fill="#000000" transform="translate(0,0)"/>
<path d="" fill="#000000" transform="translate(0,0)"/>
<path d="" fill="#000000" transform="translate(0,0)"/>
<path d="" fill="#000000" transform="translate(0,0)"/>
<path d="" fill="#000000" transform="translate(0,0)"/>
<path d="" fill="#000000" transform="translate(0,0)"/>
<path d="" fill="#000000" transform="translate(0,0)"/>
<path d="" fill="#000000" transform="translate(0,0)"/>
<path d="" fill="#000000" transform="translate(0,0)"/>
<path d="" fill="#000000" transform="translate(0,0)"/>
<path d="" fill="#000000" transform="translate(0,0)"/>
<path d="" fill="#000000" transform="translate(0,0)"/>
<path d="" fill="#000000" transform="translate(0,0)"/>
<path d="" fill="#000000" transform="translate(0,0)"/>
<path d="" fill="#000000" transform="translate(0,0)"/>
<path d="" fill="#000000" transform="translate(0,0)"/>
</svg>
