<?xml version="1.0" encoding="UTF-8"?>
<svg version="1.1" xmlns="http://www.w3.org/2000/svg" width="1024" height="1024">
<path d="M0 0 C2.90730343 0.28614957 5.74311681 0.4390986 8.6640625 0.3984375 C11.59765625 0.40234375 11.59765625 0.40234375 12.59765625 1.40234375 C14.10848751 1.67716104 15.6294136 1.89672358 17.15234375 2.09375 C52.46724869 6.93491519 87.5924864 15.43490664 120.42773438 29.47460938 C122.51477591 30.36690886 124.60965542 31.23779832 126.70703125 32.10546875 C137.33815219 36.56410118 147.48391836 41.88307407 157.59765625 47.40234375 C158.20786621 47.73314941 158.81807617 48.06395508 159.44677734 48.40478516 C175.96717103 57.41028082 191.95899133 67.5755045 206.59765625 79.40234375 C208.07523004 80.52943502 209.55429193 81.65457935 211.03515625 82.77734375 C223.89009707 92.81218787 237.28397998 103.69280473 247.74609375 116.2421875 C249.67410252 118.49153107 251.70096827 120.6302021 253.74414062 122.7746582 C280.7416784 151.29059362 307.77589408 193.94373349 313.59765625 233.40234375 C306.45510685 231.98304016 299.67117652 229.86687343 292.75445557 227.60522461 C278.3915487 222.9346646 263.87997444 219.03553406 249.22265625 215.40234375 C248.26886078 215.16532745 247.31506531 214.92831116 246.33236694 214.68411255 C243.58070427 214.00247647 240.82788437 213.32583954 238.07421875 212.65234375 C237.26488388 212.45378281 236.45554901 212.25522186 235.62168884 212.05064392 C225.53119299 209.28216073 225.53119299 209.28216073 215.23046875 208.68359375 C214.36164062 208.59078125 213.4928125 208.49796875 212.59765625 208.40234375 C210.87033738 206.20048673 209.72327921 204.35875144 208.47265625 201.90234375 C203.97234337 193.76505926 198.68961242 186.48902633 192.97314453 179.16845703 C191.80054086 177.66284557 190.64809667 176.14156911 189.5 174.6171875 C178.2065946 160.09067996 164.41591299 147.24719339 149.59765625 136.40234375 C148.29134576 135.41188143 146.98537423 134.42097195 145.6796875 133.4296875 C77.46464956 82.2988296 -15.09695049 65.03418657 -98.45776367 76.66796875 C-146.70169417 83.98290632 -196.35315666 99.80346116 -236.40234375 128.40234375 C-236.97227051 128.80388672 -237.54219727 129.20542969 -238.12939453 129.61914062 C-260.38616635 145.33536389 -280.98502924 163.80196225 -296.40234375 186.40234375 C-296.87027344 187.08409668 -297.33820313 187.76584961 -297.8203125 188.46826172 C-303.17048496 195.92517618 -303.17048496 195.92517618 -307.49072266 203.953125 C-310.36157515 207.63133601 -313.60517754 207.90022909 -318.046875 208.796875 C-319.35026825 209.08652885 -319.35026825 209.08652885 -320.67999268 209.3820343 C-322.54842317 209.79531064 -324.41888178 210.19950178 -326.29104614 210.59552002 C-331.21760871 211.63907279 -336.12881437 212.75134203 -341.04296875 213.8515625 C-342.02254044 214.06876953 -343.00211212 214.28597656 -344.0113678 214.50976562 C-364.97744445 219.1741907 -385.57516661 225.17438099 -406.03759766 231.68139648 C-408.14795846 232.32478854 -410.25676684 232.89064882 -412.40234375 233.40234375 C-411.1705468 226.01256761 -409.13006375 219.2080749 -406.46484375 212.21484375 C-405.87159302 210.65660889 -405.87159302 210.65660889 -405.26635742 209.06689453 C-397.67594849 189.52000374 -388.1560101 171.75333103 -376.40234375 154.40234375 C-375.9340918 153.70753906 -375.46583984 153.01273438 -374.98339844 152.296875 C-367.02301859 140.5732984 -357.84547267 129.95340156 -348.27734375 119.5234375 C-346.36758793 117.43707576 -346.36758793 117.43707576 -344.77734375 115.125 C-344.32359375 114.55652344 -343.86984375 113.98804688 -343.40234375 113.40234375 C-342.74234375 113.40234375 -342.08234375 113.40234375 -341.40234375 113.40234375 C-341.40234375 112.74234375 -341.40234375 112.08234375 -341.40234375 111.40234375 C-339.77731884 109.6614634 -338.13528206 108.03038933 -336.40234375 106.40234375 C-335.87463379 105.89751465 -335.34692383 105.39268555 -334.80322266 104.87255859 C-333.11742089 103.26696238 -331.41786775 101.67714698 -329.71484375 100.08984375 C-329.13412109 99.54005859 -328.55339844 98.99027344 -327.95507812 98.42382812 C-323.63385578 94.40234375 -323.63385578 94.40234375 -321.40234375 94.40234375 C-321.40234375 93.74234375 -321.40234375 93.08234375 -321.40234375 92.40234375 C-319.39713787 90.67445358 -317.38363401 89.06177512 -315.27734375 87.46484375 C-313.98148784 86.46781562 -312.68592273 85.47040944 -311.390625 84.47265625 C-310.72498535 83.96250977 -310.0593457 83.45236328 -309.37353516 82.92675781 C-307.52637198 81.49826056 -305.70082713 80.04735825 -303.8828125 78.58203125 C-256.46914622 40.43435004 -198.47953083 17.85809562 -139.40234375 5.40234375 C-138.5103125 5.2125293 -137.61828125 5.02271484 -136.69921875 4.82714844 C-135.37857422 4.55306152 -135.37857422 4.55306152 -134.03125 4.2734375 C-133.24177979 4.10900146 -132.45230957 3.94456543 -131.63891602 3.77514648 C-128.50714888 3.25312832 -125.56958096 3.26463778 -122.40234375 3.40234375 C-122.07234375 2.74234375 -121.74234375 2.08234375 -121.40234375 1.40234375 C-118.98046875 1.05859375 -118.98046875 1.05859375 -115.65234375 0.90234375 C-110.54059961 0.6146476 -105.47597559 0.21990784 -100.38598633 -0.32885742 C-67.17112444 -3.83538374 -33.22063859 -3.28085949 0 0 Z " fill="#000101" transform="translate(561.40234375,287.59765625)"/>
<path d="M0 0 C1.546875 1.3671875 1.546875 1.3671875 3.25 3.125 C4.09949219 3.91777344 4.94898438 4.71054687 5.82421875 5.52734375 C9.61627421 10.14859914 9.6541102 16.07510319 10.3125 21.8125 C12.19043228 37.43797479 16.2954406 52.29905311 29.09765625 62.5703125 C45.10759091 74.13465732 62.04700883 76.44155592 81.390625 76.4609375 C82.92698278 76.46738743 84.46333941 76.47411729 85.99969482 76.48110962 C89.20343873 76.49300289 92.40707546 76.49679872 95.61083984 76.49560547 C99.66948058 76.4954027 103.72741786 76.52269657 107.78589249 76.55714989 C110.95539359 76.57963979 114.12473125 76.58343635 117.29430389 76.58238602 C118.78829113 76.58470926 120.28228525 76.59334193 121.77619171 76.60905075 C140.68196076 76.78926685 158.21259662 72.55208149 172.25 59.125 C177.93199244 52.42050778 181.46568702 43.99592315 185.25 36.125 C186.87580966 36.23898665 188.50067157 36.36655659 190.125 36.5 C191.02992188 36.56960938 191.93484375 36.63921875 192.8671875 36.7109375 C195.25 37.125 195.25 37.125 197.25 39.125 C199.34981589 39.93882015 199.34981589 39.93882015 201.79296875 40.59765625 C202.70240234 40.85740234 203.61183594 41.11714844 204.54882812 41.38476562 C205.9787207 41.78211914 205.9787207 41.78211914 207.4375 42.1875 C208.37142578 42.45626953 209.30535156 42.72503906 210.26757812 43.00195312 C214.29260645 44.13779856 218.20388301 45.19806502 222.36328125 45.68359375 C223.31589844 45.82925781 224.26851562 45.97492187 225.25 46.125 C225.58 46.785 225.91 47.445 226.25 48.125 C227.24 48.125 228.23 48.125 229.25 48.125 C230.24 48.785 231.23 49.445 232.25 50.125 C233.7564018 50.68620851 235.27907729 51.20498972 236.8125 51.6875 C241.03571806 53.02589259 244.45378363 54.82729009 248.25 57.125 C244.86633962 82.07949533 226.75472314 105.20210869 207.28027344 120.1184082 C190.4169778 132.45430682 170.64071923 138.66021648 150.25 142.125 C149.23164062 142.30417969 148.21328125 142.48335937 147.1640625 142.66796875 C141.34915104 143.34695542 135.53675405 143.5078819 129.6875 143.6875 C129.02393494 143.70801422 128.36036987 143.72852844 127.67669678 143.74966431 C25.78485903 146.81560974 25.78485903 146.81560974 -7.75 119.125 C-9.20756214 118.01981552 -10.665933 116.915697 -12.125 115.8125 C-28.66962394 102.78077567 -42.80997511 85.89871582 -50.75 66.125 C-50.75 65.135 -50.75 64.145 -50.75 63.125 C-51.41 62.795 -52.07 62.465 -52.75 62.125 C-53.51692309 59.6624579 -54.1635679 57.25608091 -54.75 54.75 C-54.9975 53.75033203 -54.9975 53.75033203 -55.25 52.73046875 C-55.78132567 50.53459938 -56.27150859 48.33297846 -56.75 46.125 C-56.93457764 45.29750244 -57.11915527 44.47000488 -57.30932617 43.61743164 C-58.83498107 36.16375154 -59.09651815 28.90679516 -59.0625 21.3125 C-59.05839111 19.46615967 -59.05839111 19.46615967 -59.05419922 17.58251953 C-58.80770325 -3.81729675 -58.80770325 -3.81729675 -53.75 -8.875 C-36.41121899 -12.75580046 -14.26454927 -11.74908036 0 0 Z M1.25 45.125 C2.25 47.125 2.25 47.125 2.25 47.125 Z M2.25 47.125 C2.81545837 51.08320859 4.05902348 53.7909053 6.25 57.125 C6.91 56.795 7.57 56.465 8.25 56.125 C6.6 53.155 4.95 50.185 3.25 47.125 C2.92 47.125 2.59 47.125 2.25 47.125 Z M8.25 57.125 C8.25 62.60347786 12.25092059 66.27702434 15.875 70.0625 C23.2216625 77.21727207 31.64546203 82.55121843 41.25 86.125 C41.88550781 86.3621875 42.52101563 86.599375 43.17578125 86.84375 C52.22050853 90.05679699 61.43582534 91.40510104 71 91.75 C71.94174072 91.78722168 72.88348145 91.82444336 73.85375977 91.86279297 C83.96201269 92.20448483 94.07449694 92.23154824 104.1875 92.25 C105.01221802 92.25267883 105.83693604 92.25535767 106.68664551 92.25811768 C130.17883919 92.31593994 154.31930071 92.17035107 173.25 76.125 C172.92 75.135 172.59 74.145 172.25 73.125 C171.51394531 73.53492188 170.77789063 73.94484375 170.01953125 74.3671875 C169.04371094 74.90601563 168.06789063 75.44484375 167.0625 76 C166.09957031 76.53367187 165.13664063 77.06734375 164.14453125 77.6171875 C159.8380709 79.86049883 155.55254372 81.40754176 150.875 82.6875 C149.98039063 82.93628906 149.08578125 83.18507813 148.1640625 83.44140625 C142.44951483 84.78195028 136.8841755 85.25360173 131.02392578 85.28613281 C129.99533699 85.29358017 129.99533699 85.29358017 128.94596863 85.30117798 C126.69573932 85.31567986 124.44558072 85.32258492 122.1953125 85.328125 C121.02870401 85.33236607 121.02870401 85.33236607 119.83852768 85.33669281 C115.71461403 85.35164424 111.59073492 85.36089662 107.46679688 85.36523438 C103.25692156 85.37068301 99.04737557 85.39464554 94.83760262 85.42320633 C91.55826982 85.44206109 88.27901233 85.44705047 84.99962997 85.44857025 C83.45065404 85.45155113 81.9016779 85.4594198 80.3527565 85.47275543 C55.31846732 85.67273771 31.76541105 80.11638998 13.25 62.125 C12.7240625 61.61453125 12.198125 61.1040625 11.65625 60.578125 C10.50662517 59.44127378 9.37553412 58.28570706 8.25 57.125 Z M183.25 62.125 C184.25 64.125 184.25 64.125 184.25 64.125 Z M180.25 66.125 C179.92 66.785 179.59 67.445 179.25 68.125 C179.91 68.125 180.57 68.125 181.25 68.125 C180.92 67.465 180.59 66.805 180.25 66.125 Z M178.25 68.125 C179.25 70.125 179.25 70.125 179.25 70.125 Z " fill="#0C7ECF" transform="translate(492.75,490.875)"/>
<path d="M0 0 C0.33 0.66 0.66 1.32 1 2 C1.66 2 2.32 2 3 2 C3.33 1.34 3.66 0.68 4 0 C4 0.66 4 1.32 4 2 C4.64582031 1.95359375 5.29164063 1.9071875 5.95703125 1.859375 C31.18705401 0.89297194 57.51030558 12.25187806 76 29 C76.87269531 29.75410156 77.74539063 30.50820313 78.64453125 31.28515625 C83.79534891 35.78729522 88.96878883 40.43372498 93 46 C93 46.66 93 47.32 93 48 C93.66 48 94.32 48 95 48 C97.67474703 51.43049273 99.80434528 55.25010636 102 59 C102.36609375 59.62148926 102.7321875 60.24297852 103.109375 60.88330078 C109.44112729 71.78768411 113.90160023 82.7768129 117 95 C117.17789062 95.69577148 117.35578125 96.39154297 117.5390625 97.10839844 C120.95538383 111.26850806 123.28654934 132.88187607 119 147 C96.05868095 146.27684973 75.06684275 143.34831583 56.31640625 128.9375 C53.0045997 124.73770484 52.70701124 120.70565532 52 115.5 C49.77078617 101.61962532 46.14749794 91.0089074 37 80 C36.47921875 79.35417969 35.9584375 78.70835937 35.421875 78.04296875 C26.25440528 67.78744075 11.30833857 61.92041081 -2 60 C-4.19625274 59.89784846 -6.39496196 59.84212263 -8.59350586 59.82299805 C-9.88602768 59.81016281 -11.1785495 59.79732758 -12.51023865 59.78410339 C-13.91176971 59.77592956 -15.3133052 59.76848707 -16.71484375 59.76171875 C-17.42980074 59.75764322 -18.14475773 59.7535677 -18.88138008 59.74936867 C-22.67230049 59.72856236 -26.46318539 59.7142422 -30.25415039 59.70483398 C-34.12694897 59.69383344 -37.99916288 59.65949277 -41.87175655 59.61966228 C-44.88593952 59.59322688 -47.8999894 59.58511824 -50.91427803 59.58155251 C-52.33932975 59.57674871 -53.76437813 59.56531771 -55.18931389 59.54651451 C-72.66155088 59.330443 -88.8549653 63.43196877 -102.125 75.375 C-102.80820312 76.04273438 -103.49140625 76.71046875 -104.1953125 77.3984375 C-107.29316123 80.14761061 -110.38966327 80.17622243 -114.36328125 80.39453125 C-115.46317383 80.4608374 -116.56306641 80.52714355 -117.69628906 80.59545898 C-118.88963867 80.66708252 -120.08298828 80.73870605 -121.3125 80.8125 C-142.01756438 82.17439113 -162.68535946 84.71640168 -183 89 C-180.83505527 70.6200611 -169.61239177 53.80201649 -158 40 C-157.5565625 39.41089844 -157.113125 38.82179688 -156.65625 38.21484375 C-141.07677522 18.12302109 -112.52763158 5.6877191 -87.89382935 2.40615845 C-77.26529999 1.13929696 -66.75118786 0.66558432 -56.0546875 0.5859375 C-54.42130637 0.56715455 -52.78793421 0.54757635 -51.15457153 0.5272522 C-46.92325215 0.47667543 -42.69190155 0.4366596 -38.46044922 0.39910889 C-34.11548627 0.35859283 -29.77064465 0.30772186 -25.42578125 0.2578125 C-16.9506048 0.16193919 -8.4753665 0.07726134 0 0 Z " fill="#32ADF0" transform="translate(466,409)"/>
<path d="M0 0 C0.21914063 0.53367187 0.43828125 1.06734375 0.6640625 1.6171875 C5.40856051 12.76482917 11.09110242 23.05905614 21.5625 29.625 C22.1702124 30.01107422 22.7779248 30.39714844 23.40405273 30.79492188 C28.95798953 34.19850494 34.67627477 36.41671261 41 38 C41.7321875 38.18433594 42.464375 38.36867188 43.21875 38.55859375 C47.44207268 39.22886828 51.66871282 39.3787356 55.9375 39.5625 C56.89374268 39.60858398 57.84998535 39.65466797 58.83520508 39.70214844 C63.97911259 39.92537699 69.08660996 40.01225424 74.234375 39.88671875 C75.23218994 39.86601318 76.23000488 39.84530762 77.25805664 39.82397461 C79.18241103 39.77538061 81.10636501 39.70523701 83.02905273 39.61157227 C85.44133676 39.55243125 87.62914026 39.55207153 90 40 C91.87890625 42.0390625 91.87890625 42.0390625 93 45 C93.58843128 46.20571555 94.18826056 47.40590794 94.796875 48.6015625 C95.44791797 49.9427077 96.09895959 51.28385356 96.75 52.625 C102.10091901 63.91186327 102.10091901 63.91186327 109.69921875 73.66796875 C111 75 111 75 111 77 C111.66 77 112.32 77 113 77 C114.33934783 78.66183722 115.67156419 80.32942709 117 82 C125.68713336 89.69070934 135.70201735 94.83880727 146 100 C130.63332444 110.24445037 102.01290997 106.8517456 84 107 C82.45621672 107.01522573 80.91243416 107.03052528 79.36865234 107.04589844 C74.84995894 107.08771164 70.33135882 107.11102899 65.8125 107.125 C65.12746399 107.12786011 64.44242798 107.13072021 63.7366333 107.13366699 C50.55011495 107.17272635 37.14478575 107.07705959 24.1875 104.375 C23.3612915 104.20532715 22.53508301 104.0356543 21.68383789 103.86083984 C-7.67592048 97.42925693 -34.21119091 80.57043529 -50.6875 55.125 C-65.58107467 31.47106306 -65.58107467 31.47106306 -64.80322266 21.4699707 C-64 19 -64 19 -62.15600586 17.71728516 C-61.35042236 17.41097168 -60.54483887 17.1046582 -59.71484375 16.7890625 C-58.34743042 16.25756592 -58.34743042 16.25756592 -56.95239258 15.71533203 C-55.95747803 15.35552246 -54.96256348 14.99571289 -53.9375 14.625 C-52.40355591 14.04854736 -52.40355591 14.04854736 -50.83862305 13.46044922 C-39.74172594 9.37865704 -28.42150024 6.04077632 -17 3 C-15.41711182 2.57412598 -15.41711182 2.57412598 -13.80224609 2.13964844 C-12.74730957 1.86411133 -11.69237305 1.58857422 -10.60546875 1.3046875 C-9.6518042 1.05444824 -8.69813965 0.80420898 -7.71557617 0.54638672 C-5.06235294 0.0125457 -2.6975584 -0.10232646 0 0 Z " fill="#00338A" transform="translate(348,528)"/>
<path d="M0 0 C3.81872506 0.00537573 7.63733308 0.0000071 11.45605469 -0.00634766 C22.79525002 -0.01073739 34.1282524 0.05784534 45.45996094 0.49755859 C46.32033966 0.52582733 47.18071838 0.55409607 48.06716919 0.58322144 C56.57164989 0.97435217 64.23088588 3.25423342 72.19042969 6.13037109 C73.30417969 6.50162109 74.41792969 6.87287109 75.56542969 7.25537109 C88.68664815 11.88638937 100.7589963 18.94077501 111.19042969 28.13037109 C112.03089844 28.83935547 112.87136719 29.54833984 113.73730469 30.27880859 C130.25028125 44.54001563 141.20166303 64.28678657 147.19042969 85.13037109 C147.19042969 85.79037109 147.19042969 86.45037109 147.19042969 87.13037109 C139.84676058 86.50617439 132.64107066 85.4263744 125.37792969 84.19287109 C112.1150365 82.01603945 98.84375017 80.28441781 85.39355469 79.96630859 C83.96221191 79.92606567 83.96221191 79.92606567 82.50195312 79.88500977 C80.67748639 79.84144183 78.85232723 79.8194846 77.02734375 79.82299805 C72.64330164 79.72468766 70.79287356 79.62011012 67.28808594 76.77099609 C66.59585938 75.89958984 65.90363281 75.02818359 65.19042969 74.13037109 C51.43373118 60.4409425 34.00609669 58.69835316 15.62792969 58.44287109 C13.97360728 58.40961268 12.31930929 58.37511553 10.66503906 58.33935547 C5.50714514 58.23217123 0.34960262 58.13037109 -4.80957031 58.13037109 C-8.98815636 57.31136823 -10.44866117 56.64132855 -12.94238281 53.11083984 C-13.61901814 51.85320076 -14.28241022 50.5883744 -14.93457031 49.31787109 C-19.49571141 41.10603194 -25.151533 34.70587076 -31.80957031 28.13037109 C-32.49792969 27.44330078 -33.18628906 26.75623047 -33.89550781 26.04833984 C-42.18074472 18.30496443 -52.6115403 12.91861092 -62.80957031 8.13037109 C-63.13957031 9.12037109 -63.46957031 10.11037109 -63.80957031 11.13037109 C-63.80957031 9.81037109 -63.80957031 8.49037109 -63.80957031 7.13037109 C-65.12957031 6.47037109 -66.44957031 5.81037109 -67.80957031 5.13037109 C-65.93534879 4.64816847 -64.06015277 4.16975277 -62.18457031 3.69287109 C-60.61835937 3.29261719 -60.61835937 3.29261719 -59.02050781 2.88427734 C-52.42975012 1.33681234 -46.030609 0.84223657 -39.28613281 0.57568359 C-38.24099518 0.533638 -37.19585754 0.49159241 -36.11904907 0.44827271 C-24.08112624 0.00786763 -12.04465045 -0.02011051 0 0 Z " fill="#0079CE" transform="translate(593.8095703125,409.86962890625)"/>
<path d="M0 0 C55.34938903 -0.43119109 55.34938903 -0.43119109 82 2 C83.50840955 2.13083229 85.01687593 2.2610106 86.52539062 2.390625 C120.18175157 5.30815901 153.53947749 9.60088051 186.44433594 17.37207031 C193.29312772 18.9872732 199.97244361 20.45821074 207 21 C207 21.66 207 22.32 207 23 C207.56162842 23.09361816 208.12325684 23.18723633 208.7019043 23.28369141 C216.29787027 24.66533006 223.50014748 26.92401219 230.8125 29.375 C231.45341583 29.58876282 232.09433167 29.80252563 232.75466919 30.02276611 C242.96669626 33.44372199 252.98927881 37.25175263 262.9375 41.375 C264.747948 42.12402588 264.747948 42.12402588 266.5949707 42.88818359 C272.28625889 45.28873406 277.73427875 47.76545216 283 51 C281.29516731 54.40966539 277.31636661 55.19375137 273.9375 56.625 C267.70748956 59.32512733 261.56116091 62.12613735 255.5 65.1875 C254.8414502 65.5182251 254.18290039 65.8489502 253.50439453 66.18969727 C250.63290434 67.63924411 247.78565549 69.11611474 244.95703125 70.6484375 C244.08433594 71.11507812 243.21164062 71.58171875 242.3125 72.0625 C241.58675781 72.46597656 240.86101562 72.86945313 240.11328125 73.28515625 C237.2947664 74.23855406 235.82731254 73.90115249 233 73 C231.0686258 71.98137894 229.17702087 70.88637892 227.3125 69.75 C163.56339165 32.24178336 87.99892192 12.84032481 15 4 C13.22247427 3.77486973 11.44511478 3.54842075 9.66796875 3.3203125 C6.11363215 2.86601552 2.55788044 2.42582506 -1 2 C-0.67 1.34 -0.34 0.68 0 0 Z " fill="#040708" transform="translate(598,502)"/>
<path d="M0 0 C2.17317603 0.00503275 4.34635322 0.00959247 6.51953125 0.01367188 C11.76305004 0.02451909 17.00651171 0.04168234 22.25 0.0625 C21.92 0.7225 21.59 1.3825 21.25 2.0625 C18.61471146 2.58320762 16.03616005 2.97318227 13.375 3.3125 C-61.43181543 13.76742842 -142.9480275 31.52785167 -206.75 74.0625 C-210.79179757 73.70628387 -214.04396235 72.11232633 -217.65234375 70.33203125 C-218.78422119 69.77862061 -219.91609863 69.22520996 -221.08227539 68.6550293 C-221.67219269 68.36365082 -222.26210999 68.07227234 -222.86990356 67.77206421 C-238.23773561 58.70078473 -238.23773561 58.70078473 -254.75 54.0625 C-255.245 52.5775 -255.245 52.5775 -255.75 51.0625 C-197.43600172 19.01275921 -126.56031879 7.9639106 -61.0625 2.3125 C-60.37662811 2.25324341 -59.69075623 2.19398682 -58.98410034 2.13293457 C-39.31447705 0.46399323 -19.73716034 -0.08080253 0 0 Z " fill="#040607" transform="translate(398.75,501.9375)"/>
<path d="M0 0 C1.71292679 -0.00135005 3.4258532 -0.0032934 5.13877869 -0.00579834 C8.71340617 -0.00873283 12.28793311 -0.00450569 15.86254883 0.00488281 C20.42393769 0.01628501 24.98509131 0.00970234 29.5464716 -0.00226212 C33.07854457 -0.00951876 36.61056255 -0.00717553 40.14263725 -0.00200653 C41.82380642 -0.00068099 43.50498072 -0.00227895 45.18614388 -0.00696564 C53.43790744 -0.02492944 61.27886379 -0.04153483 69.27734375 2.265625 C70.30601562 2.54921875 71.3346875 2.8328125 72.39453125 3.125 C91.94585496 9.43902522 106.92278484 22.36631663 116.40234375 40.640625 C121.5926042 51.09060194 124.68764872 62.40264351 127.31640625 73.734375 C127.96982768 77.2891933 127.96982768 77.2891933 130.27734375 79.265625 C129.94734375 79.925625 129.61734375 80.585625 129.27734375 81.265625 C135.14008519 88.31296146 147.954896 88.95038121 156.46484375 89.9609375 C162.41083865 90.43612972 168.31400525 90.43101806 174.27734375 90.265625 C174.27734375 90.925625 174.27734375 91.585625 174.27734375 92.265625 C147.16930095 93.10219368 147.16930095 93.10219368 134.27734375 88.265625 C133.43558594 87.95367188 132.59382812 87.64171875 131.7265625 87.3203125 C124.00406459 84.14595239 115.48255902 79.89441425 110.27734375 73.265625 C109.2241505 69.81809774 108.76166616 66.33164403 108.27734375 62.765625 C106.04812992 48.88525032 102.42484169 38.2745324 93.27734375 27.265625 C92.49617188 26.29689453 92.49617188 26.29689453 91.69921875 25.30859375 C82.53174903 15.05306575 67.58568232 9.18603581 54.27734375 7.265625 C52.08109101 7.16347346 49.88238179 7.10774763 47.68383789 7.08862305 C46.39131607 7.07578781 45.09879425 7.06295258 43.7671051 7.04972839 C42.36557404 7.04155456 40.96403855 7.03411207 39.5625 7.02734375 C38.84754301 7.02326822 38.13258602 7.0191927 37.39596367 7.01499367 C33.60504326 6.99418736 29.81415836 6.9798672 26.02319336 6.97045898 C22.15039478 6.95945844 18.27818087 6.92511777 14.4055872 6.88528728 C11.39140423 6.85885188 8.37735435 6.85074324 5.36306572 6.84717751 C3.938014 6.84237371 2.51296562 6.83094271 1.08802986 6.81213951 C-14.3294096 6.62147878 -31.41961276 9.44164189 -43.07421875 20.49609375 C-44.13769531 21.58857422 -44.13769531 21.58857422 -45.22265625 22.703125 C-48.98190555 26.34994816 -51.57842674 26.77124175 -56.78515625 26.765625 C-58.76725429 26.63848011 -60.74866963 26.48529585 -62.72265625 26.265625 C-55.56328355 16.85616374 -46.29553157 10.01729204 -35.53515625 5.265625 C-34.90689941 4.9871875 -34.27864258 4.70875 -33.63134766 4.421875 C-22.71245797 -0.09356142 -11.61993991 -0.0324389 0 0 Z " fill="#023184" transform="translate(409.72265625,461.734375)"/>
<path d="M0 0 C1.65 0 3.3 0 5 0 C5.32871094 0.80050781 5.32871094 0.80050781 5.6640625 1.6171875 C10.40856051 12.76482917 16.09110242 23.05905614 26.5625 29.625 C27.1702124 30.01107422 27.7779248 30.39714844 28.40405273 30.79492188 C33.95798953 34.19850494 39.67627477 36.41671261 46 38 C46.7321875 38.18433594 47.464375 38.36867188 48.21875 38.55859375 C52.44207268 39.22886828 56.66871282 39.3787356 60.9375 39.5625 C61.89374268 39.60858398 62.84998535 39.65466797 63.83520508 39.70214844 C68.97911259 39.92537699 74.08660996 40.01225424 79.234375 39.88671875 C80.23218994 39.86601318 81.23000488 39.84530762 82.25805664 39.82397461 C84.18241103 39.77538061 86.10636501 39.70523701 88.02905273 39.61157227 C90.44705659 39.55229102 92.62583765 39.53853809 95 40 C97.17578125 42.265625 97.17578125 42.265625 98 45 C97.55151367 47.17089844 97.55151367 47.17089844 97 49 C90.50792842 49.05108629 84.01590948 49.08589434 77.52368164 49.10986328 C75.31923485 49.11986516 73.11480114 49.13347099 70.91040039 49.15087891 C67.72539016 49.17538453 64.5405567 49.18654155 61.35546875 49.1953125 C60.38417526 49.20563507 59.41288177 49.21595764 58.41215515 49.22659302 C41.31068844 49.22934087 24.89960692 43.74081028 12.25 31.875 C5.40548762 24.59492774 -3 13.38472639 -3 3 C-1.68 3 -0.36 3 1 3 C0.67 2.01 0.34 1.02 0 0 Z " fill="#1972BF" transform="translate(343,528)"/>
<path d="M0 0 C1.546875 1.3671875 1.546875 1.3671875 3.25 3.125 C4.09949219 3.91777344 4.94898438 4.71054687 5.82421875 5.52734375 C9.61627421 10.14859914 9.6541102 16.07510319 10.3125 21.8125 C12.19334629 37.46222104 16.30878784 52.22111221 29.0625 62.55859375 C33.80879237 65.95727811 38.68960175 69.27153392 44.25 71.125 C44.25 71.785 44.25 72.445 44.25 73.125 C33.88431256 72.11485055 24.67432134 63.49066221 18.18359375 55.78515625 C10.75794699 45.56926647 7.43042348 34.44373385 6.8125 21.9375 C6.49449595 16.07713965 5.58856129 11.05225598 2.25 6.125 C1.26 5.465 0.27 4.805 -0.75 4.125 C-0.75 3.465 -0.75 2.805 -0.75 2.125 C-3.80050531 0.88573222 -6.86410243 -0.31878527 -9.9375 -1.5 C-10.61167969 -1.76039063 -11.28585937 -2.02078125 -11.98046875 -2.2890625 C-13.75576701 -2.97978036 -13.75576701 -2.97978036 -15.75 -2.875 C-15.75 -3.535 -15.75 -4.195 -15.75 -4.875 C-24.81046803 -6.56066847 -33.53525035 -7.35181617 -42.75 -6.875 C-43.66652344 -6.82988281 -44.58304687 -6.78476562 -45.52734375 -6.73828125 C-47.95463953 -6.43536103 -49.63754199 -6.10767001 -51.75 -4.875 C-55.3283592 0.34393584 -55.20755774 7.41427837 -55.5390625 13.5234375 C-55.75 16.125 -55.75 16.125 -56.75 19.125 C-56.09 19.455 -55.43 19.785 -54.75 20.125 C-55.08 20.455 -55.41 20.785 -55.75 21.125 C-56.05523962 25.77588715 -56.05523962 25.77588715 -54.75 30.125 C-54.54366083 32.22564735 -54.38359614 34.33097509 -54.25 36.4375 C-53.81515113 43.56991954 -53.81515113 43.56991954 -51.8125 50.375 C-50.88763866 52.76875877 -50.40376548 54.80962208 -49.9375 57.3125 C-48.56827763 63.85190604 -45.43334011 69.59998984 -41.75 75.125 C-41.75 76.115 -41.75 77.105 -41.75 78.125 C-41.09 78.455 -40.43 78.785 -39.75 79.125 C-39.75 80.115 -39.75 81.105 -39.75 82.125 C-39.09 82.125 -38.43 82.125 -37.75 82.125 C-37.52828125 82.61226562 -37.3065625 83.09953125 -37.078125 83.6015625 C-25.07238727 107.52603986 -0.88021282 122.68684636 23.25 132.125 C23.96027344 132.42921875 24.67054688 132.7334375 25.40234375 133.046875 C30.8345293 135.29784406 36.51191569 136.28705469 42.2734375 137.37890625 C45.25 138.125 45.25 138.125 47.25 140.125 C41.41493872 140.42882829 36.62675833 139.39957949 31.0625 137.6875 C30.20043945 137.42453125 29.33837891 137.1615625 28.45019531 136.890625 C21.96821081 134.83404462 15.71433395 132.38244635 9.5 129.625 C8.69151611 129.26994385 7.88303223 128.9148877 7.05004883 128.54907227 C1.56063384 126.02221683 -3.04129771 122.89329197 -7.75 119.125 C-8.54148437 118.53074219 -9.33296875 117.93648437 -10.1484375 117.32421875 C-27.58484507 103.9884683 -42.4647243 86.75852313 -50.75 66.125 C-50.75 65.135 -50.75 64.145 -50.75 63.125 C-51.41 62.795 -52.07 62.465 -52.75 62.125 C-53.51692309 59.6624579 -54.1635679 57.25608091 -54.75 54.75 C-54.9975 53.75033203 -54.9975 53.75033203 -55.25 52.73046875 C-55.78132567 50.53459938 -56.27150859 48.33297846 -56.75 46.125 C-56.93457764 45.29750244 -57.11915527 44.47000488 -57.30932617 43.61743164 C-58.83498107 36.16375154 -59.09651815 28.90679516 -59.0625 21.3125 C-59.05839111 19.46615967 -59.05839111 19.46615967 -59.05419922 17.58251953 C-58.80770325 -3.81729675 -58.80770325 -3.81729675 -53.75 -8.875 C-36.41121899 -12.75580046 -14.26454927 -11.74908036 0 0 Z " fill="#092C79" transform="translate(492.75,490.875)"/>
<path d="M0 0 C1.72730056 -0.00134935 3.45460075 -0.00329213 5.18190002 -0.00579834 C8.78170427 -0.00873138 12.38140861 -0.00450721 15.98120117 0.00488281 C20.59698804 0.01633663 25.2125438 0.00966916 29.82832241 -0.00226212 C33.38588718 -0.00947882 36.94339681 -0.00719471 40.50096321 -0.00200653 C42.20383799 -0.00067262 43.90671778 -0.00230872 45.60958672 -0.00696564 C47.9813155 -0.01203433 50.3526648 -0.00431875 52.72436523 0.00683594 C53.42722656 0.00278748 54.13008789 -0.00126099 54.85424805 -0.00543213 C58.4896887 0.02630681 59.95027445 0.1882038 63.06640625 2.265625 C46.89640625 2.265625 30.72640625 2.265625 14.06640625 2.265625 C24.98547781 2.55427273 24.98547781 2.55427273 35.90478516 2.83374023 C37.28418885 2.87190337 38.66358403 2.91037584 40.04296875 2.94921875 C41.09810669 2.9739325 41.09810669 2.9739325 42.17456055 2.99914551 C46.22115519 3.11757896 50.09069957 3.50148439 54.06640625 4.265625 C54.06640625 4.595625 54.06640625 4.925625 54.06640625 5.265625 C53.30458038 5.26705002 52.54275452 5.26847504 51.75784302 5.26994324 C44.49334081 5.28795161 37.22952998 5.33008153 29.96533394 5.39771557 C26.23283357 5.43165939 22.50072826 5.45704366 18.76806641 5.46118164 C-14.57199275 5.16980024 -14.57199275 5.16980024 -43.2734375 20.4921875 C-44.34271484 21.58660156 -44.34271484 21.58660156 -45.43359375 22.703125 C-49.19284305 26.34994816 -51.78936424 26.77124175 -56.99609375 26.765625 C-58.97819179 26.63848011 -60.95960713 26.48529585 -62.93359375 26.265625 C-55.77422105 16.85616374 -46.50646907 10.01729204 -35.74609375 5.265625 C-35.11783691 4.9871875 -34.48958008 4.70875 -33.84228516 4.421875 C-22.85792246 -0.12063736 -11.688907 -0.03227513 0 0 Z " fill="#022F83" transform="translate(409.93359375,461.734375)"/>
<path d="M0 0 C6.47371743 -0.07671463 12.94731557 -0.12887575 19.42138672 -0.16479492 C21.61902243 -0.1797854 23.81662871 -0.20018466 26.01416016 -0.22631836 C49.32322473 -0.49636886 49.32322473 -0.49636886 59 3 C60.65322266 3.52980469 60.65322266 3.52980469 62.33984375 4.0703125 C73.64696993 8.66117576 84.08002043 15.62044715 92 25 C92 25.33 92 25.66 92 26 C78.71083897 27.23142805 78.71083897 27.23142805 74.8671875 24.46484375 C73.80046777 23.07381978 72.76390924 21.65929857 71.75390625 20.2265625 C64.47618876 10.9875893 50.14366219 7.68772905 39 6 C31.01950764 5.24198098 23.01282755 5.05246555 15 5 C15 4.67 15 4.34 15 4 C10.05 3.67 5.1 3.34 0 3 C0 2.01 0 1.02 0 0 Z " fill="#012C7E" transform="translate(585,462)"/>
<path d="M0 0 C3.81872506 0.00537573 7.63733308 0.0000071 11.45605469 -0.00634766 C22.79525002 -0.01073739 34.1282524 0.05784534 45.45996094 0.49755859 C46.32033966 0.52582733 47.18071838 0.55409607 48.06716919 0.58322144 C56.56133476 0.97387777 64.24590751 3.23249837 72.19042969 6.13037109 C73.38539063 6.54802734 74.58035156 6.96568359 75.81152344 7.39599609 C82.28547529 9.76104671 88.29850289 12.55258609 94.19042969 16.13037109 C93.53042969 16.46037109 92.87042969 16.79037109 92.19042969 17.13037109 C90.26099505 16.33219129 88.37096691 15.43824085 86.50292969 14.50537109 C68.0412361 5.75180681 50.27779066 2.64958687 30.06152344 2.80224609 C28.25562194 2.80531503 26.44971804 2.8071825 24.64381409 2.80792236 C20.88460012 2.81248866 17.12560474 2.82676986 13.36645508 2.84912109 C8.58715678 2.87742024 3.80802922 2.88834001 -0.97134495 2.89280319 C-5.58541001 2.89799742 -10.19943401 2.91249094 -14.81347656 2.92724609 C-15.67249636 2.92912682 -16.53151615 2.93100754 -17.41656685 2.93294525 C-33.87020653 2.46131701 -33.87020653 2.46131701 -50.00099182 4.72723389 C-51.80957031 5.13037109 -51.80957031 5.13037109 -54.80957031 4.13037109 C-54.80957031 5.45037109 -54.80957031 6.77037109 -54.80957031 8.13037109 C-54.00132812 8.50548828 -53.19308594 8.88060547 -52.36035156 9.26708984 C-46.636092 12.00838182 -42.09421546 14.35605222 -37.80957031 19.13037109 C-36.69965946 19.92277688 -35.57311235 20.69218404 -34.43457031 21.44287109 C-30.82785293 23.92592707 -28.18561984 26.92092335 -25.38769531 30.26708984 C-23.73446373 32.27919104 -23.73446373 32.27919104 -21.37207031 34.50537109 C-19.80957031 36.13037109 -19.80957031 36.13037109 -19.80957031 38.13037109 C-19.14957031 38.13037109 -18.48957031 38.13037109 -17.80957031 38.13037109 C-17.37386719 39.04560547 -16.93816406 39.96083984 -16.48925781 40.90380859 C-15.88873675 42.10485071 -15.28711588 43.30534336 -14.68457031 44.50537109 C-14.10449219 45.68873047 -13.52441406 46.87208984 -12.92675781 48.09130859 C-10.47272987 51.61388007 -8.9346722 52.25393302 -4.80957031 53.13037109 C-4.80957031 53.46037109 -4.80957031 53.79037109 -4.80957031 54.13037109 C-0.84957031 54.46037109 3.11042969 54.79037109 7.19042969 55.13037109 C7.19042969 55.46037109 7.19042969 55.79037109 7.19042969 56.13037109 C14.78042969 56.46037109 22.37042969 56.79037109 30.19042969 57.13037109 C30.19042969 57.46037109 30.19042969 57.79037109 30.19042969 58.13037109 C-6.502721 58.13037109 -6.502721 58.13037109 -10.80957031 56.13037109 C-12.42472634 53.84371246 -13.67012212 51.78120123 -14.93457031 49.31787109 C-19.49571141 41.10603194 -25.151533 34.70587076 -31.80957031 28.13037109 C-32.49792969 27.44330078 -33.18628906 26.75623047 -33.89550781 26.04833984 C-42.18074472 18.30496443 -52.6115403 12.91861092 -62.80957031 8.13037109 C-63.13957031 9.12037109 -63.46957031 10.11037109 -63.80957031 11.13037109 C-63.80957031 9.81037109 -63.80957031 8.49037109 -63.80957031 7.13037109 C-65.12957031 6.47037109 -66.44957031 5.81037109 -67.80957031 5.13037109 C-65.93534879 4.64816847 -64.06015277 4.16975277 -62.18457031 3.69287109 C-60.61835937 3.29261719 -60.61835937 3.29261719 -59.02050781 2.88427734 C-52.42975012 1.33681234 -46.030609 0.84223657 -39.28613281 0.57568359 C-38.24099518 0.533638 -37.19585754 0.49159241 -36.11904907 0.44827271 C-24.08112624 0.00786763 -12.04465045 -0.02011051 0 0 Z " fill="#0B60AD" transform="translate(593.8095703125,409.86962890625)"/>
<path d="M0 0 C-10.47293093 5.77551338 -10.47293093 5.77551338 -15.5625 8.25 C-18.96550897 9.75927889 -18.96550897 9.75927889 -21 12 C-22.6560776 13.03792363 -24.32470239 14.05589362 -26 15.0625 C-31.20608793 18.31373278 -35.58003132 22.03750202 -40.00390625 26.27734375 C-42 28 -42 28 -44 28 C-44.05414063 28.53753906 -44.10828125 29.07507813 -44.1640625 29.62890625 C-45.38830412 33.10140467 -47.85405888 35.34868739 -50.375 37.9375 C-56.13516207 43.90016777 -59.31168934 49.40021713 -62.0625 57.125 C-64.73906706 64.60860058 -64.73906706 64.60860058 -67 68 C-67.39013716 69.9896995 -67.73202649 71.99019869 -68 74 C-67.360625 73.814375 -66.72125 73.62875 -66.0625 73.4375 C-65.0415625 73.2209375 -65.0415625 73.2209375 -64 73 C-63.67 73.33 -63.34 73.66 -63 74 C-59.99993017 73.62461589 -57.04261299 73.18581673 -54.0625 72.6875 C-52.75623657 72.47601318 -52.75623657 72.47601318 -51.42358398 72.26025391 C-47.11496148 71.55363176 -42.83151391 70.79480398 -38.5625 69.875 C-25.63619832 67.19133875 -12.04853431 67.35052388 1 69 C1 69.33 1 69.66 1 70 C-0.03664795 70.05945801 -0.03664795 70.05945801 -1.09423828 70.12011719 C-25.23811201 71.55409295 -49.3033767 74.00326793 -73 79 C-70.83505527 60.6200611 -59.61239177 43.80201649 -48 30 C-47.33484375 29.11634766 -47.33484375 29.11634766 -46.65625 28.21484375 C-39.25826826 18.67415389 -12.72526148 -4.24175383 0 0 Z " fill="#1881CA" transform="translate(356,419)"/>
<path d="M0 0 C0.33 0 0.66 0 1 0 C1.01981934 0.62567871 1.03963867 1.25135742 1.06005859 1.89599609 C1.15514226 4.72276519 1.26488746 7.54877815 1.375 10.375 C1.4059375 11.35984375 1.436875 12.3446875 1.46875 13.359375 C1.50742187 14.30039062 1.54609375 15.24140625 1.5859375 16.2109375 C1.6173584 17.08024902 1.6487793 17.94956055 1.68115234 18.84521484 C1.81229433 21.20961794 1.81229433 21.20961794 4 23 C4.37890625 25.86328125 4.37890625 25.86328125 4.5625 29.3125 C4.9439554 36.44581059 4.9439554 36.44581059 6.9375 43.25 C7.86236134 45.64375877 8.34623452 47.68462208 8.8125 50.1875 C10.18172237 56.72690604 13.31665989 62.47498984 17 68 C17 68.99 17 69.98 17 71 C17.66 71.33 18.32 71.66 19 72 C19 72.99 19 73.98 19 75 C19.66 75 20.32 75 21 75 C21.22171875 75.48726562 21.4434375 75.97453125 21.671875 76.4765625 C33.67761273 100.40103986 57.86978718 115.56184636 82 125 C82.71027344 125.30421875 83.42054688 125.6084375 84.15234375 125.921875 C89.5845293 128.17284406 95.26191569 129.16205469 101.0234375 130.25390625 C104 131 104 131 106 133 C100.16493872 133.30382829 95.37675833 132.27457949 89.8125 130.5625 C88.95043945 130.29953125 88.08837891 130.0365625 87.20019531 129.765625 C80.71821081 127.70904462 74.46433395 125.25744635 68.25 122.5 C67.03727417 121.96741577 67.03727417 121.96741577 65.80004883 121.42407227 C60.31063384 118.89721683 55.70870229 115.76829197 51 112 C50.20851563 111.40574219 49.41703125 110.81148437 48.6015625 110.19921875 C31.16515493 96.8634683 16.2852757 79.63352313 8 59 C8 58.01 8 57.02 8 56 C7.34 55.67 6.68 55.34 6 55 C5.23307691 52.5374579 4.5864321 50.13108091 4 47.625 C3.835 46.95855469 3.67 46.29210937 3.5 45.60546875 C2.96868943 43.40966177 2.47980713 41.20762075 2 39 C1.81324707 38.18265381 1.62649414 37.36530762 1.43408203 36.52319336 C-0.18349105 28.76414373 -0.23151853 21.21535536 -0.125 13.3125 C-0.11597656 12.02666016 -0.10695313 10.74082031 -0.09765625 9.41601562 C-0.0743189 6.27714268 -0.04158033 3.13867524 0 0 Z " fill="#0F438E" transform="translate(434,498)"/>
<path d="M0 0 C0.66 0 1.32 0 2 0 C2.14695312 0.65484375 2.29390625 1.3096875 2.4453125 1.984375 C4.5686854 10.62430609 7.51823598 19.6643039 14 26 C15.1875 29.1875 15.1875 29.1875 16 32 C16.94875 32.061875 17.8975 32.12375 18.875 32.1875 C19.90625 32.455625 20.9375 32.72375 22 33 C22.69658363 34.65438613 23.36096883 36.32254318 24 38 C25.96466413 39.06775224 27.96855359 40.06553465 30 41 C30.92425781 41.95712891 30.92425781 41.95712891 31.8671875 42.93359375 C44.50256764 55.17556461 69.83424383 55.13503092 86.09375 55.31640625 C87.65173858 55.33700886 89.20972199 55.35800613 90.7677002 55.37937927 C94.84464293 55.43425879 98.92163322 55.48381678 102.99865723 55.53222656 C107.16841809 55.58269265 111.33811092 55.63824692 115.5078125 55.69335938 C123.67181727 55.80052284 131.83587941 55.9020585 140 56 C140 56.33 140 56.66 140 57 C129.99336242 57.09336811 119.9868313 57.16409965 109.97984409 57.20724869 C105.33137504 57.22797554 100.68320763 57.25601458 96.03491211 57.30175781 C91.53500921 57.34575515 87.03539334 57.36924858 82.53529167 57.37950897 C80.83277821 57.38680505 79.13027745 57.40104688 77.42788887 57.42292023 C54.79277007 57.70173857 34.6823255 52.23973938 17.7109375 36.66015625 C8.17061129 27.29853932 3.23148972 15.87179984 0 3 C0 2.01 0 1.02 0 0 Z " fill="#0F4F9F" transform="translate(490,519)"/>
<path d="M0 0 C-5.75 3 -5.75 3 -8 3 C3.45944694 34.94102015 21.06844048 59.27533897 52.0625 74.6875 C61.27490012 78.99534038 71.18944272 81.44707215 81 84 C81 84.33 81 84.66 81 85 C74.32380472 85.37994607 69.09976465 84.12135838 62.8125 81.9375 C61.42538818 81.46268188 61.42538818 81.46268188 60.01025391 80.97827148 C30.90454846 70.71120211 8.50081125 48.52456286 -4.7109375 20.95703125 C-10.90559294 6.74686712 -10.90559294 6.74686712 -9 1 C-5.71803757 -0.95143712 -3.5838203 -1.32734085 0 0 Z " fill="#0C256D" transform="translate(293,546)"/>
<path d="M0 0 C3.8088684 0.67215325 7.41388869 1.53295446 11 3 C11.33 3.99 11.66 4.98 12 6 C14.08674136 7.62247231 14.08674136 7.62247231 16.625 9.1875 C20.96288986 12.11247717 24.22485645 15.17065788 27.52734375 19.20703125 C29.08303869 21.16844457 29.08303869 21.16844457 31.4375 23.375 C33 25 33 25 33 27 C33.66 27 34.32 27 35 27 C35.43570313 27.91523438 35.87140625 28.83046875 36.3203125 29.7734375 C36.92083356 30.97447962 37.52245443 32.17497227 38.125 33.375 C38.70507812 34.55835938 39.28515625 35.74171875 39.8828125 36.9609375 C42.33684044 40.48350897 43.87489811 41.12356192 48 42 C48 42.33 48 42.66 48 43 C51.96 43.33 55.92 43.66 60 44 C60 44.33 60 44.66 60 45 C67.59 45.33 75.18 45.66 83 46 C83 46.33 83 46.66 83 47 C46.30684932 47 46.30684932 47 42 45 C40.38484397 42.71334137 39.13944819 40.65083013 37.875 38.1875 C33.31385891 29.97566085 27.65803731 23.57549966 21 17 C20.31164062 16.31292969 19.62328125 15.62585938 18.9140625 14.91796875 C14.00535943 10.33029901 8.35073835 7.04718843 2.5625 3.69921875 C1.716875 3.13847656 0.87125 2.57773437 0 2 C0 1.34 0 0.68 0 0 Z " fill="#135FAE" transform="translate(541,421)"/>
<path d="M0 0 C4.51617719 3.99233239 6.92158151 8.11979843 9.4375 13.5625 C9.82365479 14.39096436 10.20980957 15.21942871 10.60766602 16.07299805 C13.29882749 22.03251831 15.53170941 28.05910567 17.4375 34.3125 C17.67202881 35.0744165 17.90655762 35.83633301 18.14819336 36.62133789 C21.63811194 48.799283 22.30665341 61.01982376 22.1875 73.625 C22.18603763 74.97265561 22.18538384 76.32031235 22.18554688 77.66796875 C22.14119508 87.43521968 22.14119508 87.43521968 21 92 C14.73 91.67 8.46 91.34 2 91 C2 90.67 2 90.34 2 90 C7.94 90 13.88 90 20 90 C19.67 88.68 19.34 87.36 19 86 C18.94140314 83.96957491 18.93873548 81.9372372 18.97265625 79.90625 C18.99102539 78.111875 18.99102539 78.111875 19.00976562 76.28125 C19.04448695 73.79160234 19.08343945 71.30200951 19.12695312 68.8125 C19.21842481 58.73985362 18.25123412 49.55050023 15 40 C14.67144439 38.16947588 14.36065074 36.33572152 14.0625 34.5 C13.30653546 30.14001849 12.11772101 26.90963879 10 23 C9.38049053 21.25537243 8.77809377 19.50462713 8.1875 17.75 C6.42309659 12.73140508 4.05397311 8.45478513 1.171875 3.99609375 C0 2 0 2 0 0 Z " fill="#1586D4" transform="translate(564,464)"/>
<path d="M0 0 C0.66 0 1.32 0 2 0 C1.690625 0.804375 1.38125 1.60875 1.0625 2.4375 C-0.18565517 6.62249087 -0.6337696 10.66306101 -1 15 C-0.0409375 14.7215625 -0.0409375 14.7215625 0.9375 14.4375 C1.618125 14.293125 2.29875 14.14875 3 14 C3.33 14.33 3.66 14.66 4 15 C7.00006983 14.62461589 9.95738701 14.18581673 12.9375 13.6875 C14.24376343 13.47601318 14.24376343 13.47601318 15.57641602 13.26025391 C19.88503852 12.55363176 24.16848609 11.79480398 28.4375 10.875 C41.36380168 8.19133875 54.95146569 8.35052388 68 10 C68 10.33 68 10.66 68 11 C67.30890137 11.03963867 66.61780273 11.07927734 65.90576172 11.12011719 C41.76188799 12.55409295 17.6966233 15.00326793 -6 20 C-4.85210257 12.90116066 -2.88549626 6.58341381 0 0 Z " fill="#1A6EB2" transform="translate(289,478)"/>
<path d="M0 0 C2.48046784 0.00502644 4.96093668 0.00958732 7.44140625 0.01367188 C13.46095943 0.02458356 19.48047497 0.04123045 25.5 0.0625 C22.89878001 3.96432998 20.96100304 3.98570616 16.5 5.0625 C15.89577209 5.24509872 15.29154419 5.42769745 14.66900635 5.61582947 C11.7940125 6.2078863 9.1059915 6.1362282 6.17089844 6.08422852 C4.88987244 6.06413223 3.60884644 6.04403595 2.28900146 6.02333069 C0.89579042 5.99613637 -0.49741836 5.96882549 -1.890625 5.94140625 C-3.31979606 5.91709291 -4.74897519 5.89324996 -6.17816162 5.86985779 C-9.93307721 5.80713756 -13.6878492 5.73803705 -17.44262695 5.66760254 C-21.27678916 5.59680989 -25.11105287 5.53205842 -28.9453125 5.46679688 C-36.46365397 5.33794009 -43.98185398 5.20234206 -51.5 5.0625 C-51.5 4.7325 -51.5 4.4025 -51.5 4.0625 C-22.79 3.5675 -22.79 3.5675 6.5 3.0625 C-18.25 2.5675 -18.25 2.5675 -43.5 2.0625 C-43.5 1.7325 -43.5 1.4025 -43.5 1.0625 C-29.00836995 -0.17632767 -14.53342739 -0.05153698 0 0 Z " fill="#1858A5" transform="translate(451.5,462.9375)"/>
<path d="M0 0 C1.65 0 3.3 0 5 0 C5 0.66 5 1.32 5 2 C3.68 1.67 2.36 1.34 1 1 C0.814375 2.2684375 0.814375 2.2684375 0.625 3.5625 C-1.09179512 13.00487318 -3.83836789 22.35986848 -10.53515625 29.4296875 C-12.07118214 30.99787141 -12.07118214 30.99787141 -13.359375 32.984375 C-15.36495703 35.44837578 -17.46794148 36.74096343 -20.1875 38.375 C-24.45481459 41.00103975 -28.48729218 43.76142885 -32.44140625 46.8359375 C-35.91129211 49.42748133 -38.73481771 49.22849191 -43 49 C-43.66 48.34 -44.32 47.68 -45 47 C-44.18917969 46.72027344 -43.37835937 46.44054687 -42.54296875 46.15234375 C-34.96286993 43.40797736 -27.07244338 40.4698345 -21 35 C-20.31914925 32.44584919 -20.31914925 32.44584919 -20 30 C-17.10451959 27.79029126 -15.66842255 27 -12 27 C-10.64650407 24.50123828 -9.65903977 22.05830032 -8.6875 19.375 C-7.16259439 15.2126301 -5.22261069 11.32646735 -3.18359375 7.39453125 C-1.98599352 4.97166346 -0.97165355 2.52092603 0 0 Z " fill="#2AA3EB" transform="translate(686,532)"/>
<path d="M0 0 C-4.3073021 2.87153474 -6.47375479 3.16312782 -11.65625 3.31640625 C-12.67921173 3.34778183 -12.67921173 3.34778183 -13.72283936 3.37979126 C-15.98176959 3.44664473 -18.2408042 3.50536092 -20.5 3.5625 C-21.27388062 3.58301422 -22.04776123 3.60352844 -22.84509277 3.62466431 C-33.92593417 3.91422094 -45.0083767 4.12369573 -56.09301758 4.17623901 C-57.50628738 4.18361729 -58.91954496 4.19418093 -60.33276367 4.20828247 C-70.09153462 4.29722502 -79.38053035 3.51972466 -89 2 C-89 1.67 -89 1.34 -89 1 C-78.4294289 0.86911008 -67.85885218 0.73868503 -57.28826809 0.60884857 C-52.37959451 0.54854177 -47.47092298 0.48807664 -42.56225586 0.42724609 C-37.82253024 0.36851504 -33.08279961 0.31020455 -28.34306526 0.25218201 C-26.53743367 0.23000474 -24.7318039 0.20767757 -22.92617607 0.18519592 C-20.39146261 0.15366248 -17.85674308 0.12266866 -15.32202148 0.09179688 C-14.20963104 0.07777077 -14.20963104 0.07777077 -13.07476807 0.0634613 C-8.71603057 0.01103711 -4.35893356 -0.00839248 0 0 Z " fill="#0E2671" transform="translate(472,631)"/>
<path d="M0 0 C0.66 0 1.32 0 2 0 C-3.485409 20.22744568 -19.90441154 37.68648716 -36.5625 49.8125 C-37.45606201 50.47088867 -37.45606201 50.47088867 -38.36767578 51.14257812 C-40.06640625 52.33203125 -40.06640625 52.33203125 -43 54 C-43.99 53.67 -44.98 53.34 -46 53 C-43.74284678 49.04998187 -40.88826969 47.85582954 -36.9375 46.00390625 C-33.18486662 44.05949742 -31.32225075 41.96675224 -30 38 C-28.68 38 -27.36 38 -26 38 C-25.67 37.01 -25.34 36.02 -25 35 C-23.58203125 33.67578125 -23.58203125 33.67578125 -21.8125 32.3125 C-14.34638139 26.09326882 -9.44374937 17.54567186 -5 9 C-5 8.34 -5 7.68 -5 7 C-4.34 7 -3.68 7 -3 7 C-2.690625 6.21625 -2.38125 5.4325 -2.0625 4.625 C-1 2 -1 2 0 0 Z " fill="#1D97E3" transform="translate(734,563)"/>
<path d="M0 0 C0.33 0 0.66 0 1 0 C1.06993164 0.57854736 1.13986328 1.15709473 1.21191406 1.75317383 C3.40020533 19.43365258 6.10374731 36.51146022 20.8125 48.43359375 C25.55879237 51.83227811 30.43960175 55.14653392 36 57 C36 57.66 36 58.32 36 59 C25.63431256 57.98985055 16.42432134 49.36566221 9.93359375 41.66015625 C0.4234196 28.57646212 -1.77418238 15.64700604 0 0 Z " fill="#0F3782" transform="translate(501,505)"/>
<path d="M0 0 C2.48389315 2.48389315 2.66770044 4.15711549 3.4375 7.5625 C5.86895357 19.17326091 5.86895357 19.17326091 12 29 C12.74761921 30.2180313 13.47450438 31.44888304 14.1875 32.6875 C20.53973285 42.91754941 30.59536817 49.34530879 41 55 C40.01 55.495 40.01 55.495 39 56 C21.76149354 48.69205196 11.35523457 35.85057577 3.62890625 19.30859375 C2.22639751 16.01168827 2.22639751 16.01168827 0 14 C-0.33 14 -0.66 14 -1 14 C-1.02685938 11.85423363 -1.04633088 9.70837355 -1.0625 7.5625 C-1.07410156 6.36753906 -1.08570313 5.17257812 -1.09765625 3.94140625 C-1 1 -1 1 0 0 Z " fill="#1060A9" transform="translate(489,520)"/>
<path d="M0 0 C-0.99 0.495 -0.99 0.495 -2 1 C-2.33 1.66 -2.66 2.32 -3 3 C-3.66 2.34 -4.32 1.68 -5 1 C-6.78937616 -0.08090641 -8.60560914 -1.11782495 -10.4375 -2.125 C-11.40558594 -2.66382813 -12.37367188 -3.20265625 -13.37109375 -3.7578125 C-15.96747273 -5.21360995 -15.96747273 -5.21360995 -19 -5 C-20.00416372 -5.99581887 -21.00367869 -6.9963348 -22 -8 C-24.12396223 -8.96094016 -24.12396223 -8.96094016 -26.4375 -9.625 C-27.19933594 -9.86476563 -27.96117187 -10.10453125 -28.74609375 -10.3515625 C-33.53636243 -11.72969872 -38.41925209 -13.13234605 -43.4375 -12.875 C-47.09081669 -13.05321057 -49.69884315 -14.44651442 -53 -16 C-53.33 -15.01 -53.66 -14.02 -54 -13 C-54.66 -13.66 -55.32 -14.32 -56 -15 C-57.31747324 -15.69748583 -58.64914193 -16.36959957 -60 -17 C-39.58658496 -21.81830157 -17.23051134 -9.48619682 0 0 Z " fill="#4DC5FA" transform="translate(531,429)"/>
<path d="M0 0 C3.95602561 0.54829127 6.22699246 1.63798191 9.375 4.0625 C23.68532713 14.39303201 39.95338348 21.27645538 57.3046875 24.359375 C60 25 60 25 62 27 C56.16493872 27.30382829 51.37675833 26.27457949 45.8125 24.5625 C44.95043945 24.29953125 44.08837891 24.0365625 43.20019531 23.765625 C36.71821081 21.70904462 30.46433395 19.25744635 24.25 16.5 C23.44151611 16.14494385 22.63303223 15.7898877 21.80004883 15.42407227 C17.03503852 13.23067056 12.93328078 10.67980464 8.81542969 7.42895508 C6.92348221 5.93977157 4.9762486 4.5622495 3 3.1875 C2.01 2.465625 1.02 1.74375 0 1 C0 0.67 0 0.34 0 0 Z " fill="#0D65B2" transform="translate(478,604)"/>
<path d="M0 0 C9.01415725 -0.51591361 15.71785867 0.49339321 24 4 C25.11375 4.309375 26.2275 4.61875 27.375 4.9375 C30.82502913 6.33394036 32.53128977 8.22270099 35 11 C35.54269531 11.43570312 36.08539063 11.87140625 36.64453125 12.3203125 C39.16118118 14.57174171 40.78213281 16.43800993 41.26220703 19.87988281 C41.52107038 24.60007717 41.30553823 29.28678991 41 34 C40.67 34 40.34 34 40 34 C39.97421875 33.38253906 39.9484375 32.76507812 39.921875 32.12890625 C39.50268107 25.86957873 38.36418041 20.38268866 35 15 C34.01 14.34 33.02 13.68 32 13 C32 12.34 32 11.68 32 11 C28.94949469 9.76073222 25.88589757 8.55621473 22.8125 7.375 C21.80123047 6.98441406 21.80123047 6.98441406 20.76953125 6.5859375 C18.99423299 5.89521964 18.99423299 5.89521964 17 6 C17 5.34 17 4.68 17 4 C15.66195313 3.80083984 15.66195313 3.80083984 14.296875 3.59765625 C13.12640625 3.42105469 11.9559375 3.24445313 10.75 3.0625 C9.58984375 2.88847656 8.4296875 2.71445312 7.234375 2.53515625 C4.76893039 2.1272264 2.40575438 1.66098697 0 1 C0 0.67 0 0.34 0 0 Z " fill="#0A2D7A" transform="translate(460,482)"/>
<path d="M0 0 C2 1.8125 2 1.8125 4 4 C4 4.99 4 5.98 4 7 C4.66 7.33 5.32 7.66 6 8 C6 8.99 6 9.98 6 11 C6.66 11 7.32 11 8 11 C8.22171875 11.48726562 8.4434375 11.97453125 8.671875 12.4765625 C14.20603334 23.50477659 23.32284889 33.42905237 33 41 C32.01 41.33 31.02 41.66 30 42 C18.9967774 32.56596551 1.00737327 16.24899341 -1 1 C-0.67 0.67 -0.34 0.34 0 0 Z " fill="#0A4A97" transform="translate(447,562)"/>
<path d="M0 0 C2.37667011 0.33973275 4.75505161 0.66444697 7.1340332 0.98754883 C15.72390285 2.18074469 24.08542381 3.66769991 32.44848633 6.02856445 C32.44848633 6.35856445 32.44848633 6.68856445 32.44848633 7.02856445 C27.03395795 6.55663847 21.66255605 5.94064893 16.28833008 5.1262207 C-2.31077352 2.31952309 -20.77447985 0.90647956 -39.55151367 0.02856445 C-39.55151367 -0.30143555 -39.55151367 -0.63143555 -39.55151367 -0.97143555 C-37.61451995 -1.1438865 -35.67687359 -1.30900724 -33.73901367 -1.47143555 C-32.1205957 -1.6106543 -32.1205957 -1.6106543 -30.46948242 -1.75268555 C-20.07295126 -2.3331499 -10.27816155 -1.47465138 0 0 Z " fill="#1766AB" transform="translate(703.551513671875,488.971435546875)"/>
<path d="M0 0 C0.73605469 0.05220703 1.47210937 0.10441406 2.23046875 0.15820312 C4.02910629 0.28667723 5.82712909 0.42370949 7.625 0.5625 C7.625 0.8925 7.625 1.2225 7.625 1.5625 C6.66078125 1.62308594 5.6965625 1.68367188 4.703125 1.74609375 C3.43984375 1.82988281 2.1765625 1.91367187 0.875 2 C-0.37796875 2.08121094 -1.6309375 2.16242188 -2.921875 2.24609375 C-6.20507658 2.45072208 -6.20507658 2.45072208 -8.640625 3.16015625 C-10.375 3.5625 -10.375 3.5625 -13.375 2.5625 C-13.80886092 6.44047662 -13.80886092 6.44047662 -11.875 8.3125 C-11.38 8.725 -10.885 9.1375 -10.375 9.5625 C-13.375 10.5625 -13.375 10.5625 -15.41796875 9.78515625 C-16.12566406 9.40230469 -16.83335937 9.01945312 -17.5625 8.625 C-18.27792969 8.24472656 -18.99335937 7.86445313 -19.73046875 7.47265625 C-20.54451172 7.02212891 -20.54451172 7.02212891 -21.375 6.5625 C-21.705 7.5525 -22.035 8.5425 -22.375 9.5625 C-22.375 8.2425 -22.375 6.9225 -22.375 5.5625 C-23.695 4.9025 -25.015 4.2425 -26.375 3.5625 C-24.50077848 3.08029737 -22.62558246 2.60188167 -20.75 2.125 C-19.18378906 1.72474609 -19.18378906 1.72474609 -17.5859375 1.31640625 C-11.46539512 -0.1206554 -6.22684126 -0.48981482 0 0 Z " fill="#0D69B7" transform="translate(552.375,411.4375)"/>
<path d="M0 0 C8.60435174 1.23959665 17.06089676 1.49686145 25.7421875 1.56494141 C27.2887467 1.58371884 28.83529637 1.60329671 30.38183594 1.62362671 C34.39288627 1.67426143 38.40396959 1.71424746 42.41516113 1.75177002 C46.53206062 1.79224832 50.64883121 1.84313715 54.765625 1.89306641 C62.79939006 1.98900898 70.83322066 2.07366621 78.8671875 2.15087891 C78.8671875 2.48087891 78.8671875 2.81087891 78.8671875 3.15087891 C68.73959365 3.19736816 58.6120255 3.23283205 48.48434639 3.25450325 C43.78086686 3.26490813 39.07746073 3.27900668 34.37402344 3.30175781 C29.82878785 3.32360429 25.28362254 3.33547228 20.73833847 3.34063339 C19.0105364 3.34430806 17.28273785 3.35148337 15.55496597 3.36233902 C6.77196945 3.41529182 -1.55956613 3.34544773 -10.1328125 1.15087891 C-6.19170648 -1.47652511 -4.61993306 -0.73001968 0 0 Z " fill="#0157AF" transform="translate(551.1328125,572.84912109375)"/>
<path d="M0 0 C3.45925102 0.64098149 6.91722524 1.28860591 10.375 1.9375 C11.35984375 2.11990234 12.3446875 2.30230469 13.359375 2.49023438 C14.30039062 2.66748047 15.24140625 2.84472656 16.2109375 3.02734375 C17.08024902 3.18968506 17.94956055 3.35202637 18.84521484 3.51928711 C21 4 21 4 23 5 C25.76931368 5.15691907 28.51734107 5.25843134 31.2890625 5.31640625 C32.51669815 5.3475779 32.51669815 5.3475779 33.76913452 5.37937927 C36.38766966 5.44484812 39.00630639 5.50374726 41.625 5.5625 C43.39844807 5.60568776 45.17188581 5.64930214 46.9453125 5.69335938 C51.29677046 5.80052676 55.64833077 5.90180169 60 6 C60 6.33 60 6.66 60 7 C42.12239228 9.00630467 15.30250894 10.94560461 -1 2 C-0.67 1.34 -0.34 0.68 0 0 Z " fill="#0463B9" transform="translate(537,563)"/>
<path d="M0 0 C1.32 0 2.64 0 4 0 C4.33 0.66 4.66 1.32 5 2 C18.36466696 7.53617272 32.72304708 8.39597096 47 8 C47 8.66 47 9.32 47 10 C29.13309645 10.55138219 14.31940563 10.01655014 -2 2 C-1.34 1.34 -0.68 0.68 0 0 Z " fill="#0A5FAF" transform="translate(537,544)"/>
<path d="M0 0 C0.66 0.33 1.32 0.66 2 1 C2.02476851 5.19921466 2.04289246 9.39839029 2.05493164 13.59765625 C2.05995206 15.02539816 2.06676972 16.45313496 2.07543945 17.88085938 C2.08760553 19.93621079 2.09325128 21.99149407 2.09765625 24.046875 C2.10551147 25.90070801 2.10551147 25.90070801 2.11352539 27.79199219 C2 31 2 31 1 35 C-5.27 34.67 -11.54 34.34 -18 34 C-18 33.67 -18 33.34 -18 33 C-12.06 33 -6.12 33 0 33 C-0.33 31.68 -0.66 30.36 -1 29 C-1.01565449 26.75490003 -0.96746181 24.50903242 -0.87890625 22.265625 C-0.80639648 20.32236328 -0.80639648 20.32236328 -0.73242188 18.33984375 C-0.67590496 16.97655737 -0.61926274 15.61327617 -0.5625 14.25 C-0.50924178 12.87111388 -0.45650166 11.49220765 -0.40429688 10.11328125 C-0.27463047 6.74195467 -0.13966346 3.37092482 0 0 Z " fill="#1776C2" transform="translate(584,521)"/>
<path d="M0 0 C13.39349842 1.70355901 24.86922374 11.72954577 33 22 C28.71 22 24.42 22 20 22 C19.67 21.01 19.34 20.02 19 19 C21.64 19.33 24.28 19.66 27 20 C24.60015659 12.80046976 16.02205274 8.85241389 9.57641602 5.58276367 C6.39974044 4.02031982 3.20824461 2.49665009 0 1 C0 0.67 0 0.34 0 0 Z " fill="#002175" transform="translate(644,466)"/>
<path d="M0 0 C4.23322844 0.62045463 7.52290295 2.10523559 11.3125 4.0625 C12.38113281 4.61035156 13.44976562 5.15820312 14.55078125 5.72265625 C15.35902344 6.14417969 16.16726563 6.56570313 17 7 C13.34257578 9.43828281 9.87133945 9.92205867 5.625 10.625 C4.86960937 10.7590625 4.11421875 10.893125 3.3359375 11.03125 C-0.48477419 11.68584746 -4.10771193 12.17057836 -8 12 C-4.69001895 9.79334596 -2.17978564 9.21737905 1.6875 8.375 C3.45673828 7.98441406 3.45673828 7.98441406 5.26171875 7.5859375 C6.61716797 7.29589844 6.61716797 7.29589844 8 7 C5.56010763 4.43847077 3.03995783 2.80754249 0 1 C0 0.67 0 0.34 0 0 Z " fill="#11327B" transform="translate(477,621)"/>
<path d="M0 0 C1.92819325 1.85106552 3.76879269 3.71036258 5.4375 5.80078125 C11.20540595 12.94133789 18.39622434 17.80076212 27 21 C27 21.66 27 22.32 27 23 C16.64083806 22.00452498 7.92792776 13.55346874 1.29296875 6.04296875 C0 4 0 4 0 0 Z " fill="#0C499C" transform="translate(510,541)"/>
<path d="M0 0 C0 0.33 0 0.66 0 1 C-4.4578947 1.33937404 -8.91637349 1.67039125 -13.375 2 C-14.62667969 2.09539062 -15.87835938 2.19078125 -17.16796875 2.2890625 C-24.12751043 2.79918597 -31.02144775 3.1466168 -38 3 C-27.84060128 -3.77293248 -11.55158757 -1.46024583 0 0 Z " fill="#1F7EC3" transform="translate(357,488)"/>
<path d="M0 0 C1.65 0 3.3 0 5 0 C5 0.33 5 0.66 5 1 C8.96 1.33 12.92 1.66 17 2 C17 2.33 17 2.66 17 3 C24.59 3.33 32.18 3.66 40 4 C40 4.33 40 4.66 40 5 C4.625 5 4.625 5 0 4 C0 2.68 0 1.36 0 0 Z " fill="#134C98" transform="translate(584,463)"/>
<path d="M0 0 C6.71990916 2.44360333 6.71990916 2.44360333 7.8671875 4.72265625 C8.0572031 7.98086489 6.97578629 10.20811114 5.6875 13.1875 C5.23761719 14.25355469 4.78773438 15.31960938 4.32421875 16.41796875 C3 19 3 19 1 20 C1.33 18.02 1.66 16.04 2 14 C2.66 14 3.32 14 4 14 C4.33 10.7 4.66 7.4 5 4 C3.35 4 1.7 4 0 4 C-0.309375 4.94875 -0.61875 5.8975 -0.9375 6.875 C-2 10 -2 10 -3 12 C-3.66 12 -4.32 12 -5 12 C-4.54738642 10.56068883 -4.08767021 9.12361001 -3.625 7.6875 C-3.24214844 6.48673828 -3.24214844 6.48673828 -2.8515625 5.26171875 C-2 3 -2 3 0 0 Z " fill="#0960B2" transform="translate(678,527)"/>
<path d="M0 0 C-10.47293093 5.77551338 -10.47293093 5.77551338 -15.5625 8.25 C-18.96550897 9.75927889 -18.96550897 9.75927889 -21 12 C-21 9 -21 9 -19.875 7.5078125 C-17.41863681 5.53248711 -14.8315651 4.256082 -12 2.875 C-10.4221875 2.09769531 -10.4221875 2.09769531 -8.8125 1.3046875 C-3.4912892 -1.16376307 -3.4912892 -1.16376307 0 0 Z M-24 11 C-23.34 11.33 -22.68 11.66 -22 12 C-24.31 13.65 -26.62 15.3 -29 17 C-29.66 16.67 -30.32 16.34 -31 16 C-28.69 14.35 -26.38 12.7 -24 11 Z " fill="#2197DF" transform="translate(356,419)"/>
<path d="M0 0 C1.7074998 1.28062485 3.37373596 2.61767557 5 4 C5 4.66 5 5.32 5 6 C5.66 6 6.32 6 7 6 C7.48210938 6.91523438 7.96421875 7.83046875 8.4609375 8.7734375 C9.09876794 9.9740595 9.73679926 11.1745748 10.375 12.375 C10.69210937 12.97828125 11.00921875 13.5815625 11.3359375 14.203125 C12.7132062 16.78550382 13.91830581 18.91830581 16 21 C15.34 21.99 14.68 22.98 14 24 C13.40832031 22.98679687 12.81664062 21.97359375 12.20703125 20.9296875 C11.40913579 19.57795872 10.61094279 18.22640555 9.8125 16.875 C9.42513672 16.20984375 9.03777344 15.5446875 8.63867188 14.859375 C6.69033523 11.57457603 4.72026652 8.5711744 2.19921875 5.6953125 C0 3 0 3 0 0 Z " fill="#0E54A4" transform="translate(569,442)"/>
<path d="M0 0 C4.04657781 0.55148052 6.43370347 1.75118623 9.6875 4.1875 C14.62157982 7.77861975 19.72577436 10.93646042 25 14 C24.67 14.66 24.34 15.32 24 16 C18.39404165 13.79395158 13.65743653 11.26386544 8.9296875 7.5234375 C6.99998588 5.99998885 5.01871195 4.5900589 3 3.1875 C2.01 2.465625 1.02 1.74375 0 1 C0 0.67 0 0.34 0 0 Z " fill="#0E5CA9" transform="translate(478,604)"/>
<path d="M0 0 C0.66 0 1.32 0 2 0 C2.14695312 0.65484375 2.29390625 1.3096875 2.4453125 1.984375 C4.09043443 8.6783194 6.51529218 14.40783956 9.79296875 20.46875 C11 23 11 23 11 26 C10.34 26 9.68 26 9 26 C4.71400102 18.21845268 0 9.05102311 0 0 Z " fill="#083380" transform="translate(490,519)"/>
<path d="M0 0 C-0.99 1.485 -0.99 1.485 -2 3 C-5.4375 3.125 -5.4375 3.125 -9 3 C-9.99 3.33 -10.98 3.66 -12 4 C-13.82962436 4.14328384 -15.66501237 4.22040343 -17.5 4.25 C-18.4590625 4.27578125 -19.418125 4.3015625 -20.40625 4.328125 C-23.36443253 3.95389709 -24.20113073 3.30935919 -26 1 C-24.35451172 0.90912109 -24.35451172 0.90912109 -22.67578125 0.81640625 C-21.22134346 0.73195502 -19.76691695 0.64730934 -18.3125 0.5625 C-17.59126953 0.52318359 -16.87003906 0.48386719 -16.12695312 0.44335938 C-1.62383102 -0.41755655 -1.62383102 -0.41755655 0 0 Z " fill="#249DE7" transform="translate(642,581)"/>
<path d="M0 0 C0.99 0.33 1.98 0.66 3 1 C3.84375 2.96875 3.84375 2.96875 4.5 5.5 C5.44052511 8.96509252 6.43775914 12.36117656 7.625 15.75 C8.76281705 19.15141075 9.73659846 22.40017899 10 26 C9.34 26.66 8.68 27.32 8 28 C6.8529053 24.08370163 5.70754303 20.16689868 4.5625 16.25 C4.23701172 15.13882813 3.91152344 14.02765625 3.57617188 12.8828125 C3.26357422 11.81289063 2.95097656 10.74296875 2.62890625 9.640625 C2.34088135 8.65610352 2.05285645 7.67158203 1.75610352 6.65722656 C1.12688262 4.44591232 0.54006553 2.23443421 0 0 Z " fill="#037DCE" transform="translate(529,510)"/>
<path d="M0 0 C0.94875 0.825 1.8975 1.65 2.875 2.5 C10.22869485 8.77139702 17.32259114 14.64033565 26 19 C25.34 19.33 24.68 19.66 24 20 C15.11548499 16.23357312 5.38466474 10.19405504 0 2 C0 1.34 0 0.68 0 0 Z " fill="#106CB8" transform="translate(504,556)"/>
<path d="M0 0 C4.81897702 4.18331873 7.25094518 8.82681467 9.9375 14.5625 C10.36095703 15.41263672 10.78441406 16.26277344 11.22070312 17.13867188 C11.61064453 17.96044922 12.00058594 18.78222656 12.40234375 19.62890625 C12.75804443 20.37213135 13.11374512 21.11535645 13.48022461 21.88110352 C14 24 14 24 13.09985352 26.27319336 C12.55542603 27.12796265 12.55542603 27.12796265 12 28 C11.63648438 26.96101563 11.27296875 25.92203125 10.8984375 24.8515625 C8.22554813 17.38145518 5.50511536 10.48209759 1.1015625 3.8203125 C0 2 0 2 0 0 Z " fill="#2296E0" transform="translate(564,464)"/>
<path d="M0 0 C4.49038276 0.38036183 6.67462417 3.55768129 9.4375 6.75 C10.37257653 7.80828356 11.30876654 8.86558436 12.24609375 9.921875 C12.69968262 10.43556641 13.15327148 10.94925781 13.62060547 11.47851562 C15.66774125 13.7365245 17.82349131 15.86694248 20 18 C12.63465216 16.9308366 6.61027757 9.08453676 2.375 3.4375 C1.57201573 2.29956925 0.7754496 1.15686994 0 0 Z " fill="#0D529F" transform="translate(460,586)"/>
<path d="M0 0 C3.1705529 1.29170674 5.04393796 3.06306202 7.390625 5.50390625 C12.8171099 10.54842983 19.06965335 14.43878493 26 17 C25.34 17.66 24.68 18.32 24 19 C16.77573194 15.96427034 10.98299531 12.54686454 5.25 7.25 C4.7250293 6.76619873 4.20005859 6.28239746 3.65917969 5.78393555 C2.391473 4.57085673 1.18906284 3.29025968 0 2 C0 1.34 0 0.68 0 0 Z " fill="#2068B0" transform="translate(356,547)"/>
<path d="M0 0 C3.60654039 2.40436026 3.85452932 3.94679607 5 8 C7.97 8.495 7.97 8.495 11 9 C11.66 10.98 12.32 12.96 13 15 C8.20723687 14.56506954 6.27831782 12.71818208 3.125 9.1875 C2.32320313 8.31480469 1.52140625 7.44210937 0.6953125 6.54296875 C-1 4 -1 4 -0.7578125 1.67578125 C-0.50773437 1.12277344 -0.25765625 0.56976562 0 0 Z " fill="#0B4190" transform="translate(501,543)"/>
<path d="M0 0 C1.31571603 0.2547514 2.62760376 0.52934141 3.9375 0.8125 C4.66839844 0.96332031 5.39929688 1.11414063 6.15234375 1.26953125 C6.76207031 1.51058594 7.37179687 1.75164062 8 2 C8.33 2.99 8.66 3.98 9 5 C10.59332129 6.57663496 10.59332129 6.57663496 12.5625 8.125 C24.98859892 18.68942706 24.98859892 18.68942706 26 25 C23.06528438 22.15421516 20.33241032 19.24308235 17.6875 16.125 C12.46714051 10.11023798 6.65515893 5.3258533 0 1 C0 0.67 0 0.34 0 0 Z " fill="#34C0F7" transform="translate(496,470)"/>
<path d="M0 0 C3.60374463 -0.14500644 7.20674242 -0.23396763 10.8125 -0.3125 C11.83666016 -0.35439453 12.86082031 -0.39628906 13.91601562 -0.43945312 C16.69374344 -0.48498965 19.26211537 -0.47512223 22 0 C24.68123659 2.84315851 25 4.12582954 25 8 C24.34 8 23.68 8 23 8 C22.34 6.35 21.68 4.7 21 3 C14.07 2.67 7.14 2.34 0 2 C0 1.34 0 0.68 0 0 Z " fill="#1E65AB" transform="translate(416,568)"/>
<path d="M0 0 C0.66 0.33 1.32 0.66 2 1 C1.33613281 1.43570312 0.67226563 1.87140625 -0.01171875 2.3203125 C-5.82220793 6.12516659 -5.82220793 6.12516659 -10.625 11.0625 C-13.6218412 14.76911938 -17.11633857 17.28240068 -21 20 C-18.03832277 12.99967201 -12.77781685 8.77720366 -6.6875 4.625 C-6.04232422 4.17511719 -5.39714844 3.72523438 -4.73242188 3.26171875 C-3.16015853 2.1669576 -1.5808046 1.08239124 0 0 Z " fill="#1C8BD4" transform="translate(334,427)"/>
<path d="M0 0 C0.99 0 1.98 0 3 0 C3.53625 0.680625 4.0725 1.36125 4.625 2.0625 C7.42613353 5.52705989 10.58559142 7.84048666 14.171875 10.44921875 C14.77515625 10.96097656 15.3784375 11.47273437 16 12 C16 12.66 16 13.32 16 14 C12.53572042 13.27135079 9.23293345 12.46072741 6 11 C4.5 7.875 4.5 7.875 4 5 C3.34 4.67 2.68 4.34 2 4 C2 3.34 2 2.68 2 2 C1.34 2 0.68 2 0 2 C0 1.34 0 0.68 0 0 Z " fill="#09307F" transform="translate(458,605)"/>
<path d="M0 0 C-0.99 0.66 -1.98 1.32 -3 2 C-3.639375 2.53625 -4.27875 3.0725 -4.9375 3.625 C-7 5 -7 5 -11 5 C-12.34262065 5.29369827 -13.67696283 5.6278958 -15 6 C-17.94227886 6.82751593 -19.81655846 7 -23 7 C-22.67 6.01 -22.34 5.02 -22 4 C-18.91015625 3.0859375 -18.91015625 3.0859375 -15.0625 2.375 C-2.25201803 -0.04895691 -2.25201803 -0.04895691 0 0 Z " fill="#1D7BC8" transform="translate(657,569)"/>
<path d="M0 0 C2.57146057 2.57146057 2.80117997 4.6050417 3.625 8.125 C3.88539063 9.22070312 4.14578125 10.31640625 4.4140625 11.4453125 C4.70410156 12.70988281 4.70410156 12.70988281 5 14 C3 14 1 14 -1 14 C-1.02685938 11.85423363 -1.04633088 9.70837355 -1.0625 7.5625 C-1.07410156 6.36753906 -1.08570313 5.17257812 -1.09765625 3.94140625 C-1 1 -1 1 0 0 Z " fill="#0A68B4" transform="translate(489,520)"/>
<path d="M0 0 C3.24199494 0.24014777 4.23473864 1.22635512 6.625 3.53125 C9.69123557 7.33131943 9.58960944 10.65987632 9.3125 15.375 C9.27866211 16.47908203 9.27866211 16.47908203 9.24414062 17.60546875 C9.18572927 19.40453842 9.09606337 21.20254753 9 23 C8.67 23 8.34 23 8 23 C7.96132813 22.07380859 7.96132813 22.07380859 7.921875 21.12890625 C7.50268107 14.86957873 6.36418041 9.38268866 3 4 C2.01 3.34 1.02 2.68 0 2 C0 1.34 0 0.68 0 0 Z " fill="#06206B" transform="translate(492,493)"/>
<path d="M0 0 C0 0.33 0 0.66 0 1 C-0.99 1.24234375 -1.98 1.4846875 -3 1.734375 C-10.14024046 3.53095746 -16.50717274 5.43531053 -23 9 C-23.66 9 -24.32 9 -25 9 C-25 8.34 -25 7.68 -25 7 C-7.65776956 -2.15988372 -7.65776956 -2.15988372 0 0 Z " fill="#134992" transform="translate(397,468)"/>
<path d="M0 0 C1.65 0 3.3 0 5 0 C5.24234375 0.56847656 5.4846875 1.13695312 5.734375 1.72265625 C7.40728432 5.57678196 9.11133441 9.31704469 11.25 12.9375 C13 16 13 16 13 18 C10 17 10 17 8.17578125 13.83984375 C7.54446852 12.54399131 6.92374601 11.24293771 6.3125 9.9375 C5.99216797 9.27427734 5.67183594 8.61105469 5.34179688 7.92773438 C4.5521402 6.28949142 3.77487638 4.64528546 3 3 C2.34 3 1.68 3 1 3 C0.67 2.01 0.34 1.02 0 0 Z " fill="#205FA4" transform="translate(343,528)"/>
<path d="M0 0 C4.50727647 0.60266785 7.8587963 2.36599794 11.8125 4.5625 C12.7087207 5.0565332 12.7087207 5.0565332 13.62304688 5.56054688 C15.08533998 6.36773267 16.5431399 7.18304917 18 8 C17.01 8.495 17.01 8.495 16 9 C15.67 9.66 15.34 10.32 15 11 C14.34 10.34 13.68 9.68 13 9 C9.91330538 7.16443405 6.78399978 5.41385005 3.65234375 3.65625 C1 2 1 2 0 0 Z " fill="#43BDF7" transform="translate(513,421)"/>
<path d="M0 0 C1.32 0 2.64 0 4 0 C4.33 0.66 4.66 1.32 5 2 C7.34038186 3.13102526 7.34038186 3.13102526 10.0625 4.125 C10.98160156 4.47820313 11.90070312 4.83140625 12.84765625 5.1953125 C13.55792969 5.46085938 14.26820313 5.72640625 15 6 C15 6.33 15 6.66 15 7 C8.59859065 6.53444296 3.73230171 4.85288164 -2 2 C-1.34 1.34 -0.68 0.68 0 0 Z " fill="#0C55A0" transform="translate(537,544)"/>
<path d="M0 0 C0.66 1.32 1.32 2.64 2 4 C1.55269531 4.36351562 1.10539063 4.72703125 0.64453125 5.1015625 C-3.38793652 8.4547873 -6.76004454 11.87642033 -10 16 C-10.66 15.67 -11.32 15.34 -12 15 C-10.93166187 12.28059385 -10.01879963 11.01473485 -7.6875 9.1875 C-4.34602825 6.46769741 -2.40133617 3.56769945 0 0 Z " fill="#1A7AC8" transform="translate(670,543)"/>
<path d="M0 0 C-1.65848177 1.01351664 -3.32665961 2.01120795 -5 3 C-5.639375 3.4125 -6.27875 3.825 -6.9375 4.25 C-9.84247178 5.30635337 -12.03905411 4.67294225 -15 4 C-14.34 3.67 -13.68 3.34 -13 3 C-13 2.01 -13 1.02 -13 0 C-11.58456585 -0.19658808 -10.16755969 -0.38187546 -8.75 -0.5625 C-7.96109375 -0.66691406 -7.1721875 -0.77132813 -6.359375 -0.87890625 C-3.99467126 -1.00027349 -2.2488963 -0.69633257 0 0 Z " fill="#074496" transform="translate(477,464)"/>
<path d="M0 0 C0.74958984 0.10441406 1.49917969 0.20882812 2.27148438 0.31640625 C4.11999204 0.5754328 5.96647432 0.84883966 7.8125 1.125 C7.4825 1.785 7.1525 2.445 6.8125 3.125 C0.52989294 3.35768915 -5.06769467 2.52954548 -11.1875 1.125 C-7.23979304 -1.50680464 -4.44769851 -0.6758948 0 0 Z " fill="#0E5DAD" transform="translate(552.1875,572.875)"/>
<path d="M0 0 C-1.75 3.875 -1.75 3.875 -4 5 C-4.66 4.67 -5.32 4.34 -6 4 C-6.33 4.99 -6.66 5.98 -7 7 C-7 5.68 -7 4.36 -7 3 C-8.32 2.34 -9.64 1.68 -11 1 C-3.57142857 -1.42857143 -3.57142857 -1.42857143 0 0 Z " fill="#2678BE" transform="translate(537,414)"/>
<path d="M0 0 C2.08326131 -0.02709444 4.16662441 -0.04643873 6.25 -0.0625 C7.41015625 -0.07410156 8.5703125 -0.08570313 9.765625 -0.09765625 C12.40977128 -0.01782092 14.49826091 0.21356222 17 1 C17 1.99 17 2.98 17 4 C14.91631462 3.68985608 12.83306332 3.3767948 10.75 3.0625 C9.58984375 2.88847656 8.4296875 2.71445312 7.234375 2.53515625 C4.76893039 2.1272264 2.40575438 1.66098697 0 1 C0 0.67 0 0.34 0 0 Z " fill="#082473" transform="translate(460,482)"/>
<path d="M0 0 C0.66 0 1.32 0 2 0 C3.19733988 2.11997834 4.38298713 4.24513676 5.5625 6.375 C5.90474609 6.97828125 6.24699219 7.5815625 6.59960938 8.203125 C7.46127095 9.76978241 8.23718183 11.38290862 9 13 C8.67 13.66 8.34 14.32 8 15 C4.72713318 12.2180632 3.03572303 8.72045933 1 5 C0.67 5 0.34 5 0 5 C0 3.35 0 1.7 0 0 Z " fill="#0E3480" transform="translate(440,576)"/>
<path d="M0 0 C0.33 0 0.66 0 1 0 C1.18175781 0.81984375 1.36351562 1.6396875 1.55078125 2.484375 C1.80214844 3.56203125 2.05351563 4.6396875 2.3125 5.75 C2.55613281 6.81734375 2.79976562 7.8846875 3.05078125 8.984375 C3.9754825 11.92210901 5.00092358 13.69294262 7 16 C3.71816803 15.4341669 2.00802454 14.69257836 0 12 C-0.29296875 9.08203125 -0.29296875 9.08203125 -0.1875 5.8125 C-0.16042969 4.72582031 -0.13335938 3.63914062 -0.10546875 2.51953125 C-0.07066406 1.68808594 -0.03585937 0.85664062 0 0 Z " fill="#08256F" transform="translate(520,523)"/>
<path d="M0 0 C0 3.67628006 -1.05940379 6.19532432 -2.375 9.625 C-2.81585938 10.79289062 -3.25671875 11.96078125 -3.7109375 13.1640625 C-5 16 -5 16 -7 17 C-6.68676972 15.32943851 -6.34665557 13.66394675 -6 12 C-5.87753906 11.34902344 -5.75507813 10.69804687 -5.62890625 10.02734375 C-4.68301386 5.54900366 -3.71425097 2.97140078 0 0 Z " fill="#0B80D0" transform="translate(295,470)"/>
<path d="M0 0 C0.66 0 1.32 0 2 0 C3.65 4.29 5.3 8.58 7 13 C6.01 13.495 6.01 13.495 5 14 C4.15675328 12.421924 3.32576082 10.8372958 2.5 9.25 C2.0359375 8.36828125 1.571875 7.4865625 1.09375 6.578125 C0 4 0 4 0 0 Z " fill="#092F7C" transform="translate(504,530)"/>
<path d="M0 0 C3.8131431 0.67290761 7.43702894 1.46144431 11 3 C11.875 5.125 11.875 5.125 12 7 C7.24518354 6.42365861 4.02951788 4.44931479 0 2 C0 1.34 0 0.68 0 0 Z " fill="#0B58AC" transform="translate(541,421)"/>
<path d="M0 0 C3.24198486 3.06674243 6.19934278 5.8690805 8 10 C7.06640625 12.15234375 7.06640625 12.15234375 6 14 C5.18247697 12.41925436 4.37118003 10.83528777 3.5625 9.25 C3.11003906 8.36828125 2.65757812 7.4865625 2.19140625 6.578125 C1.16544602 4.35801434 0.48491397 2.38555381 0 0 Z " fill="#0D2E76" transform="translate(507,491)"/>
<path d="M0 0 C0.33 0.66 0.66 1.32 1 2 C-1 4 -1 4 -4.9140625 4.1953125 C-6.48449351 4.18200376 -8.05486221 4.15813602 -9.625 4.125 C-10.42679687 4.11597656 -11.22859375 4.10695313 -12.0546875 4.09765625 C-14.03658523 4.07406223 -16.01832981 4.03819065 -18 4 C-18 3.67 -18 3.34 -18 3 C-16.0509375 2.814375 -16.0509375 2.814375 -14.0625 2.625 C-9.28150048 2.10136672 -4.66885899 1.13686165 0 0 Z " fill="#1181CD" transform="translate(321,488)"/>
<path d="M0 0 C3.27863638 3.1572054 6.28242887 6.35069019 9 10 C8.67 10.99 8.34 11.98 8 13 C6.65472507 11.59466816 5.3241269 10.17527548 4 8.75 C3.2575 7.96109375 2.515 7.1721875 1.75 6.359375 C0 4 0 4 0 0 Z " fill="#0B3F8D" transform="translate(510,541)"/>
<path d="M0 0 C1.32 0.33 2.64 0.66 4 1 C4 1.66 4 2.32 4 3 C2.68 3 1.36 3 0 3 C-0.12375 3.928125 -0.2475 4.85625 -0.375 5.8125 C-1 9 -1 9 -3 12 C-3.66 12 -4.32 12 -5 12 C-4.54738642 10.56068883 -4.08767021 9.12361001 -3.625 7.6875 C-3.24214844 6.48673828 -3.24214844 6.48673828 -2.8515625 5.26171875 C-2 3 -2 3 0 0 Z " fill="#2272B7" transform="translate(678,527)"/>
<path d="M0 0 C0.66 0 1.32 0 2 0 C2.53293835 1.74635165 3.05090663 3.49727652 3.5625 5.25 C3.85253906 6.22453125 4.14257812 7.1990625 4.44140625 8.203125 C4.99249836 10.96243932 4.93789609 12.3912824 4 15 C2.24265549 10.02638346 0.67415387 5.2584002 0 0 Z " fill="#021E6C" transform="translate(490,519)"/>
<path d="M0 0 C0.99 0.33 1.98 0.66 3 1 C3.984375 3.14453125 3.984375 3.14453125 4.75 5.8125 C5.01296875 6.68519531 5.2759375 7.55789063 5.546875 8.45703125 C6 11 6 11 5 15 C3.35 10.05 1.7 5.1 0 0 Z " fill="#1093E1" transform="translate(529,510)"/>
<path d="M0 0 C0.66 0 1.32 0 2 0 C1.32584613 5.2584002 -0.24265549 10.02638346 -2 15 C-2.66 14.34 -3.32 13.68 -4 13 C-4 12.01 -4 11.02 -4 10 C-3.34 10 -2.68 10 -2 10 C-1.34 6.7 -0.68 3.4 0 0 Z " fill="#1E88CF" transform="translate(739,548)"/>
<path d="M0 0 C1.48206495 0.254496 2.96068615 0.52911762 4.4375 0.8125 C5.67306641 1.03873047 5.67306641 1.03873047 6.93359375 1.26953125 C7.61550781 1.51058594 8.29742188 1.75164063 9 2 C9.33 2.99 9.66 3.98 10 5 C5.55129785 5.39253254 2.85756507 4.15305957 -1 2 C-0.67 1.34 -0.34 0.68 0 0 Z " fill="#0C56A9" transform="translate(537,563)"/>
<path d="M0 0 C0 0.66 0 1.32 0 2 C-3.87684087 3.19287411 -6.91621923 4 -11 4 C-11 3.34 -11 2.68 -11 2 C-7.17010894 0.19769832 -4.21878192 -0.19622241 0 0 Z " fill="#0A2A74" transform="translate(322,535)"/>
<path d="M0 0 C0.33 0.99 0.66 1.98 1 3 C-3.62 2.01 -8.24 1.02 -13 0 C-13 -0.33 -13 -0.66 -13 -1 C-8.08471601 -2.19884975 -4.71817304 -1.85026394 0 0 Z " fill="#0E448F" transform="translate(641,469)"/>
<path d="M0 0 C4.62 0 9.24 0 14 0 C14.33 0.99 14.66 1.98 15 3 C14.01 2.855625 13.02 2.71125 12 2.5625 C8.00590535 1.99074821 4.00467063 1.49180166 0 1 C0 0.67 0 0.34 0 0 Z " fill="#182834" transform="translate(603,503)"/>
<path d="M0 0 C0.33 0 0.66 0 1 0 C1 1.65 1 3.3 1 5 C2.32 4.67 3.64 4.34 5 4 C5 4.66 5 5.32 5 6 C2.35261084 7.4606285 1.10551666 8 -2 8 C-1.125 2.25 -1.125 2.25 0 0 Z " fill="#0383D7" transform="translate(287,488)"/>
<path d="M0 0 C0.66 0.33 1.32 0.66 2 1 C0.63016497 4.16115776 0.0109362 4.9927092 -3 7 C-3.66 6.67 -4.32 6.34 -5 6 C-5 5.01 -5 4.02 -5 3 C-3.68 3 -2.36 3 -1 3 C-0.67 2.01 -0.34 1.02 0 0 Z " fill="#219EEB" transform="translate(709,598)"/>
<path d="M0 0 C4.75481646 0.57634139 7.97048212 2.55068521 12 5 C9.44345185 5.95582656 8.39658231 6.17802782 5.859375 5.0390625 C5.16328125 4.57242188 4.4671875 4.10578125 3.75 3.625 C3.04359375 3.16351562 2.3371875 2.70203125 1.609375 2.2265625 C1.07828125 1.82179688 0.5471875 1.41703125 0 1 C0 0.67 0 0.34 0 0 Z " fill="#0C337D" transform="translate(525,539)"/>
<path d="M0 0 C6.93 0.495 6.93 0.495 14 1 C14 1.33 14 1.66 14 2 C11.36 2 8.72 2 6 2 C5.67 2.66 5.34 3.32 5 4 C3.35 2.68 1.7 1.36 0 0 Z " fill="#144289" transform="translate(454,480)"/>
<path d="M0 0 C3.5625 1.25 3.5625 1.25 7 3 C7.33 3.99 7.66 4.98 8 6 C4.08788267 4.84414715 1.1254959 3.64465038 -2 1 C-1.34 0.67 -0.68 0.34 0 0 Z " fill="#113078" transform="translate(339,618)"/>
<path d="M0 0 C-3.42346555 3.14958831 -6.44262737 3.56179109 -11 4 C-11 3.34 -11 2.68 -11 2 C-7.17010894 0.19769832 -4.21878192 -0.19622241 0 0 Z " fill="#0A256D" transform="translate(310,539)"/>
<path d="M0 0 C-0.83144531 0.39832031 -0.83144531 0.39832031 -1.6796875 0.8046875 C-2.76636719 1.33449219 -2.76636719 1.33449219 -3.875 1.875 C-4.59429687 2.22304688 -5.31359375 2.57109375 -6.0546875 2.9296875 C-8.15135019 3.96557543 -8.15135019 3.96557543 -10 6 C-9.8125 3.625 -9.8125 3.625 -9 1 C-5.5905923 -1.02721539 -3.70505081 -1.09018552 0 0 Z " fill="#0F2C6F" transform="translate(293,546)"/>
<path d="M0 0 C0.33 0.66 0.66 1.32 1 2 C-3.455 2.495 -3.455 2.495 -8 3 C-8 2.34 -8 1.68 -8 1 C-5.07175348 0.02391783 -3.04386724 -0.08226668 0 0 Z " fill="#173D7F" transform="translate(493,627)"/>
<path d="M0 0 C3.63 0.33 7.26 0.66 11 1 C11 1.33 11 1.66 11 2 C9.54263913 2.19491452 8.08405407 2.38069358 6.625 2.5625 C5.81289063 2.66691406 5.00078125 2.77132812 4.1640625 2.87890625 C2 3 2 3 0 2 C0 1.34 0 0.68 0 0 Z " fill="#1868B5" transform="translate(547,566)"/>
<path d="M0 0 C0.99 0.495 0.99 0.495 2 1 C2.4140625 3.28515625 2.4140625 3.28515625 2.625 6.0625 C2.69976563 6.98160156 2.77453125 7.90070312 2.8515625 8.84765625 C2.92503906 9.91306641 2.92503906 9.91306641 3 11 C-0.16492205 7.24528933 -0.28301994 4.90567888 0 0 Z " fill="#09226A" transform="translate(517,510)"/>
<path d="M0 0 C6.75 0.75 6.75 0.75 9 3 C6.36 3 3.72 3 1 3 C0.67 2.01 0.34 1.02 0 0 Z " fill="#01206A" transform="translate(663,485)"/>
<path d="M0 0 C2.31 0.66 4.62 1.32 7 2 C7 2.99 7 3.98 7 5 C4.0625 4.1875 4.0625 4.1875 1 3 C0.67 2.01 0.34 1.02 0 0 Z " fill="#1461B0" transform="translate(534,417)"/>
<path d="M0 0 C-2.61941217 1.74627478 -4.03824877 2.38722388 -7 3 C-7.33 2.01 -7.66 1.02 -8 0 C-4.71023192 -1.09658936 -3.28696233 -0.79953138 0 0 Z " fill="#1B94E0" transform="translate(679,622)"/>
<path d="M0 0 C2.4375 1.1875 2.4375 1.1875 5 3 C5.8125 5.6875 5.8125 5.6875 6 8 C1.125 3.375 1.125 3.375 0 0 Z " fill="#082C79" transform="translate(450,595)"/>
<path d="M0 0 C1.32 0.33 2.64 0.66 4 1 C3.34 3.97 2.68 6.94 2 10 C0.89131683 6.67395049 0.45822468 3.46941546 0 0 Z " fill="#0F9BED" transform="translate(735,548)"/>
<path d="M0 0 C0 3 0 3 -2 5.1875 C-2.66 5.785625 -3.32 6.38375 -4 7 C-4.99 6.67 -5.98 6.34 -7 6 C-4.69 4.02 -2.38 2.04 0 0 Z " fill="#002579" transform="translate(362,474)"/>
<path d="M0 0 C0.66 0 1.32 0 2 0 C2 0.66 2 1.32 2 2 C3.175625 2.185625 3.175625 2.185625 4.375 2.375 C7 3 7 3 9 5 C5.28111761 4.49287967 2.26545761 3.88391785 -1 2 C-0.67 1.34 -0.34 0.68 0 0 Z " fill="#3FC9F8" transform="translate(486,464)"/>
<path d="M0 0 C-0.99 0.33 -1.98 0.66 -3 1 C-3.73323796 3.01508358 -3.73323796 3.01508358 -4 5 C-5.32 4.34 -6.64 3.68 -8 3 C-5.53387212 -0.1151089 -3.89156016 -0.31553191 0 0 Z " fill="#0161B4" transform="translate(542,413)"/>
<path d="M0 0 C1.32 0 2.64 0 4 0 C4 0.66 4 1.32 4 2 C3.34 2 2.68 2 2 2 C2.33 3.98 2.66 5.96 3 8 C0.4345406 5.4345406 0.45953913 3.52313332 0 0 Z " fill="#155DAA" transform="translate(340,531)"/>
<path d="M0 0 C3 3 3 3 3.1875 5.6875 C3.0946875 6.8321875 3.0946875 6.8321875 3 8 C2.01 8.495 2.01 8.495 1 9 C0.67 6.03 0.34 3.06 0 0 Z " fill="#002B7C" transform="translate(488,510)"/>
<path d="M0 0 C3.96 0 7.92 0 12 0 C9.7833378 2.2166622 9.05601978 2.66044225 6 3 C2.75 2.0625 2.75 2.0625 0 1 C0 0.67 0 0.34 0 0 Z " fill="#16529B" transform="translate(584,466)"/>
<path d="M0 0 C4 1 4 1 4 1 Z " fill="#2870A8" transform="translate(713,494)"/>
<path d="M0 0 C4 1 4 1 4 1 Z " fill="#191C20" transform="translate(440,288)"/>
<path d="M0 0 C0.33 0.66 0.66 1.32 1 2 C0.34 1.67 -0.32 1.34 -1 1 C-0.67 0.67 -0.34 0.34 0 0 Z " fill="#3D81AD" transform="translate(727,539)"/>
<path d="M0 0 C3 1 3 1 3 1 Z " fill="#1A1F21" transform="translate(853,539)"/>
<path d="M0 0 C3 1 3 1 3 1 Z " fill="#3D7EAD" transform="translate(691,529)"/>
<path d="M0 0 C3 1 3 1 3 1 Z " fill="#3C6484" transform="translate(673,517)"/>
<path d="M0 0 C3 1 3 1 3 1 Z " fill="#1E3241" transform="translate(263,512)"/>
<path d="M0 0 C3 1 3 1 3 1 Z " fill="#161A1F" transform="translate(834,510)"/>
<path d="" fill="#245A9D" transform="translate(0,0)"/>
<path d="M0 0 C3 1 3 1 3 1 Z " fill="#1B65A7" transform="translate(634,471)"/>
<path d="M0 0 C3 1 3 1 3 1 Z " fill="#297EBF" transform="translate(546,409)"/>
<path d="M0 0 C3 1 3 1 3 1 Z " fill="#6BC2EF" transform="translate(474,409)"/>
<path d="M0 0 C3 1 3 1 3 1 Z " fill="#203C54" transform="translate(561,365)"/>
<path d="M0 0 C0.66 0 1.32 0 2 0 C1.67 0.66 1.34 1.32 1 2 C0.67 1.34 0.34 0.68 0 0 Z " fill="#161A1E" transform="translate(695,321)"/>
<path d="M0 0 C3 1 3 1 3 1 Z " fill="#141619" transform="translate(619,296)"/>
<path d="" fill="#1C4082" transform="translate(0,0)"/>
<path d="M0 0 C2 1 2 1 2 1 Z " fill="#227EC4" transform="translate(539,574)"/>
<path d="M0 0 C2 1 2 1 2 1 Z " fill="#2177BB" transform="translate(517,566)"/>
<path d="" fill="#2274B4" transform="translate(0,0)"/>
<path d="M0 0 C2 1 2 1 2 1 Z " fill="#2D3237" transform="translate(146,557)"/>
<path d="M0 0 C2 1 2 1 2 1 Z " fill="#376C90" transform="translate(728,533)"/>
<path d="M0 0 C2 1 2 1 2 1 Z " fill="#3C7FAF" transform="translate(694,530)"/>
<path d="" fill="#141920" transform="translate(0,0)"/>
<path d="M0 0 C2 1 2 1 2 1 Z " fill="#14181C" transform="translate(822,528)"/>
<path d="M0 0 C2 1 2 1 2 1 Z " fill="#151A1D" transform="translate(200,528)"/>
<path d="M0 0 C2 1 2 1 2 1 Z " fill="#3D6381" transform="translate(666,515)"/>
<path d="M0 0 C2 1 2 1 2 1 Z " fill="#426887" transform="translate(633,509)"/>
<path d="M0 0 C2 1 2 1 2 1 Z " fill="#456789" transform="translate(392,509)"/>
<path d="M0 0 C2 1 2 1 2 1 Z " fill="#3F6887" transform="translate(625,500)"/>
<path d="" fill="#1F619E" transform="translate(0,0)"/>
<path d="M0 0 C2 1 2 1 2 1 Z " fill="#2568A6" transform="translate(441,480)"/>
<path d="M0 0 C2 1 2 1 2 1 Z " fill="#1C61A2" transform="translate(643,474)"/>
<path d="M0 0 C2 1 2 1 2 1 Z " fill="#2571B9" transform="translate(467,470)"/>
<path d="M0 0 C2 1 2 1 2 1 Z " fill="#2B75BA" transform="translate(457,469)"/>
<path d="M0 0 C2 1 2 1 2 1 Z " fill="#181E24" transform="translate(168,464)"/>
<path d="" fill="#194264" transform="translate(0,0)"/>
<path d="" fill="#141B20" transform="translate(0,0)"/>
<path d="M0 0 C2 1 2 1 2 1 Z " fill="#408ABF" transform="translate(336,424)"/>
<path d="M0 0 C2 1 2 1 2 1 Z " fill="#4793C5" transform="translate(353,416)"/>
<path d="M0 0 C2 1 2 1 2 1 Z " fill="#65C1EF" transform="translate(485,410)"/>
<path d="M0 0 C2 1 2 1 2 1 Z " fill="#68C2EE" transform="translate(478,409)"/>
<path d="M0 0 C2 1 2 1 2 1 Z " fill="#141A1F" transform="translate(208,409)"/>
<path d="M0 0 C2 1 2 1 2 1 Z " fill="#164165" transform="translate(666,397)"/>
<path d="M0 0 C2 1 2 1 2 1 Z " fill="#2B526C" transform="translate(478,363)"/>
<path d="" fill="#13161C" transform="translate(0,0)"/>
<path d="M0 0 C2 1 2 1 2 1 Z " fill="#191D1F" transform="translate(400,296)"/>
<path d="M0 0 C2 1 2 1 2 1 Z " fill="#191E22" transform="translate(532,284)"/>
<path d="" fill="#545555" transform="translate(0,0)"/>
<path d="" fill="#3A94CD" transform="translate(0,0)"/>
<path d="" fill="#2D7DBA" transform="translate(0,0)"/>
<path d="" fill="#1F4281" transform="translate(0,0)"/>
<path d="" fill="#1E3F7F" transform="translate(0,0)"/>
<path d="" fill="#1B4080" transform="translate(0,0)"/>
<path d="" fill="#439ED8" transform="translate(0,0)"/>
<path d="" fill="#193E81" transform="translate(0,0)"/>
<path d="" fill="#173F82" transform="translate(0,0)"/>
<path d="" fill="#193F83" transform="translate(0,0)"/>
<path d="" fill="#183F81" transform="translate(0,0)"/>
<path d="" fill="#12569A" transform="translate(0,0)"/>
<path d="" fill="#153C82" transform="translate(0,0)"/>
<path d="" fill="#1560A4" transform="translate(0,0)"/>
<path d="" fill="#11549B" transform="translate(0,0)"/>
<path d="" fill="#46A0D6" transform="translate(0,0)"/>
<path d="" fill="#1558A0" transform="translate(0,0)"/>
<path d="" fill="#48A4DE" transform="translate(0,0)"/>
<path d="" fill="#2284CA" transform="translate(0,0)"/>
<path d="" fill="#2283C8" transform="translate(0,0)"/>
<path d="" fill="#47A4DF" transform="translate(0,0)"/>
<path d="" fill="#2281C6" transform="translate(0,0)"/>
<path d="" fill="#163B7E" transform="translate(0,0)"/>
<path d="" fill="#283540" transform="translate(0,0)"/>
<path d="" fill="#153D7D" transform="translate(0,0)"/>
<path d="" fill="#283440" transform="translate(0,0)"/>
<path d="" fill="#4DABE3" transform="translate(0,0)"/>
<path d="" fill="#4DA5E3" transform="translate(0,0)"/>
<path d="" fill="#277FC7" transform="translate(0,0)"/>
<path d="" fill="#165CA2" transform="translate(0,0)"/>
<path d="" fill="#47A6E0" transform="translate(0,0)"/>
<path d="" fill="#143C7C" transform="translate(0,0)"/>
<path d="" fill="#262B31" transform="translate(0,0)"/>
<path d="" fill="#42A4E0" transform="translate(0,0)"/>
<path d="" fill="#1C242E" transform="translate(0,0)"/>
<path d="" fill="#3F93D1" transform="translate(0,0)"/>
<path d="" fill="#1D72B2" transform="translate(0,0)"/>
<path d="" fill="#193D7A" transform="translate(0,0)"/>
<path d="" fill="#216EB1" transform="translate(0,0)"/>
<path d="" fill="#32383F" transform="translate(0,0)"/>
<path d="" fill="#2B3638" transform="translate(0,0)"/>
<path d="" fill="#323A3E" transform="translate(0,0)"/>
<path d="" fill="#263A4E" transform="translate(0,0)"/>
<path d="" fill="#3E8FC1" transform="translate(0,0)"/>
<path d="" fill="#1F6FAF" transform="translate(0,0)"/>
<path d="" fill="#173C79" transform="translate(0,0)"/>
<path d="" fill="#192635" transform="translate(0,0)"/>
<path d="" fill="#4292CF" transform="translate(0,0)"/>
<path d="" fill="#277FC0" transform="translate(0,0)"/>
<path d="" fill="#153D73" transform="translate(0,0)"/>
<path d="" fill="#3D85B3" transform="translate(0,0)"/>
<path d="" fill="#284153" transform="translate(0,0)"/>
<path d="" fill="#183B75" transform="translate(0,0)"/>
<path d="" fill="#1B2A3C" transform="translate(0,0)"/>
<path d="" fill="#263C4F" transform="translate(0,0)"/>
<path d="" fill="#294557" transform="translate(0,0)"/>
<path d="" fill="#2F4A5C" transform="translate(0,0)"/>
<path d="" fill="#1A2A3F" transform="translate(0,0)"/>
<path d="" fill="#2B495D" transform="translate(0,0)"/>
<path d="" fill="#4284A9" transform="translate(0,0)"/>
<path d="" fill="#305F7B" transform="translate(0,0)"/>
<path d="" fill="#1D609E" transform="translate(0,0)"/>
<path d="" fill="#185FA5" transform="translate(0,0)"/>
<path d="" fill="#1C304B" transform="translate(0,0)"/>
<path d="" fill="#3B84B6" transform="translate(0,0)"/>
<path d="" fill="#191E20" transform="translate(0,0)"/>
<path d="" fill="#191E22" transform="translate(0,0)"/>
<path d="" fill="#191E20" transform="translate(0,0)"/>
<path d="" fill="#3D82B0" transform="translate(0,0)"/>
<path d="" fill="#1C5592" transform="translate(0,0)"/>
<path d="" fill="#181B20" transform="translate(0,0)"/>
<path d="" fill="#161C22" transform="translate(0,0)"/>
<path d="" fill="#4584BD" transform="translate(0,0)"/>
<path d="" fill="#1A60A4" transform="translate(0,0)"/>
<path d="" fill="#1A4680" transform="translate(0,0)"/>
<path d="" fill="#15191C" transform="translate(0,0)"/>
<path d="" fill="#3D83B5" transform="translate(0,0)"/>
<path d="" fill="#3D84B6" transform="translate(0,0)"/>
<path d="" fill="#3D82B7" transform="translate(0,0)"/>
<path d="" fill="#213F64" transform="translate(0,0)"/>
<path d="" fill="#161A1D" transform="translate(0,0)"/>
<path d="" fill="#245086" transform="translate(0,0)"/>
<path d="" fill="#171A20" transform="translate(0,0)"/>
<path d="" fill="#265188" transform="translate(0,0)"/>
<path d="" fill="#3D7EAD" transform="translate(0,0)"/>
<path d="" fill="#195EA0" transform="translate(0,0)"/>
<path d="" fill="#2A5A8E" transform="translate(0,0)"/>
<path d="" fill="#295389" transform="translate(0,0)"/>
<path d="" fill="#15191E" transform="translate(0,0)"/>
<path d="" fill="#1B4F93" transform="translate(0,0)"/>
<path d="" fill="#2A476D" transform="translate(0,0)"/>
<path d="" fill="#2A4A6E" transform="translate(0,0)"/>
<path d="" fill="#161C21" transform="translate(0,0)"/>
<path d="" fill="#141A21" transform="translate(0,0)"/>
<path d="" fill="#141A1D" transform="translate(0,0)"/>
<path d="" fill="#171D22" transform="translate(0,0)"/>
<path d="" fill="#151C20" transform="translate(0,0)"/>
<path d="" fill="#1C589E" transform="translate(0,0)"/>
<path d="" fill="#172124" transform="translate(0,0)"/>
<path d="" fill="#141B20" transform="translate(0,0)"/>
<path d="" fill="#3A6685" transform="translate(0,0)"/>
<path d="" fill="#3B5F7E" transform="translate(0,0)"/>
<path d="" fill="#3B6283" transform="translate(0,0)"/>
<path d="" fill="#1A1F23" transform="translate(0,0)"/>
<path d="" fill="#191F24" transform="translate(0,0)"/>
<path d="" fill="#18232D" transform="translate(0,0)"/>
<path d="" fill="#171E1E" transform="translate(0,0)"/>
<path d="" fill="#191C20" transform="translate(0,0)"/>
<path d="" fill="#193441" transform="translate(0,0)"/>
<path d="" fill="#192C37" transform="translate(0,0)"/>
<path d="" fill="#1E374A" transform="translate(0,0)"/>
<path d="" fill="#172735" transform="translate(0,0)"/>
<path d="" fill="#447092" transform="translate(0,0)"/>
<path d="" fill="#406B93" transform="translate(0,0)"/>
<path d="" fill="#181D22" transform="translate(0,0)"/>
<path d="" fill="#416A91" transform="translate(0,0)"/>
<path d="" fill="#2B536F" transform="translate(0,0)"/>
<path d="" fill="#457394" transform="translate(0,0)"/>
<path d="" fill="#305977" transform="translate(0,0)"/>
<path d="" fill="#335E7E" transform="translate(0,0)"/>
<path d="" fill="#225C9C" transform="translate(0,0)"/>
<path d="" fill="#172128" transform="translate(0,0)"/>
<path d="" fill="#355C7D" transform="translate(0,0)"/>
<path d="" fill="#151B26" transform="translate(0,0)"/>
<path d="" fill="#18222B" transform="translate(0,0)"/>
<path d="" fill="#3F6685" transform="translate(0,0)"/>
<path d="" fill="#476F90" transform="translate(0,0)"/>
<path d="" fill="#456B8C" transform="translate(0,0)"/>
<path d="" fill="#436C93" transform="translate(0,0)"/>
<path d="" fill="#436E92" transform="translate(0,0)"/>
<path d="" fill="#446A8B" transform="translate(0,0)"/>
<path d="" fill="#266089" transform="translate(0,0)"/>
<path d="" fill="#3A92D1" transform="translate(0,0)"/>
<path d="" fill="#20589C" transform="translate(0,0)"/>
<path d="" fill="#285D82" transform="translate(0,0)"/>
<path d="" fill="#2A5E8A" transform="translate(0,0)"/>
<path d="" fill="#2770A6" transform="translate(0,0)"/>
<path d="" fill="#2A71A8" transform="translate(0,0)"/>
<path d="" fill="#192A38" transform="translate(0,0)"/>
<path d="" fill="#2873AE" transform="translate(0,0)"/>
<path d="" fill="#2974AC" transform="translate(0,0)"/>
<path d="" fill="#2B75AC" transform="translate(0,0)"/>
<path d="" fill="#2A75AA" transform="translate(0,0)"/>
<path d="" fill="#2D75AB" transform="translate(0,0)"/>
<path d="" fill="#379AD7" transform="translate(0,0)"/>
<path d="" fill="#3A82B7" transform="translate(0,0)"/>
<path d="" fill="#3682B9" transform="translate(0,0)"/>
<path d="" fill="#2A74A9" transform="translate(0,0)"/>
<path d="" fill="#2A71A8" transform="translate(0,0)"/>
<path d="" fill="#3877A6" transform="translate(0,0)"/>
<path d="" fill="#3980B1" transform="translate(0,0)"/>
<path d="" fill="#2A6CA0" transform="translate(0,0)"/>
<path d="" fill="#1C5EA9" transform="translate(0,0)"/>
<path d="" fill="#2870A6" transform="translate(0,0)"/>
<path d="" fill="#225F9A" transform="translate(0,0)"/>
<path d="" fill="#1F619D" transform="translate(0,0)"/>
<path d="" fill="#2E6FA4" transform="translate(0,0)"/>
<path d="" fill="#1E589F" transform="translate(0,0)"/>
<path d="" fill="#1F629F" transform="translate(0,0)"/>
<path d="" fill="#1B3D54" transform="translate(0,0)"/>
<path d="" fill="#1960A4" transform="translate(0,0)"/>
<path d="" fill="#1A65A6" transform="translate(0,0)"/>
<path d="" fill="#216BB1" transform="translate(0,0)"/>
<path d="" fill="#41A1DF" transform="translate(0,0)"/>
<path d="" fill="#2B77AF" transform="translate(0,0)"/>
<path d="" fill="#236CB2" transform="translate(0,0)"/>
<path d="" fill="#2E79B3" transform="translate(0,0)"/>
<path d="" fill="#1F65A2" transform="translate(0,0)"/>
<path d="" fill="#1A2126" transform="translate(0,0)"/>
<path d="" fill="#1C2227" transform="translate(0,0)"/>
<path d="" fill="#1C71AF" transform="translate(0,0)"/>
<path d="" fill="#2874BB" transform="translate(0,0)"/>
<path d="" fill="#2F79B8" transform="translate(0,0)"/>
<path d="" fill="#194161" transform="translate(0,0)"/>
<path d="" fill="#1A4362" transform="translate(0,0)"/>
<path d="" fill="#1C68A9" transform="translate(0,0)"/>
<path d="" fill="#2F77BB" transform="translate(0,0)"/>
<path d="" fill="#327BBC" transform="translate(0,0)"/>
<path d="" fill="#317AB9" transform="translate(0,0)"/>
<path d="" fill="#307CBB" transform="translate(0,0)"/>
<path d="" fill="#181C24" transform="translate(0,0)"/>
<path d="" fill="#18415F" transform="translate(0,0)"/>
<path d="" fill="#45A4DD" transform="translate(0,0)"/>
<path d="" fill="#1A4567" transform="translate(0,0)"/>
<path d="" fill="#1B4E74" transform="translate(0,0)"/>
<path d="" fill="#1F5074" transform="translate(0,0)"/>
<path d="" fill="#1E4C6E" transform="translate(0,0)"/>
<path d="" fill="#1A1D24" transform="translate(0,0)"/>
<path d="" fill="#1A2125" transform="translate(0,0)"/>
<path d="" fill="#1F4F74" transform="translate(0,0)"/>
<path d="" fill="#3280B9" transform="translate(0,0)"/>
<path d="" fill="#171C23" transform="translate(0,0)"/>
<path d="" fill="#2E7EB3" transform="translate(0,0)"/>
<path d="" fill="#2C88C8" transform="translate(0,0)"/>
<path d="" fill="#235779" transform="translate(0,0)"/>
<path d="" fill="#24587D" transform="translate(0,0)"/>
<path d="" fill="#185282" transform="translate(0,0)"/>
<path d="" fill="#141A20" transform="translate(0,0)"/>
<path d="" fill="#156BAB" transform="translate(0,0)"/>
<path d="" fill="#171D22" transform="translate(0,0)"/>
<path d="" fill="#58B7EC" transform="translate(0,0)"/>
<path d="" fill="#3C92D4" transform="translate(0,0)"/>
<path d="" fill="#3C9AD7" transform="translate(0,0)"/>
<path d="" fill="#13191C" transform="translate(0,0)"/>
<path d="" fill="#3E8EC2" transform="translate(0,0)"/>
<path d="" fill="#151B24" transform="translate(0,0)"/>
<path d="" fill="#61C0EF" transform="translate(0,0)"/>
<path d="" fill="#3A82B4" transform="translate(0,0)"/>
<path d="" fill="#16507B" transform="translate(0,0)"/>
<path d="" fill="#326E93" transform="translate(0,0)"/>
<path d="" fill="#316C8F" transform="translate(0,0)"/>
<path d="" fill="#3E93CB" transform="translate(0,0)"/>
<path d="" fill="#4297D1" transform="translate(0,0)"/>
<path d="" fill="#164C78" transform="translate(0,0)"/>
<path d="" fill="#368BC3" transform="translate(0,0)"/>
<path d="" fill="#3C90C8" transform="translate(0,0)"/>
<path d="" fill="#65C4F3" transform="translate(0,0)"/>
<path d="" fill="#1667A7" transform="translate(0,0)"/>
<path d="" fill="#50A3D5" transform="translate(0,0)"/>
<path d="" fill="#4D9ACC" transform="translate(0,0)"/>
<path d="" fill="#2F6584" transform="translate(0,0)"/>
<path d="" fill="#144970" transform="translate(0,0)"/>
<path d="" fill="#53A5D6" transform="translate(0,0)"/>
<path d="" fill="#166FB6" transform="translate(0,0)"/>
<path d="" fill="#196EB2" transform="translate(0,0)"/>
<path d="" fill="#63BDEB" transform="translate(0,0)"/>
<path d="" fill="#60B6E8" transform="translate(0,0)"/>
<path d="" fill="#5BB5E5" transform="translate(0,0)"/>
<path d="" fill="#184368" transform="translate(0,0)"/>
<path d="" fill="#366E92" transform="translate(0,0)"/>
<path d="" fill="#184567" transform="translate(0,0)"/>
<path d="" fill="#396D93" transform="translate(0,0)"/>
<path d="" fill="#153F60" transform="translate(0,0)"/>
<path d="" fill="#336689" transform="translate(0,0)"/>
<path d="" fill="#346485" transform="translate(0,0)"/>
<path d="" fill="#183A5A" transform="translate(0,0)"/>
<path d="" fill="#10171C" transform="translate(0,0)"/>
<path d="" fill="#10151A" transform="translate(0,0)"/>
<path d="" fill="#1D4769" transform="translate(0,0)"/>
<path d="" fill="#181B1E" transform="translate(0,0)"/>
<path d="" fill="#1C4465" transform="translate(0,0)"/>
<path d="" fill="#1A3D55" transform="translate(0,0)"/>
<path d="" fill="#305771" transform="translate(0,0)"/>
<path d="" fill="#31576F" transform="translate(0,0)"/>
<path d="" fill="#315C78" transform="translate(0,0)"/>
<path d="" fill="#32546D" transform="translate(0,0)"/>
<path d="" fill="#1C3A55" transform="translate(0,0)"/>
<path d="" fill="#315873" transform="translate(0,0)"/>
<path d="" fill="#33556F" transform="translate(0,0)"/>
<path d="" fill="#2E5871" transform="translate(0,0)"/>
<path d="" fill="#1B3D55" transform="translate(0,0)"/>
<path d="" fill="#315975" transform="translate(0,0)"/>
<path d="" fill="#2F5773" transform="translate(0,0)"/>
<path d="" fill="#121B1E" transform="translate(0,0)"/>
<path d="" fill="#325A78" transform="translate(0,0)"/>
<path d="" fill="#2E4961" transform="translate(0,0)"/>
<path d="" fill="#13181D" transform="translate(0,0)"/>
<path d="" fill="#13191C" transform="translate(0,0)"/>
<path d="" fill="#151B1E" transform="translate(0,0)"/>
<path d="" fill="#151A1E" transform="translate(0,0)"/>
<path d="" fill="#13191D" transform="translate(0,0)"/>
<path d="" fill="#161C20" transform="translate(0,0)"/>
<path d="" fill="#13181D" transform="translate(0,0)"/>
<path d="" fill="#15191B" transform="translate(0,0)"/>
<path d="" fill="#151A1E" transform="translate(0,0)"/>
<path d="" fill="#181C1F" transform="translate(0,0)"/>
<path d="" fill="#13161A" transform="translate(0,0)"/>
<path d="" fill="#171B20" transform="translate(0,0)"/>
<path d="" fill="#13191B" transform="translate(0,0)"/>
<path d="" fill="#181B1F" transform="translate(0,0)"/>
<path d="" fill="#181E20" transform="translate(0,0)"/>
<path d="" fill="#171D1F" transform="translate(0,0)"/>
<path d="" fill="#181B1D" transform="translate(0,0)"/>
<path d="" fill="#181E1F" transform="translate(0,0)"/>
<path d="" fill="#191C1E" transform="translate(0,0)"/>
<path d="" fill="#13181B" transform="translate(0,0)"/>
<path d="" fill="#161A1D" transform="translate(0,0)"/>
<path d="" fill="#161B1C" transform="translate(0,0)"/>
<path d="" fill="#15181D" transform="translate(0,0)"/>
<path d="" fill="#191E22" transform="translate(0,0)"/>
<path d="" fill="#191D1E" transform="translate(0,0)"/>
<path d="" fill="#191C1E" transform="translate(0,0)"/>
<path d="" fill="#181A1B" transform="translate(0,0)"/>
<path d="" fill="#15191B" transform="translate(0,0)"/>
<path d="" fill="#171A1D" transform="translate(0,0)"/>
<path d="" fill="#191C1F" transform="translate(0,0)"/>
<path d="" fill="#191C1F" transform="translate(0,0)"/>
<path d="" fill="#1A1B20" transform="translate(0,0)"/>
<path d="" fill="#1A1C22" transform="translate(0,0)"/>
<path d="" fill="#14181B" transform="translate(0,0)"/>
<path d="" fill="#141B1D" transform="translate(0,0)"/>
<path d="" fill="#181B1E" transform="translate(0,0)"/>
<path d="" fill="#171B1D" transform="translate(0,0)"/>
<path d="" fill="#121315" transform="translate(0,0)"/>
<path d="" fill="#191F21" transform="translate(0,0)"/>
<path d="" fill="#1F2527" transform="translate(0,0)"/>
</svg>
